{"glyphs":{"0":{"ha":372,"x_min":-18,"x_max":376,"o":"m 7 504 q -4 524 4 515 q -15 542 -12 532 q -15 566 -18 546 q -7 610 -11 586 q 2 654 -3 633 q 10 679 7 675 q 28 710 18 696 q 47 739 39 724 q 57 767 51 754 q 88 820 68 790 q 122 871 107 850 q 150 892 131 882 q 174 908 169 901 q 216 889 201 907 q 249 860 231 871 q 278 842 264 850 q 306 822 292 833 q 311 813 308 818 q 317 803 314 808 q 327 798 322 800 q 338 793 332 796 q 347 757 342 772 q 353 746 350 751 q 361 736 357 740 l 361 701 q 368 649 368 676 q 367 631 368 640 q 365 611 365 621 q 368 581 367 596 q 372 551 369 567 q 370 529 371 540 q 368 507 369 518 q 371 495 368 501 q 375 486 374 489 q 376 472 376 483 q 376 444 376 460 q 374 415 375 429 q 374 397 374 401 q 369 393 372 394 q 364 389 365 392 q 361 380 363 386 q 358 366 360 374 q 356 352 357 358 q 354 344 354 346 q 356 333 356 338 q 358 322 356 328 q 356 308 356 315 q 356 292 356 300 q 357 277 356 285 q 361 263 358 269 q 349 218 356 240 q 333 175 343 196 q 326 169 331 172 q 318 161 321 165 q 318 150 318 156 q 317 138 318 144 q 312 129 314 133 q 307 119 310 125 q 304 100 306 110 q 301 81 303 90 q 285 53 292 67 q 269 21 278 39 q 260 11 265 17 q 250 -1 256 6 q 232 -47 240 -22 q 203 -82 224 -72 q 199 -81 200 -81 q 196 -79 199 -81 q 179 -37 185 -58 q 163 6 174 -17 q 153 18 158 13 q 143 31 149 24 q 137 47 139 39 q 129 61 135 54 q 119 69 125 67 q 111 79 114 72 q 112 104 107 92 q 119 128 117 117 q 99 145 111 142 q 76 160 88 149 q 69 169 74 161 q 60 185 65 176 q 51 200 56 193 q 47 210 47 207 q 32 280 36 242 q 21 353 28 318 l 21 417 q 14 442 18 431 q 7 467 10 454 l 7 504 l 7 504 m 108 551 q 89 510 96 535 q 83 460 82 485 q 90 441 86 450 q 99 422 94 432 q 100 403 100 413 q 103 385 100 394 q 110 356 107 371 q 117 325 113 340 q 115 307 119 314 q 111 292 111 300 q 113 284 111 292 q 115 268 114 276 q 117 252 115 260 q 118 244 118 244 q 135 212 124 229 q 156 179 146 194 q 160 165 158 172 q 165 149 163 157 q 176 137 171 142 q 183 121 181 132 q 181 99 182 110 q 178 78 181 89 l 190 65 l 192 65 q 193 69 193 65 q 208 112 207 89 q 219 158 210 135 q 238 191 228 174 q 256 224 247 208 q 257 274 263 253 q 256 322 251 296 q 268 352 258 340 q 283 379 278 364 q 283 394 285 383 q 278 415 282 404 q 272 437 275 426 q 268 450 269 447 q 263 469 265 453 q 257 503 260 485 q 249 547 253 524 q 221 557 239 563 q 210 575 218 567 q 206 599 203 583 q 218 619 208 608 q 224 638 228 629 q 218 639 221 638 q 202 626 211 633 q 182 611 193 618 q 160 600 171 604 q 139 599 149 596 q 128 570 139 578 q 108 551 117 563 z "},"1":{"ha":242,"x_min":-43,"x_max":231,"o":"m 76 360 q 77 386 69 375 q 82 413 85 397 q 68 436 78 425 q 56 461 58 447 q 51 521 51 490 q 55 547 51 532 q 56 576 58 563 l 53 576 q 42 569 46 574 q 31 561 38 565 q 30 556 31 557 q 25 550 29 556 q 13 549 17 550 q -10 576 1 554 q -29 626 -21 599 q -40 678 -37 653 q -39 715 -43 704 q -15 738 -21 722 q 1 761 -10 754 q 60 808 35 783 q 110 861 86 832 q 139 853 119 861 q 178 835 158 846 q 214 812 199 824 q 229 792 229 800 q 224 767 225 781 q 225 739 222 753 q 228 729 226 735 q 228 717 231 724 q 225 711 226 714 q 221 706 224 708 q 219 680 219 693 q 217 654 218 667 q 219 635 214 643 q 221 617 224 626 q 215 608 218 613 q 208 599 211 603 q 199 568 203 583 q 190 538 194 553 q 189 477 189 507 q 189 417 189 447 q 193 406 189 411 q 194 392 197 400 q 187 374 192 383 q 182 356 182 365 q 181 319 178 336 q 186 288 183 303 q 187 271 188 282 q 188 254 186 260 q 183 199 185 226 q 179 146 182 172 q 188 139 182 142 q 190 115 189 126 q 192 90 192 103 q 188 72 189 81 q 183 56 186 64 q 185 43 182 49 q 189 31 188 38 q 187 9 188 19 q 186 -12 186 -1 q 188 -26 185 -19 q 190 -42 192 -32 q 183 -71 188 -57 q 175 -99 178 -85 q 181 -126 178 -112 q 186 -151 183 -139 q 183 -168 186 -157 q 191 -187 188 -175 q 192 -210 194 -199 q 190 -232 192 -221 q 189 -256 188 -243 q 196 -282 194 -271 q 187 -289 193 -285 q 176 -286 181 -293 q 171 -251 169 -275 q 169 -212 172 -226 q 159 -177 165 -194 q 147 -143 153 -160 q 136 -108 140 -126 q 133 -65 132 -89 q 131 -47 133 -54 q 126 -28 129 -39 q 119 35 121 1 q 114 101 118 69 q 109 118 113 108 q 103 139 106 128 q 101 160 101 150 q 106 179 100 171 q 98 201 99 192 q 90 224 97 211 q 86 231 88 226 q 82 238 85 235 q 81 256 78 247 q 90 273 85 265 q 99 289 94 281 q 104 306 104 297 q 92 334 104 319 q 76 360 81 349 z "},"2":{"ha":419,"x_min":-6,"x_max":421,"o":"m 26 532 q 13 539 21 539 q 1 547 6 539 q -5 575 -6 560 q 1 605 -4 590 q 11 633 6 619 q 19 656 17 646 q 39 701 25 674 q 69 756 53 729 q 105 806 86 783 q 139 835 124 828 q 163 844 153 842 q 183 851 174 846 q 217 849 203 849 q 246 846 231 849 q 266 848 256 847 q 288 851 276 849 q 306 835 297 847 q 322 808 315 824 q 335 778 329 793 q 346 751 342 763 q 359 732 351 743 q 369 713 367 721 q 367 697 369 708 q 360 670 364 685 q 351 642 356 656 q 346 621 347 628 q 345 572 346 597 q 343 522 344 547 q 337 511 340 517 q 329 499 333 506 q 290 423 310 458 q 249 351 269 388 q 246 338 243 343 q 246 326 249 333 q 240 313 244 319 q 233 300 236 306 q 228 277 231 289 q 224 254 226 265 q 215 230 219 242 q 207 206 211 218 q 182 169 197 193 q 165 125 167 144 q 168 121 167 121 l 222 117 q 233 119 226 117 q 247 122 240 121 q 260 124 254 124 q 265 125 265 125 q 278 117 276 122 q 288 106 279 113 q 308 101 299 103 q 328 96 318 99 q 335 101 331 99 q 340 107 339 104 q 347 130 346 118 q 347 152 347 142 q 351 172 347 163 q 368 188 356 181 q 374 185 371 185 q 379 182 376 185 l 379 179 q 376 165 378 172 q 371 149 374 157 q 388 126 385 146 q 393 93 390 107 q 402 69 394 88 q 415 31 410 51 q 420 -4 421 11 q 403 -21 419 -19 q 397 -16 397 -18 q 393 -8 397 -14 l 390 -8 q 351 5 372 0 q 319 21 331 10 q 306 14 311 18 q 296 6 301 10 q 277 1 286 1 q 258 -4 268 1 q 246 -11 251 -6 q 227 -9 232 -15 q 215 0 222 -3 q 199 4 210 3 q 176 5 188 6 q 153 3 164 4 q 139 -1 143 1 q 103 -29 131 -22 q 93 -25 97 -29 q 87 29 90 -1 q 89 83 83 60 q 94 113 92 99 q 99 147 97 128 q 93 152 96 150 q 88 157 90 154 q 97 196 94 176 q 103 238 100 215 q 105 263 104 250 q 107 288 106 276 q 127 316 118 303 q 147 344 136 329 q 167 390 158 365 q 183 436 175 414 q 192 487 188 461 q 201 539 197 513 q 219 569 208 556 q 229 604 229 583 q 208 624 215 614 q 213 645 213 632 q 206 667 213 658 q 190 640 199 660 q 183 610 181 621 q 194 599 189 603 q 193 583 196 589 q 166 570 176 578 q 149 547 156 563 q 148 540 149 543 q 147 532 147 536 q 136 526 140 529 q 126 521 132 524 q 120 501 119 511 q 114 482 121 492 q 86 479 99 475 q 63 492 74 483 q 42 513 51 501 q 26 532 33 524 z "},"3":{"ha":343,"x_min":8,"x_max":339,"o":"m 24 642 q 11 691 14 667 q 8 746 8 715 q 13 766 11 757 q 17 785 14 775 q 15 806 15 796 q 11 828 14 817 q 17 832 14 831 q 22 840 19 833 q 45 832 36 838 q 63 819 54 826 q 81 807 71 813 q 104 799 90 801 q 136 797 117 797 q 167 801 156 796 q 178 810 172 806 q 190 818 183 814 q 237 826 214 826 q 283 824 260 826 q 299 825 292 822 q 315 828 307 828 q 328 827 322 829 q 339 815 335 825 q 333 799 336 804 q 325 786 329 794 q 303 724 313 754 q 283 661 293 693 q 282 633 278 646 q 279 608 286 619 q 269 601 274 606 q 258 594 264 597 q 238 567 246 579 q 225 532 231 554 q 206 522 211 526 q 182 519 192 519 q 176 503 172 518 q 226 501 199 500 q 274 490 254 501 q 294 459 289 482 q 306 418 300 436 q 317 383 311 403 q 329 344 322 363 q 329 329 332 338 q 324 315 326 321 l 324 233 q 322 181 321 207 q 307 126 324 154 q 285 106 300 114 q 261 89 271 99 q 244 68 250 81 q 231 44 239 56 q 219 38 225 42 q 207 29 214 33 q 197 12 200 19 q 192 -3 194 4 q 184 -16 189 -10 q 167 -29 179 -22 q 160 -74 165 -46 q 144 -111 154 -101 q 133 -124 140 -118 q 119 -136 125 -129 q 112 -152 114 -144 q 104 -167 110 -160 q 86 -185 94 -176 q 68 -206 78 -194 q 47 -240 54 -221 q 18 -268 40 -258 l 18 -267 q 22 -240 14 -256 q 42 -208 31 -224 q 66 -179 54 -193 q 81 -157 78 -165 q 83 -145 82 -150 q 86 -133 85 -140 q 98 -120 93 -126 q 110 -107 103 -114 q 117 -89 114 -100 q 124 -71 121 -78 q 123 -47 128 -58 q 124 -24 118 -36 q 139 -3 128 -12 q 153 17 150 6 q 151 47 156 29 q 150 75 146 65 q 160 84 153 82 q 172 93 168 86 q 174 100 174 96 q 178 108 175 104 q 190 121 185 117 q 197 130 194 125 q 202 142 200 135 q 207 160 204 149 q 204 197 206 179 q 201 235 203 215 q 203 244 201 239 q 206 253 204 249 q 199 276 203 264 q 199 300 196 289 q 196 322 201 310 q 183 332 190 335 q 126 332 157 335 q 76 340 96 329 q 69 367 74 350 q 68 396 65 385 q 76 408 72 403 q 85 419 81 413 q 82 428 85 425 q 76 435 79 432 q 69 442 72 438 q 67 454 67 447 q 92 506 82 478 q 115 557 101 533 q 128 577 122 568 q 142 596 135 586 q 148 610 144 603 q 156 625 151 618 q 165 635 160 632 q 174 649 171 639 q 167 645 169 647 q 161 642 164 643 q 147 642 154 640 q 133 646 139 644 q 120 646 126 647 q 108 636 114 644 q 106 628 107 632 q 104 619 104 624 q 94 615 103 618 q 74 608 85 611 q 54 603 64 606 q 43 600 44 600 q 31 607 35 600 q 26 623 25 614 q 24 642 26 632 z "},"4":{"ha":336,"x_min":-8,"x_max":325,"o":"m 18 342 q -3 376 3 350 q -4 422 -8 403 q 1 435 -1 426 q -1 468 0 446 q 3 508 -1 490 q 10 520 6 515 q 17 532 14 525 q 19 558 18 546 q 22 585 19 571 q 30 603 26 594 q 38 622 33 613 q 43 662 40 642 q 49 701 46 682 q 49 738 50 719 q 49 774 49 757 q 51 807 49 792 q 63 833 54 822 l 71 833 q 78 830 72 832 q 92 825 85 828 q 105 820 99 822 q 114 818 111 818 q 132 825 124 822 q 142 824 138 824 q 151 822 146 824 q 166 828 161 825 q 175 832 171 831 q 185 833 179 833 q 201 828 190 832 q 203 777 203 801 q 204 728 203 753 q 209 721 207 725 q 214 713 211 717 q 213 698 213 706 q 211 683 213 690 q 219 666 214 672 q 219 649 224 660 q 199 624 210 636 q 178 601 189 613 q 165 599 171 600 q 151 596 158 597 q 147 590 150 593 q 148 589 147 589 q 149 588 149 589 q 168 574 160 585 q 175 549 176 564 q 164 540 165 546 q 156 529 163 535 q 146 524 150 526 q 138 518 142 521 q 138 506 138 514 q 138 487 138 497 q 137 467 138 476 q 135 454 136 458 l 139 454 q 159 463 149 458 q 181 471 169 468 q 203 469 189 472 q 226 471 218 467 q 235 488 235 476 q 233 511 236 499 q 228 537 231 524 q 228 558 225 550 q 224 563 225 561 q 222 571 222 564 q 244 611 231 592 q 264 654 258 631 q 266 698 268 671 q 264 753 264 725 q 267 806 264 782 q 285 842 271 831 q 290 820 292 835 q 290 797 289 806 q 302 737 296 769 q 313 674 308 704 q 311 657 314 664 q 311 639 308 650 q 319 615 314 632 q 322 586 325 597 q 313 567 318 576 q 303 549 308 558 q 303 522 300 538 q 307 496 306 507 q 306 480 307 488 q 304 464 306 472 q 313 437 307 450 q 322 413 319 424 l 322 410 q 311 380 315 390 q 307 346 307 369 q 313 305 308 326 q 321 260 317 283 q 317 242 324 247 q 307 228 310 238 q 310 213 308 221 q 313 196 311 204 q 310 158 314 176 q 307 119 307 139 q 310 104 307 111 q 314 93 313 97 q 315 74 317 83 q 314 57 314 64 q 315 47 317 50 q 310 40 313 43 q 311 11 307 26 q 313 -18 315 -4 q 308 -45 310 -29 q 306 -68 307 -61 q 308 -110 303 -92 q 301 -147 313 -129 q 299 -143 301 -146 q 288 -125 288 -139 q 285 -99 288 -111 q 281 -63 282 -81 q 276 -29 279 -46 q 276 -11 276 -19 q 278 6 276 -3 q 274 26 278 11 q 268 59 271 42 q 263 91 265 76 q 264 110 261 106 q 250 138 256 124 l 250 169 q 244 192 246 181 q 239 215 242 203 l 239 247 q 230 256 235 251 q 219 265 225 261 q 218 286 217 275 q 222 308 219 297 q 223 327 224 318 q 215 342 222 336 q 185 338 201 336 q 161 351 168 340 q 137 335 149 346 q 111 319 125 325 q 99 321 106 321 q 88 321 93 321 q 76 316 83 319 q 65 315 69 313 q 49 327 53 318 q 44 349 46 336 q 32 341 39 346 q 18 342 25 336 z "},"5":{"ha":403,"x_min":-8,"x_max":403,"o":"m -1 596 q -2 626 -3 611 q -8 651 -1 640 q -3 669 -4 660 q 0 690 -3 679 q 14 730 6 710 q 26 769 22 750 q 26 817 31 790 q 31 863 21 844 q 41 861 36 861 q 50 861 46 861 q 60 851 56 856 q 68 840 64 846 q 94 843 79 844 q 119 835 110 842 l 140 847 q 162 849 153 850 q 182 856 171 849 q 203 867 192 860 q 224 875 215 874 q 251 876 238 876 q 278 874 265 875 q 302 875 290 874 q 325 883 314 876 q 337 880 332 881 q 349 875 342 879 q 358 803 356 843 q 363 731 360 763 q 360 709 363 719 q 350 693 357 699 q 332 690 343 689 q 309 692 321 690 q 287 694 297 694 q 272 688 276 693 q 269 678 269 682 q 264 669 269 674 q 251 672 261 669 q 231 676 242 674 q 210 678 219 678 q 200 679 201 679 q 181 688 190 685 q 161 694 171 692 q 137 694 153 697 q 118 689 121 692 q 116 662 114 678 q 125 638 118 646 q 136 651 135 644 q 153 665 138 657 q 174 656 161 661 q 199 656 186 651 q 233 664 210 660 q 272 661 257 668 q 288 651 278 658 q 308 634 297 643 q 326 617 318 625 q 335 603 333 608 q 332 579 335 593 q 340 551 336 565 q 349 522 344 538 q 359 508 351 513 q 372 494 367 503 q 378 477 375 490 q 383 449 381 464 q 386 422 385 435 q 388 403 388 408 q 375 400 379 403 q 365 394 371 397 q 368 392 365 392 q 384 379 372 383 q 403 368 396 375 q 388 328 400 343 q 369 294 376 314 q 365 247 361 272 q 363 197 368 221 q 333 181 350 188 q 306 161 317 174 q 297 147 300 154 q 292 131 294 139 q 280 117 288 122 q 267 103 272 111 q 251 77 256 92 q 231 54 246 63 l 210 54 q 201 50 207 53 q 192 44 194 47 q 173 23 182 33 q 154 3 164 13 q 115 -27 136 -12 q 82 -61 94 -42 q 69 -89 75 -71 q 55 -125 63 -107 q 38 -157 47 -143 q 18 -174 29 -171 l 18 -161 q 49 -81 32 -112 q 90 -11 67 -49 q 106 21 97 7 q 123 42 113 31 q 142 61 133 54 q 153 68 149 64 q 164 76 157 72 q 169 87 167 82 q 174 97 171 92 q 201 133 189 115 q 219 165 211 150 q 233 199 228 181 q 238 232 239 217 q 243 264 236 247 l 281 322 q 278 345 282 332 q 269 372 275 358 q 256 396 263 385 q 246 414 250 407 q 228 456 235 433 q 208 494 222 479 q 185 506 200 504 q 153 503 169 507 q 120 493 136 500 q 94 478 104 486 q 83 460 88 469 q 72 443 78 451 q 50 444 58 442 q 46 474 44 458 q 42 504 47 490 q 24 543 33 525 q 11 588 15 561 q -1 596 6 589 z "},"6":{"ha":422,"x_min":-11,"x_max":403,"o":"m 6 288 q -6 290 0 286 q -8 329 -11 307 q 1 375 -6 351 q 15 421 7 399 q 26 458 22 443 q 37 495 32 478 q 47 532 42 513 q 48 546 47 539 q 50 561 49 553 q 58 576 53 568 q 67 592 63 583 q 91 654 82 624 q 115 717 100 685 q 116 726 115 722 q 118 736 117 731 q 126 759 121 747 q 135 778 132 771 q 138 794 138 786 q 139 811 138 801 q 147 851 138 831 q 165 883 156 871 q 185 878 181 883 q 200 871 190 874 q 226 868 211 868 q 247 868 240 868 q 256 872 253 868 q 265 879 260 876 q 296 881 283 885 q 319 871 308 876 q 327 813 324 843 q 329 754 331 783 q 320 699 328 725 q 294 651 313 672 q 281 646 288 643 q 263 643 274 649 q 253 631 256 640 q 243 619 250 622 q 236 617 240 618 q 229 615 232 617 q 232 611 232 615 q 244 594 243 606 q 239 571 246 582 q 226 558 233 564 q 213 546 218 553 q 194 513 201 529 q 175 481 188 496 q 162 472 168 476 q 149 461 156 467 q 142 440 143 453 q 138 418 142 426 q 122 405 129 411 q 107 392 115 399 q 108 385 108 390 l 113 385 q 134 407 119 400 q 161 422 149 414 q 173 433 168 428 q 185 446 178 439 q 195 447 190 447 q 206 450 200 447 q 215 459 211 453 q 225 467 218 465 q 238 465 228 468 q 258 456 247 461 q 278 447 269 451 q 289 440 288 442 q 292 427 293 433 q 297 418 290 421 q 325 408 314 410 q 350 393 336 407 q 382 344 368 375 q 401 286 396 314 q 402 274 403 283 q 400 255 401 265 q 397 235 399 244 q 394 222 394 226 q 394 199 394 211 q 393 175 394 186 q 370 119 385 147 q 344 65 356 90 q 338 49 342 61 q 328 22 333 36 q 319 -3 324 8 q 311 -15 314 -14 q 293 -23 301 -22 q 274 -26 285 -24 q 269 -30 271 -29 q 265 -33 268 -31 q 244 -31 254 -37 q 226 -16 235 -25 q 212 2 218 -7 q 200 15 206 11 q 177 22 189 22 q 154 26 165 22 q 126 44 139 32 q 100 65 113 56 q 92 76 94 69 q 86 89 90 82 q 66 122 76 104 q 47 156 56 139 q 38 184 40 167 q 31 214 36 201 q 18 233 28 221 q 11 260 13 244 q 6 288 10 276 m 171 228 q 174 198 169 214 q 179 171 179 182 q 173 158 176 164 q 167 146 169 153 q 198 110 178 128 q 242 89 218 92 q 247 75 244 82 q 257 65 250 68 l 257 67 q 266 94 261 75 q 267 128 271 114 q 259 140 265 135 q 256 158 253 146 q 266 178 258 171 q 278 196 274 186 q 276 208 276 203 q 275 221 276 214 q 267 232 272 224 q 268 264 261 250 q 271 297 275 278 l 257 297 q 250 295 254 296 q 243 292 246 294 q 241 272 240 282 q 239 247 242 261 q 233 225 238 236 q 222 204 229 214 q 197 210 207 201 q 188 225 194 221 q 172 232 182 229 q 171 228 172 229 z "},"7":{"ha":367,"x_min":7,"x_max":371,"o":"m 10 760 q 10 798 7 775 q 13 833 13 821 q 11 859 14 846 q 15 881 8 872 q 33 886 22 883 q 56 886 44 889 q 67 884 63 886 q 79 881 72 882 q 90 883 85 882 q 100 886 94 885 q 125 882 114 883 q 150 878 136 881 q 173 878 160 875 q 192 881 186 881 q 220 890 207 878 q 244 906 233 903 q 260 908 254 910 q 272 906 265 906 q 291 908 285 907 q 303 910 297 910 q 315 910 308 911 q 332 903 321 908 q 341 909 336 906 q 350 915 346 913 q 359 913 354 914 q 369 910 364 911 q 368 887 371 897 q 362 866 365 876 q 356 846 358 856 q 357 824 354 836 q 360 811 360 817 q 364 799 361 806 q 361 790 363 794 q 358 782 360 786 q 360 749 360 765 q 363 717 361 732 q 348 685 358 701 q 332 651 338 668 q 331 636 331 644 q 331 621 331 628 q 318 608 322 614 q 310 579 313 594 q 301 553 308 564 q 301 525 303 546 q 297 480 300 504 q 289 434 293 456 q 282 407 285 413 q 274 400 278 404 q 267 393 271 396 q 256 373 260 382 q 246 353 251 364 q 228 335 238 343 q 213 313 218 326 q 210 298 208 306 q 210 282 213 290 q 203 233 203 258 q 200 185 203 208 q 191 163 197 174 q 181 143 185 151 q 176 120 176 133 q 174 93 176 107 q 167 81 171 86 q 163 71 164 76 q 160 56 161 67 q 158 35 158 46 q 159 16 158 25 q 163 3 160 7 q 160 -74 158 -33 q 156 -149 163 -115 q 149 -153 153 -149 l 146 -150 q 137 -124 135 -143 q 138 -92 139 -106 q 131 -22 131 -60 q 132 49 132 17 q 134 61 133 56 q 138 74 135 67 q 133 104 138 86 q 132 138 129 122 q 138 165 135 150 q 140 193 140 179 q 133 254 138 225 q 138 317 128 283 l 138 332 q 167 389 150 360 q 199 450 185 418 q 201 476 200 457 q 200 504 201 496 q 198 513 199 508 q 194 522 197 518 q 207 551 199 539 q 219 576 215 564 q 216 590 217 583 q 214 604 215 597 l 214 649 q 202 690 210 674 q 206 729 194 706 q 194 735 197 732 q 178 724 189 732 q 160 721 167 715 q 153 715 156 718 q 146 708 151 711 q 126 710 139 706 q 106 711 114 714 q 94 698 97 706 q 82 686 90 690 q 56 688 75 683 q 31 694 38 692 q 18 726 24 711 q 10 760 13 742 z "},"8":{"ha":343,"x_min":-6,"x_max":335,"o":"m 47 539 q 12 561 22 543 q -2 603 1 579 q -3 654 -6 626 q 3 706 0 682 q 19 755 4 726 q 56 811 35 783 q 98 863 76 839 q 135 899 119 888 q 156 894 146 896 q 178 886 167 893 q 205 865 189 879 q 236 835 221 851 q 264 800 251 818 q 281 769 276 782 q 281 728 288 750 q 268 690 275 706 q 267 677 267 683 q 265 664 267 671 q 238 605 254 629 q 197 557 221 581 l 197 554 q 228 539 215 546 q 252 525 242 532 q 272 508 263 518 q 294 485 282 499 q 310 472 301 478 q 322 458 318 465 q 324 442 322 450 q 328 428 325 435 q 334 373 333 397 q 331 317 335 349 q 331 297 329 308 q 329 274 333 285 q 316 253 324 263 q 304 232 308 243 q 301 213 299 221 q 300 193 303 206 q 290 158 297 176 q 275 125 282 140 q 263 84 269 110 q 248 33 256 58 q 231 -16 240 7 q 211 -47 222 -39 q 205 -44 208 -46 q 197 -42 201 -43 q 195 -13 200 -26 q 188 15 190 0 l 188 38 q 170 57 185 43 q 150 76 156 71 q 147 83 147 79 q 143 90 146 88 q 131 93 138 93 q 106 117 119 104 q 81 142 92 131 q 78 150 79 146 q 75 158 76 154 q 64 166 69 164 q 53 175 58 168 q 41 203 47 190 q 28 232 35 217 q 17 240 22 236 q 8 250 13 244 q 7 263 6 257 q 10 272 8 269 q 6 334 0 300 q 18 393 13 368 q 18 409 19 401 q 15 423 17 417 q 13 435 14 429 q 15 450 13 442 q 35 492 25 472 q 47 539 44 513 m 211 401 q 190 385 203 392 q 163 378 176 379 q 137 381 150 376 q 115 397 124 385 l 110 397 q 95 384 101 393 q 85 364 89 375 q 83 342 82 353 q 90 322 83 331 q 88 296 82 310 q 90 267 93 282 q 85 250 89 257 q 81 232 81 243 q 84 224 81 231 q 92 211 88 218 q 99 199 96 204 q 103 192 103 193 q 116 185 110 189 q 129 178 122 182 q 148 153 142 164 q 171 129 154 142 l 179 129 q 188 143 183 138 q 197 156 193 149 q 206 186 203 167 q 212 227 210 206 q 215 269 214 249 q 215 301 215 289 q 204 322 215 313 q 190 340 193 331 q 197 369 185 356 q 215 392 208 383 q 214 397 214 396 q 211 401 214 399 m 108 717 q 95 692 103 708 q 81 658 88 676 q 72 623 75 640 q 76 594 69 606 q 93 578 90 588 q 132 599 117 589 q 160 638 147 610 q 166 650 163 642 q 168 665 169 658 q 171 685 167 674 q 168 701 175 697 l 139 701 q 124 710 132 704 q 108 717 117 715 z "},"9":{"ha":381,"x_min":-3,"x_max":381,"o":"m 22 539 q 13 551 18 546 q 4 561 8 556 q 3 569 4 563 q 0 585 1 576 q -2 600 -1 593 q -3 608 -3 607 q 1 615 0 611 q 4 622 1 618 q 7 642 6 633 q 10 663 8 651 q 19 678 15 671 q 26 692 24 685 q 49 757 38 725 q 76 819 61 789 q 82 835 79 828 q 88 850 85 843 q 115 880 99 865 q 146 910 131 894 q 170 908 157 907 q 196 901 183 908 q 208 890 203 896 q 219 879 213 885 q 241 874 231 874 q 261 868 251 875 q 277 851 271 861 q 290 833 283 840 q 302 827 297 831 q 314 821 307 824 q 317 809 317 814 q 319 799 318 804 q 330 785 325 792 q 339 771 335 778 q 344 756 342 764 q 349 742 346 749 q 365 714 356 729 q 381 683 375 699 q 376 671 378 676 q 372 658 374 665 q 366 601 365 635 q 363 539 367 567 q 364 503 361 524 q 363 463 367 482 q 359 454 363 457 q 354 449 356 451 q 353 427 354 438 q 353 406 353 417 q 347 391 350 399 q 340 376 343 383 q 339 356 339 365 q 339 335 339 346 q 332 313 336 325 q 325 290 328 301 q 324 276 324 283 q 324 261 324 269 q 315 244 321 251 q 306 229 308 238 q 301 215 303 222 q 296 200 299 207 l 279 179 q 275 160 275 168 q 272 142 275 151 q 268 127 271 139 q 261 101 265 115 q 251 65 256 86 q 245 56 249 60 q 238 44 242 51 q 231 23 235 33 q 224 1 226 13 q 212 -12 218 -6 q 201 -28 206 -19 q 190 -59 194 -43 q 178 -86 186 -75 q 164 -99 171 -93 q 150 -111 157 -106 q 132 -147 139 -125 q 107 -174 125 -168 q 113 -151 104 -162 q 125 -132 122 -139 q 153 -81 138 -106 q 179 -29 168 -57 q 183 2 186 -12 q 188 40 181 17 q 201 92 194 64 q 214 143 207 119 q 211 175 217 156 q 210 210 206 194 q 222 235 213 222 q 228 261 231 247 q 219 281 225 272 q 210 301 213 290 q 225 328 218 314 q 234 338 231 333 q 243 346 238 342 q 246 365 247 353 q 240 388 244 376 q 231 412 236 400 q 225 431 226 424 q 211 424 221 429 q 191 413 201 418 q 170 404 181 408 q 154 401 160 400 q 110 419 129 404 q 75 456 90 435 q 47 499 60 476 q 22 539 35 521 m 115 651 q 106 624 111 638 q 97 596 101 611 q 99 583 99 589 q 101 569 100 576 q 99 560 100 564 q 99 551 99 556 q 110 530 103 540 q 121 508 118 519 q 125 495 124 501 q 129 482 126 489 q 136 478 133 479 q 142 474 139 476 l 146 461 q 154 463 149 460 q 166 469 160 465 q 177 478 172 474 q 183 485 182 482 q 203 512 194 500 q 220 537 213 524 q 232 567 228 550 q 236 607 236 583 q 228 617 231 615 q 209 618 218 617 q 196 626 200 619 q 194 639 193 632 q 200 653 196 646 q 208 667 204 660 q 215 679 213 674 q 189 681 199 676 q 172 694 179 686 q 158 710 165 701 q 140 724 150 719 q 128 707 135 714 q 118 690 121 700 q 117 671 115 681 q 115 651 118 661 z "}," ":{"ha":322,"x_min":0,"x_max":0,"o":""},"E":{"ha":638,"x_min":-75,"x_max":625,"o":"m -47 897 q -54 906 -50 903 q -62 913 -58 910 q -70 921 -67 917 q -75 932 -74 925 l -71 936 q -67 932 -68 933 q -61 933 -65 931 l -57 938 q -13 916 -33 933 q 22 883 7 899 q 30 875 26 879 q 36 868 33 871 q 45 867 40 868 q 56 867 50 867 q 159 838 106 844 q 268 821 213 831 q 288 823 275 819 q 316 831 301 826 q 344 840 331 835 q 364 846 357 844 q 389 851 372 849 q 419 850 406 853 q 432 846 425 849 q 447 846 439 843 q 469 847 457 847 q 492 850 481 846 q 503 858 499 853 q 515 867 508 864 q 537 875 522 868 q 567 887 551 882 q 597 894 582 892 q 618 888 611 896 q 624 871 622 885 q 624 841 625 857 q 622 809 624 825 q 618 786 619 793 q 617 764 617 775 q 615 740 618 753 q 599 698 611 718 q 579 657 586 678 q 568 601 572 628 q 557 547 564 575 q 554 527 554 540 q 554 501 554 514 q 553 476 554 488 q 549 461 553 465 q 540 460 546 460 q 533 483 536 471 q 526 506 529 494 q 526 520 526 513 q 525 536 525 528 q 517 562 522 546 q 505 593 513 578 q 489 620 497 608 q 471 635 481 632 q 458 631 464 632 q 444 628 451 631 q 418 631 431 628 q 389 629 406 633 q 356 621 371 626 q 324 617 342 615 q 303 621 314 617 q 281 631 292 625 q 257 640 269 636 q 232 642 244 643 q 229 639 232 639 q 244 610 236 622 q 257 585 253 597 l 249 564 q 233 558 240 564 q 219 543 225 551 q 213 534 215 539 q 207 526 210 529 q 206 497 200 514 q 214 462 211 479 q 210 431 217 444 q 172 414 203 418 q 174 411 174 411 q 176 410 175 411 q 199 404 188 407 q 222 399 210 401 q 243 400 228 400 q 285 394 263 394 q 332 394 307 394 q 344 393 339 393 q 356 390 349 393 q 406 408 374 397 q 474 426 439 418 q 540 434 508 433 q 590 422 572 435 l 590 408 q 579 403 586 401 q 565 401 572 404 q 549 388 558 393 q 486 360 522 371 q 456 344 472 356 q 428 325 439 333 q 385 321 404 322 q 352 317 368 318 q 333 317 336 317 q 322 322 328 318 q 310 324 317 325 q 274 313 294 319 q 242 303 253 306 q 224 300 233 300 q 203 300 214 300 q 183 299 193 300 q 167 293 174 299 q 163 297 164 296 q 156 297 161 297 q 152 296 153 296 q 144 294 151 296 q 145 272 144 283 q 149 253 146 260 q 172 232 167 250 q 175 192 178 214 q 178 173 174 183 q 181 153 182 163 q 174 140 178 146 q 168 126 171 133 q 172 101 165 117 q 182 74 178 85 q 192 63 185 65 q 206 57 199 61 q 233 39 221 46 q 264 25 244 32 q 278 24 271 22 q 293 21 286 25 q 310 -1 304 15 q 326 -25 317 -17 q 358 -27 343 -22 q 389 -40 374 -32 q 419 -53 404 -47 q 446 -57 433 -58 q 526 -33 490 -53 q 601 1 561 -12 q 606 -1 604 -1 q 610 -4 607 -1 q 613 -14 611 -8 q 583 -33 597 -22 q 554 -53 569 -43 q 543 -56 549 -54 q 531 -61 538 -58 q 463 -105 499 -86 q 388 -112 428 -124 q 366 -112 376 -110 q 347 -112 356 -115 q 328 -100 336 -106 q 311 -90 321 -94 q 288 -81 297 -85 q 271 -72 279 -76 q 255 -60 263 -67 q 238 -43 247 -54 q 206 -35 225 -46 q 167 -9 186 -25 q 133 23 149 7 q 111 47 118 39 q 106 63 106 54 q 99 78 106 71 q 72 98 88 89 q 49 122 56 107 l 49 147 q 44 167 46 156 q 39 188 42 179 q 24 215 31 200 q 10 244 17 231 q 9 263 7 253 q 13 281 11 274 q 14 303 15 290 q 17 329 13 315 q 29 367 21 349 q 40 401 38 385 q 39 444 40 424 q 36 486 38 465 q 39 509 38 499 q 40 531 40 519 q 42 555 42 539 q 43 588 43 571 q 42 622 43 606 q 38 646 40 638 q 37 671 35 653 q 36 701 39 689 q 38 728 38 714 q 40 758 39 743 q 31 774 38 769 q 21 786 25 779 q 10 813 14 801 q -1 840 6 825 q -19 860 -8 851 q -37 879 -29 869 q -42 888 -40 883 q -47 897 -44 893 z "},"F":{"ha":597,"x_min":-37,"x_max":657,"o":"m 43 806 q 42 832 42 818 q 38 856 43 846 q 19 877 32 864 q -7 904 6 890 q -28 932 -19 918 q -35 956 -37 946 q -32 957 -33 957 q -29 958 -31 957 q 6 949 -12 958 q 44 926 25 939 q 78 901 63 914 q 104 883 94 889 q 121 880 108 881 q 148 878 133 879 q 176 878 163 878 q 196 879 189 879 q 265 878 228 882 q 335 867 303 875 q 358 869 340 865 q 395 877 375 872 q 431 887 415 882 q 450 894 447 892 q 469 911 457 899 q 493 921 481 924 q 512 926 504 924 q 526 930 519 929 q 540 930 532 931 q 561 925 549 929 q 568 924 565 925 q 574 924 571 924 q 579 912 579 918 q 576 899 579 906 q 569 887 574 893 q 565 875 565 881 q 569 854 564 867 q 578 828 574 842 q 583 803 582 815 q 575 785 583 790 q 552 776 565 778 q 529 768 539 775 l 529 767 q 551 752 539 757 q 578 739 564 747 q 576 719 579 722 q 569 706 572 717 l 569 676 q 565 660 567 668 q 560 643 563 651 q 564 624 558 633 q 572 608 569 615 q 572 570 579 594 q 557 535 565 546 l 554 538 q 542 555 547 542 q 531 583 536 568 q 518 611 525 597 q 503 632 511 625 q 472 640 488 644 q 433 639 456 636 q 426 642 429 640 q 417 640 424 643 q 407 635 411 639 q 394 632 403 631 q 324 642 354 635 q 299 638 310 646 q 274 632 288 629 q 260 634 268 635 q 244 636 251 633 q 236 642 239 639 q 224 647 233 644 q 219 632 224 640 q 218 613 215 624 q 225 587 221 601 q 225 558 229 572 l 225 557 q 224 556 224 557 q 204 541 218 544 q 182 531 190 538 q 178 516 179 524 q 175 500 178 508 q 183 490 181 497 q 189 479 185 483 q 200 475 192 478 q 217 470 208 472 q 233 467 226 468 q 243 467 240 467 q 256 473 250 468 q 269 481 261 478 q 278 479 274 479 q 288 479 283 479 q 319 493 303 486 q 331 492 326 493 q 360 505 343 496 q 389 504 378 514 q 399 492 396 500 q 408 481 401 485 q 418 478 410 479 q 435 478 426 478 q 450 478 443 478 q 457 479 457 479 q 500 470 475 468 q 547 468 525 472 q 558 461 553 465 q 571 453 564 457 q 586 451 578 451 q 601 449 594 450 q 606 440 601 446 q 630 436 613 436 q 657 431 647 436 l 657 429 q 656 427 657 428 q 656 425 656 426 q 614 427 633 425 q 575 432 594 429 q 543 431 560 435 q 514 425 526 426 q 499 425 506 422 q 481 425 492 428 q 458 429 469 422 q 435 433 447 436 q 397 419 418 429 q 356 406 375 408 q 345 406 349 403 q 336 410 342 408 q 323 409 329 410 q 308 407 317 408 q 294 413 301 408 q 279 415 286 417 q 247 396 260 411 q 217 375 233 381 q 207 378 211 374 q 197 385 203 383 q 184 379 190 382 q 169 375 178 376 q 182 267 178 322 q 167 242 179 251 q 149 214 154 232 q 151 200 150 207 q 154 186 151 193 l 154 161 q 159 142 157 150 q 158 122 161 133 q 131 101 143 111 q 108 76 119 92 q 112 59 108 69 q 118 38 115 49 q 121 15 121 26 q 117 -4 121 4 q 97 -12 108 -6 q 90 -94 94 -53 q 78 -178 85 -136 q 77 -197 76 -186 q 78 -217 78 -207 q 75 -236 78 -228 q 64 -246 72 -244 q 51 -156 54 -200 q 40 -62 49 -111 q 42 -47 42 -56 q 43 -29 43 -37 q 45 -8 44 -22 q 43 10 46 6 q 51 40 47 21 q 53 74 54 58 q 47 116 50 97 q 43 158 44 135 q 49 183 43 169 q 57 213 54 197 q 58 240 60 225 q 60 267 57 254 q 58 286 61 275 q 50 308 54 297 q 42 328 46 318 q 40 346 39 339 q 50 362 43 356 q 58 375 57 368 q 51 408 56 392 q 43 440 47 424 q 45 466 40 456 q 53 488 50 476 q 53 497 53 489 q 52 515 53 506 q 50 534 51 525 q 47 546 49 543 q 35 560 43 553 q 24 578 26 568 q 26 595 22 581 q 35 627 29 610 q 45 661 40 644 q 51 686 50 678 q 50 732 54 708 q 43 767 46 756 q 42 789 40 778 q 43 806 43 800 z "},"G":{"ha":546,"x_min":-10,"x_max":546,"o":"m 358 -406 q 360 -376 357 -394 q 361 -347 364 -358 q 353 -324 358 -336 q 344 -301 347 -312 q 342 -282 343 -292 q 339 -261 342 -272 q 332 -246 338 -253 q 333 -222 329 -233 q 332 -199 336 -210 q 322 -188 329 -192 q 318 -176 315 -185 q 318 -169 317 -172 q 321 -161 319 -165 q 340 -154 328 -158 q 358 -144 351 -150 q 367 -125 363 -135 q 376 -106 371 -115 q 386 -96 381 -100 q 396 -85 392 -92 q 400 -68 397 -76 q 405 -51 403 -61 q 410 -31 407 -42 q 425 24 415 -7 q 419 48 425 35 q 411 72 414 61 q 406 68 408 71 q 389 39 403 50 q 364 17 375 28 q 349 -6 357 6 q 333 -28 340 -17 q 312 -31 326 -32 q 281 -24 297 -29 q 250 -12 265 -19 q 228 -1 235 -6 q 210 19 215 7 q 194 43 204 31 q 177 56 188 51 q 160 67 167 60 q 152 83 156 75 q 144 99 149 92 q 126 126 135 113 q 108 153 118 139 q 93 192 97 172 q 78 232 89 213 q 44 288 60 260 q 14 349 29 315 q 3 366 10 357 q -7 382 -4 375 q -8 404 -10 388 q -1 441 -6 421 q 6 480 3 461 q 13 507 10 499 q 13 523 13 515 q 14 538 14 531 q 26 581 19 560 q 40 622 33 603 q 44 633 43 628 q 47 646 44 639 q 65 661 58 654 l 99 711 q 109 719 104 715 q 119 726 114 724 q 142 749 131 738 q 164 771 153 760 q 172 783 168 778 q 182 796 176 789 q 195 806 189 801 q 208 815 201 810 q 215 828 213 822 q 225 840 218 835 q 238 850 232 846 q 250 858 243 854 q 256 873 256 869 q 267 883 256 876 q 278 881 269 882 q 289 879 286 881 q 303 863 299 872 q 319 847 308 853 q 352 839 336 843 q 385 831 368 835 q 398 820 392 825 q 411 811 404 815 q 428 801 419 804 q 447 793 438 799 q 467 760 465 781 q 479 721 468 740 q 490 706 485 714 q 501 690 496 697 q 510 665 508 678 q 519 642 513 653 q 534 624 526 632 q 546 606 542 617 q 528 556 532 582 q 519 499 524 529 l 524 478 q 494 444 514 453 q 480 449 485 444 q 469 458 475 453 q 455 457 465 457 q 434 456 444 457 q 415 455 424 456 q 404 453 406 454 q 395 441 397 449 q 386 431 393 433 l 367 431 q 351 424 361 429 q 329 415 340 419 q 308 410 318 411 q 292 413 297 408 q 290 427 285 419 q 292 442 294 435 q 288 447 289 444 q 285 453 286 450 q 285 480 281 468 q 289 507 290 492 q 279 553 286 526 q 276 599 272 579 q 287 615 279 610 q 299 629 294 619 q 300 646 303 636 q 292 665 297 656 q 281 683 288 675 q 271 696 275 692 l 264 696 q 255 673 260 689 q 250 650 250 657 q 255 640 251 644 q 260 629 258 636 q 256 624 257 626 q 253 619 256 622 q 234 615 244 615 q 213 614 224 614 q 194 613 203 614 q 178 606 185 611 q 178 604 178 604 q 179 603 179 604 q 198 575 185 586 q 217 547 211 564 q 213 527 219 539 q 196 505 206 515 q 176 485 186 494 q 163 472 167 476 q 164 424 169 449 q 151 376 158 400 q 153 351 149 365 q 156 328 157 338 q 161 303 156 318 q 163 278 167 288 q 183 248 169 261 q 206 219 196 235 q 208 200 207 210 q 210 181 208 190 q 219 167 215 174 q 229 153 224 160 q 244 126 238 140 q 258 99 250 113 q 275 74 265 85 q 300 58 285 64 q 318 58 311 54 q 329 67 325 61 q 336 81 333 74 q 342 94 339 89 q 376 148 357 119 q 397 214 396 176 l 396 214 q 381 216 392 215 q 358 216 369 217 q 335 214 346 215 q 321 211 325 213 q 319 201 319 206 q 318 194 319 197 q 303 178 306 188 q 301 160 300 169 q 302 142 301 151 q 297 125 303 132 q 295 124 296 124 q 293 121 294 124 q 290 124 292 122 q 277 142 285 128 q 263 174 269 157 q 253 210 257 192 q 253 238 250 228 q 268 264 261 250 q 274 288 272 275 q 276 310 275 301 q 276 327 278 317 q 273 347 275 338 q 269 365 271 357 q 269 375 267 372 q 286 383 278 383 q 302 381 294 383 q 317 374 310 378 q 333 372 325 371 q 353 371 343 371 q 372 371 363 371 q 404 376 385 374 q 444 381 424 379 q 483 383 464 383 q 515 379 503 382 q 519 369 518 374 q 522 360 519 365 q 510 348 517 353 q 500 336 504 343 q 488 284 490 319 q 489 210 486 249 q 499 138 492 172 q 515 89 506 103 q 502 66 511 75 q 490 44 493 57 q 487 -4 483 22 q 483 -54 490 -31 l 483 -83 q 467 -103 478 -96 q 450 -121 457 -110 q 446 -133 447 -128 q 443 -146 444 -139 q 428 -165 436 -156 q 414 -185 421 -175 q 412 -196 413 -190 q 410 -207 411 -201 q 399 -235 404 -221 q 389 -264 393 -249 l 389 -287 q 382 -340 383 -314 q 376 -394 381 -367 q 378 -423 374 -410 q 376 -449 383 -436 l 371 -449 q 365 -429 368 -442 q 358 -406 361 -417 z "},"H":{"ha":506,"x_min":-60,"x_max":528,"o":"m 43 306 q 59 313 49 310 q 68 324 69 317 q 75 357 72 339 q 74 392 78 375 q 66 406 71 399 q 64 421 61 413 q 74 437 67 432 q 86 450 82 442 q 78 466 82 457 q 68 482 74 475 q 61 490 65 486 q 53 499 57 494 q 49 524 49 510 q 47 550 50 538 q 35 568 44 561 q 22 586 26 575 q 21 608 19 594 q 25 631 22 621 l 21 656 q 24 682 24 669 q 26 708 25 694 q 25 735 28 721 q 20 762 22 749 q 20 786 18 775 q 33 804 22 797 q 47 808 38 807 q 67 810 57 810 q 86 809 78 810 q 94 808 94 808 q 107 794 103 800 q 128 792 117 790 q 152 797 140 794 q 175 802 164 800 q 194 800 186 804 q 203 794 197 799 q 210 785 208 789 q 214 746 213 763 q 216 719 215 731 q 217 706 217 707 q 210 692 214 699 q 210 676 207 685 q 214 667 213 672 q 218 658 215 663 q 215 644 215 650 q 219 633 218 639 q 224 622 221 628 q 217 594 226 606 q 200 576 207 583 q 207 560 203 567 q 214 546 211 553 l 206 492 q 200 484 203 488 q 194 476 197 481 q 194 455 192 468 q 194 431 196 442 q 191 412 194 424 q 184 388 188 400 q 181 364 181 375 q 186 347 181 353 q 205 349 193 350 q 228 351 217 349 q 256 363 240 357 q 288 376 272 369 q 315 393 303 383 q 333 415 328 403 q 334 453 340 429 q 325 490 328 478 q 326 502 324 496 q 326 518 329 508 q 317 587 319 550 q 311 654 314 624 q 314 668 313 661 q 318 682 315 675 q 318 741 325 711 q 293 793 311 771 q 297 808 296 804 q 315 813 307 811 q 329 824 322 815 q 325 832 326 829 q 326 842 324 835 q 352 851 339 846 q 376 863 365 856 q 420 853 397 858 q 456 832 443 847 q 469 810 464 821 q 482 789 474 799 q 506 769 492 778 q 525 750 519 761 q 519 726 528 739 q 506 706 511 714 q 499 676 499 690 q 493 646 499 663 q 488 629 490 638 q 482 613 485 621 q 484 566 479 594 q 486 515 489 538 q 483 495 485 508 q 478 472 481 482 q 469 458 474 465 q 461 444 465 451 q 463 421 463 433 q 464 396 463 408 q 451 362 460 379 q 439 329 443 344 q 440 310 436 322 q 444 293 443 297 q 442 278 443 286 q 442 264 442 271 q 445 247 442 258 q 446 228 449 235 q 450 216 447 222 q 449 203 453 210 q 442 194 447 200 q 437 178 439 186 q 432 161 435 169 q 424 152 428 157 q 415 142 419 147 q 414 133 414 138 q 413 122 414 128 q 404 111 410 115 q 397 101 399 107 q 403 74 393 85 q 417 50 414 63 q 416 32 418 42 q 410 12 414 22 q 401 -8 406 1 q 396 -25 397 -18 q 383 -133 385 -78 q 389 -240 382 -187 q 390 -258 390 -247 q 387 -278 389 -268 q 381 -296 385 -289 q 374 -303 378 -303 q 361 -212 369 -257 q 362 -191 360 -201 q 361 -169 364 -181 q 356 -127 358 -147 q 351 -89 354 -107 q 353 -81 351 -85 q 357 -74 356 -76 q 355 -58 356 -67 q 353 -43 354 -50 q 353 -15 350 -31 q 354 19 357 0 q 344 54 351 33 q 335 89 338 75 l 335 108 q 335 176 332 143 q 329 243 339 210 q 306 256 311 246 q 299 281 301 265 q 283 282 289 279 q 272 288 278 285 q 262 295 267 292 q 250 300 257 299 q 213 288 235 292 q 171 278 190 285 l 163 249 q 165 219 161 238 q 164 185 169 201 q 153 163 161 174 q 142 142 146 153 q 144 124 138 131 q 147 108 150 117 q 137 79 144 92 q 124 54 129 67 q 119 16 117 39 q 125 -18 122 -7 q 124 -47 124 -33 q 122 -76 124 -61 q 127 -99 125 -86 q 128 -119 129 -112 q 129 -145 128 -126 q 132 -183 131 -164 q 131 -219 133 -203 q 124 -239 129 -236 q 113 -181 115 -211 q 107 -118 111 -150 q 95 -39 100 -78 q 82 42 90 0 q 83 56 79 51 q 89 67 88 61 q 89 79 89 74 q 88 90 89 85 q 94 110 90 100 q 99 131 97 119 q 92 155 101 144 q 81 176 83 165 q 81 219 76 199 q 82 260 86 240 l 81 260 q 40 264 60 253 q 22 257 35 261 q -6 249 8 253 q -35 243 -21 246 q -54 243 -49 240 q -57 245 -56 244 q -60 249 -58 246 q -58 251 -58 250 q -57 254 -58 253 q -10 270 -33 261 q 33 293 14 279 q 43 306 39 301 z "},"I":{"ha":229,"x_min":0,"x_max":218,"o":"m 217 667 q 201 643 213 653 q 183 618 189 633 q 181 571 178 597 q 182 521 185 544 q 185 506 181 514 q 183 489 189 499 q 168 472 178 478 q 151 456 158 465 q 156 437 151 439 q 168 425 161 435 q 167 405 172 418 q 154 377 163 392 q 138 350 146 363 q 131 333 131 338 q 135 324 133 328 q 138 295 138 313 q 135 265 138 278 q 132 243 135 263 q 127 201 129 224 q 124 160 125 179 q 124 139 122 142 q 117 130 121 133 q 110 124 113 126 q 109 114 110 118 q 108 104 108 110 q 91 69 101 86 q 76 28 81 51 q 78 15 75 21 q 82 4 81 10 q 83 -28 83 -11 q 85 -60 83 -44 q 80 -74 83 -67 q 78 -90 76 -82 q 86 -133 81 -110 q 88 -181 92 -157 q 84 -206 85 -196 q 81 -233 83 -217 q 81 -248 81 -240 q 83 -262 82 -256 q 79 -272 82 -268 q 76 -282 76 -275 q 84 -307 83 -290 q 72 -329 85 -324 q 69 -331 72 -331 q 63 -311 67 -324 q 64 -292 60 -299 q 56 -260 57 -276 q 57 -226 56 -243 q 58 -194 58 -210 q 54 -162 58 -178 q 44 -117 47 -143 q 38 -68 40 -90 q 39 -56 39 -61 q 40 -43 39 -50 q 37 -24 38 -33 q 35 -4 36 -14 q 39 13 38 4 q 43 31 40 21 q 41 67 46 46 q 36 103 36 88 q 41 149 38 121 q 47 193 44 176 q 47 224 49 210 q 40 253 44 239 q 33 283 36 268 q 32 314 31 297 q 37 333 33 325 q 43 349 40 340 q 38 410 50 385 q 18 461 25 436 q 15 514 11 486 q 22 561 18 542 q 22 628 32 596 q 8 693 11 661 q 9 733 8 713 q 10 774 10 754 q 9 788 11 779 q 4 804 7 796 q 1 819 1 813 q 3 829 0 825 q 29 844 14 843 q 58 853 44 846 q 85 846 72 850 q 113 838 99 842 l 129 825 q 150 822 139 821 q 172 826 161 824 q 194 828 183 828 q 217 821 206 828 q 215 800 217 810 q 211 779 213 790 l 211 749 q 206 738 210 742 q 203 725 203 735 q 210 715 207 722 q 216 698 214 707 q 218 680 218 689 q 217 667 218 671 z "},"J":{"ha":286,"x_min":-208,"x_max":268,"o":"m -179 -182 q -195 -179 -186 -179 q -208 -172 -204 -179 l -208 -171 q -208 -169 -208 -169 q -207 -165 -207 -168 q -129 -155 -171 -158 q -57 -133 -87 -151 q -46 -124 -53 -131 q -31 -111 -39 -118 q -17 -98 -24 -104 q -8 -89 -11 -92 q 2 -64 -1 -76 q 14 -40 6 -51 q 40 -21 25 -31 q 46 -8 43 -14 q 51 6 49 -1 q 63 17 58 11 q 75 28 68 22 q 78 34 75 29 q 84 45 81 39 q 90 57 88 51 q 90 64 92 63 q 103 82 97 71 q 114 103 110 93 q 115 131 119 117 q 114 158 111 146 q 121 176 117 169 q 128 196 125 183 q 127 217 129 204 q 122 244 125 231 q 115 271 118 258 q 110 290 111 283 q 108 315 108 299 q 108 348 108 331 q 105 381 107 365 q 99 401 103 396 q 109 417 103 411 q 115 435 115 424 q 103 451 111 446 q 89 468 94 457 q 88 492 89 479 q 88 517 88 504 q 83 528 85 522 q 78 540 81 533 q 75 575 74 557 q 74 608 76 593 q 56 674 67 643 q 51 742 44 706 q 51 782 56 758 q 54 819 47 806 q 97 813 76 817 q 136 825 118 808 q 153 820 144 822 q 171 815 163 818 q 180 801 175 804 q 192 790 185 797 q 213 799 204 792 q 229 813 221 807 q 247 818 238 818 q 268 806 256 818 q 264 783 268 792 q 257 763 260 775 q 256 739 256 751 q 254 715 256 726 q 260 688 253 701 q 265 663 268 675 q 247 641 257 656 q 233 613 238 626 q 235 588 229 597 q 236 568 240 579 q 227 549 233 557 q 218 532 221 542 q 216 517 217 528 q 215 496 215 507 q 216 474 215 485 q 218 460 217 464 q 219 461 218 461 q 242 478 224 478 q 247 474 244 475 q 251 471 249 474 q 254 463 254 467 q 256 451 254 458 q 260 439 258 444 q 264 428 261 433 q 262 392 267 407 q 254 357 257 376 l 254 322 q 261 315 257 318 q 263 301 265 311 q 248 287 260 293 q 238 274 236 281 q 233 245 232 260 q 237 217 235 231 q 240 190 239 203 q 238 165 242 176 q 226 150 233 156 q 213 133 218 144 q 210 120 211 126 q 210 107 210 114 q 204 97 207 101 q 199 86 201 92 l 199 61 q 188 45 196 51 q 174 32 181 39 q 167 15 167 25 q 161 -6 167 4 q 152 -18 157 -12 q 143 -31 147 -24 q 133 -68 135 -46 q 124 -101 131 -90 q 110 -108 117 -104 q 93 -112 104 -111 q 78 -105 86 -108 q 61 -106 71 -101 l 53 -126 q 40 -135 47 -133 q 29 -140 33 -136 q 17 -154 22 -146 q 3 -167 11 -162 q -19 -169 -7 -172 q -43 -164 -32 -167 q -67 -181 -51 -175 q -103 -190 -83 -187 q -144 -190 -124 -192 q -179 -182 -164 -187 z "},"K":{"ha":472,"x_min":-15,"x_max":479,"o":"m 1 701 q -10 742 -6 725 q 4 775 -15 758 q 42 774 19 774 q 79 781 64 775 q 92 792 90 785 q 100 806 93 799 q 113 812 104 810 q 130 813 121 814 q 147 809 139 813 q 157 800 154 806 q 158 787 160 793 q 157 775 156 781 q 172 764 164 772 q 181 744 181 756 q 176 726 181 738 q 168 704 171 715 q 169 694 167 697 q 171 683 171 690 q 175 624 171 654 q 192 571 179 594 q 175 546 183 557 q 157 522 167 535 l 157 519 q 178 498 167 514 q 183 467 190 482 q 172 458 179 458 q 156 454 164 458 q 152 444 153 449 q 151 432 151 440 q 162 422 157 428 q 167 406 167 415 q 217 454 201 428 q 257 514 233 481 q 275 534 265 526 q 289 557 285 542 q 285 571 286 564 q 282 585 285 578 q 277 624 276 608 q 275 660 278 640 l 279 701 q 277 711 279 704 q 275 722 275 718 q 277 763 276 743 q 279 804 278 783 q 268 833 276 819 q 258 863 260 846 q 262 867 260 865 q 267 872 264 869 q 290 869 275 872 q 319 863 304 867 q 346 854 333 858 q 364 847 358 850 q 377 833 372 840 q 392 822 382 825 q 416 817 401 818 q 444 815 431 817 q 469 807 458 813 q 479 789 479 801 q 470 778 476 781 q 461 769 464 775 q 455 753 458 761 q 449 738 451 744 q 451 716 446 728 q 453 693 456 704 q 445 675 450 683 q 440 657 440 667 q 442 627 440 646 q 445 590 444 608 q 445 556 446 571 q 438 536 444 540 q 425 535 432 533 q 411 532 418 536 q 423 517 419 529 q 419 499 426 504 q 413 492 417 492 q 406 489 410 493 q 396 472 400 478 q 389 467 393 469 q 382 463 385 465 q 376 445 375 450 q 365 431 376 440 q 351 433 357 435 q 340 426 344 431 q 330 415 335 421 q 321 406 325 408 q 307 397 314 401 q 296 385 300 393 q 300 375 299 379 q 303 365 301 371 q 323 358 310 358 q 346 356 336 358 q 368 342 357 350 q 390 329 379 335 q 403 326 397 326 q 415 322 408 326 q 422 306 417 314 q 424 286 426 297 q 414 273 421 278 q 406 256 407 268 q 406 239 404 250 q 409 217 407 228 q 413 196 411 206 q 413 183 414 186 q 405 174 410 176 q 397 168 400 172 q 390 147 390 158 q 385 125 390 136 q 380 119 383 122 q 375 110 376 115 q 372 72 369 90 q 376 38 374 54 q 374 31 375 35 q 372 24 374 26 q 374 10 374 17 q 375 -4 374 3 q 368 -24 375 -15 q 357 -40 361 -33 l 357 -57 q 351 -67 354 -61 q 348 -92 346 -82 q 347 -118 350 -103 q 342 -172 343 -146 q 333 -225 340 -199 q 328 -277 328 -249 q 326 -331 329 -306 q 324 -357 324 -343 q 313 -378 324 -371 q 310 -353 311 -365 q 307 -328 308 -340 q 307 -297 307 -312 q 308 -265 307 -281 q 302 -239 306 -256 q 296 -207 299 -222 q 299 -170 292 -187 q 306 -132 307 -153 q 303 -90 304 -111 q 300 -47 301 -69 q 304 -20 303 -36 q 303 7 306 -4 q 296 30 300 18 q 289 53 292 42 q 293 65 289 60 q 300 76 297 71 q 298 108 306 90 q 289 139 290 126 q 292 173 286 158 q 290 200 299 188 q 276 203 285 200 q 262 213 268 207 q 252 224 256 218 q 254 238 249 231 q 245 242 251 239 q 231 249 239 246 q 217 256 224 253 q 207 258 210 258 q 191 258 199 258 q 176 260 183 257 q 167 267 172 263 q 158 268 163 271 q 157 243 161 256 q 145 217 153 231 q 131 192 138 204 q 121 167 124 179 q 124 141 118 151 q 128 115 131 131 q 115 97 115 108 q 118 72 114 86 q 126 44 122 58 q 126 17 131 29 q 117 -2 124 7 q 108 -22 111 -11 q 110 -31 110 -26 q 111 -40 110 -36 q 107 -75 108 -58 q 100 -112 106 -92 q 102 -126 101 -119 q 104 -139 103 -132 q 100 -189 99 -162 q 96 -235 101 -215 q 90 -237 96 -235 q 88 -235 90 -237 q 76 -168 81 -199 q 63 -100 71 -137 q 63 -92 61 -94 q 67 -87 65 -90 l 63 -58 q 63 -46 63 -51 q 64 -33 64 -40 q 59 -3 61 -19 q 60 29 57 13 q 63 50 63 43 q 57 77 60 64 q 51 104 54 90 q 44 115 49 111 q 38 131 40 119 q 42 165 35 144 q 51 197 49 185 q 53 215 54 208 q 56 231 53 221 q 53 248 54 239 q 49 265 51 257 q 49 288 46 278 q 56 307 53 297 q 54 318 58 314 q 49 326 50 322 q 44 343 44 335 q 38 361 43 351 q 27 369 32 365 q 18 378 22 374 q 18 385 17 379 q 21 399 19 392 q 24 413 22 406 q 25 425 25 421 q 24 441 26 432 q 25 457 22 450 q 18 475 22 467 q 15 493 14 483 q 16 501 15 494 q 17 515 17 508 q 16 528 17 522 q 15 536 15 535 q 11 543 14 540 q 8 551 8 546 q 9 578 10 563 q 7 606 8 593 q 10 623 10 614 q 13 642 11 632 q 8 663 11 650 q 6 685 4 676 l 1 701 z "},"L":{"ha":419,"x_min":-26,"x_max":408,"o":"m 8 57 q 14 65 11 61 q 19 74 17 69 q 32 136 29 101 q 29 200 35 171 q 32 228 26 215 q 35 253 38 240 q 28 265 32 260 q 19 275 24 269 q 24 299 17 286 q 33 322 31 313 q 28 347 38 338 q 21 368 18 356 q 28 385 22 375 q 36 406 35 396 q 38 437 39 419 q 33 463 36 454 q 33 484 32 469 q 35 504 35 499 q 33 519 33 511 q 31 535 32 526 q 31 582 26 556 q 39 626 36 608 q 37 654 42 642 q 29 678 32 667 q 26 702 26 686 q 25 726 26 718 q 28 749 24 739 q 28 771 32 760 q 13 794 22 785 q 10 822 4 804 q 17 824 14 824 q 25 826 21 825 q 40 821 33 824 q 54 829 49 826 l 71 829 q 86 835 72 829 q 101 842 100 840 q 119 833 114 839 q 131 819 125 828 l 135 819 q 149 839 139 833 q 171 832 160 836 q 192 826 182 828 q 213 830 203 825 q 231 824 222 835 q 236 803 233 818 q 236 782 239 788 q 228 771 233 775 q 219 760 222 767 q 213 739 217 749 q 206 719 208 729 q 206 714 206 717 q 207 708 207 711 q 205 685 207 699 q 201 663 203 671 q 202 647 199 653 q 203 632 206 640 q 185 619 193 625 q 167 606 178 613 q 167 585 167 600 q 171 565 168 569 q 180 554 175 558 q 183 540 185 550 q 174 529 179 533 q 165 514 168 525 q 165 492 164 506 q 167 465 167 479 q 167 438 168 451 q 161 418 167 425 q 157 415 158 417 q 153 413 156 414 q 147 398 146 401 q 135 386 149 394 q 132 367 135 376 q 128 351 129 358 q 129 318 124 339 q 131 285 135 297 q 119 220 122 257 q 110 163 115 183 q 102 139 107 151 q 93 114 97 126 q 89 90 89 101 q 99 71 89 79 q 114 75 108 71 q 124 84 119 79 q 133 94 128 89 q 144 104 138 100 q 155 101 154 103 q 161 94 156 99 q 169 92 164 92 q 179 92 175 93 q 190 86 186 90 q 197 78 193 82 q 244 73 224 79 q 288 78 265 67 q 297 90 294 82 q 306 104 300 97 q 312 107 308 106 q 318 110 315 108 q 333 127 326 117 q 344 146 339 138 q 352 167 350 153 q 365 183 354 182 q 366 170 365 179 q 367 152 367 161 q 366 135 367 143 q 365 122 365 126 q 360 112 363 118 q 361 100 358 106 q 369 81 364 92 q 378 57 374 69 q 378 50 379 54 q 379 42 378 46 q 386 31 381 38 q 397 16 392 24 q 406 1 403 8 q 406 -11 408 -7 q 394 -14 403 -15 q 372 -10 385 -12 q 348 -6 360 -8 q 328 -3 336 -3 q 280 6 306 -3 q 225 13 254 14 q 207 13 215 13 q 189 14 199 14 q 177 8 182 11 q 165 1 172 4 q 151 -1 163 0 q 127 -4 140 -3 q 102 -6 114 -6 q 88 -7 90 -7 q 48 -7 68 -6 q 13 -15 28 -8 q -2 -28 3 -19 q -19 -31 -7 -37 q -16 3 -26 -11 q 1 31 -6 17 q 6 43 6 36 q 8 57 6 50 z "},"M":{"ha":547,"x_min":-11,"x_max":549,"o":"m 544 758 q 547 740 546 751 q 546 721 549 728 q 535 697 539 706 q 547 674 532 689 q 533 644 540 658 q 519 615 526 631 q 519 604 517 610 q 518 592 521 599 q 510 582 515 586 q 504 571 506 578 q 503 564 504 569 q 503 552 503 558 q 503 541 503 546 q 504 535 504 536 q 517 517 508 524 q 524 492 526 511 q 522 478 522 485 q 519 464 521 471 q 512 451 517 457 q 506 433 507 444 l 510 408 q 510 396 513 401 q 507 386 508 390 q 505 333 506 360 q 503 281 504 307 q 491 255 500 268 q 479 231 482 242 q 478 218 476 224 q 479 206 481 213 q 474 149 478 174 q 461 97 469 124 q 457 81 458 89 q 453 63 456 72 q 454 52 454 57 q 456 42 454 47 q 447 10 450 26 q 440 -26 444 -7 q 439 -53 438 -42 q 429 -72 440 -65 q 422 -51 424 -68 q 419 -12 419 -33 q 420 30 419 10 q 421 58 421 50 q 417 79 419 68 q 417 103 415 90 q 423 119 418 111 q 425 142 428 128 q 413 172 421 158 q 399 201 404 186 q 402 219 396 213 q 411 233 408 226 q 417 266 417 247 q 421 300 418 285 q 423 326 422 306 q 421 354 424 347 q 413 361 418 358 q 406 368 408 364 q 401 382 403 375 q 396 396 399 389 q 397 414 393 406 q 401 429 400 422 q 400 442 401 433 q 396 462 399 451 q 390 480 393 472 q 386 489 388 488 l 386 488 q 354 444 364 475 q 353 436 353 440 q 351 428 353 432 q 343 417 347 422 q 335 406 339 411 q 330 389 331 396 q 322 375 329 382 q 302 363 318 369 q 281 360 286 356 q 268 372 272 363 q 258 389 264 382 q 227 423 244 407 q 186 449 210 439 q 195 408 188 429 q 208 368 203 386 q 204 343 211 356 q 200 319 197 331 q 204 304 200 314 q 213 284 208 294 q 219 264 217 274 q 218 246 221 254 q 194 203 211 224 q 167 160 176 182 q 166 146 164 154 q 170 129 168 138 q 174 113 172 121 q 175 99 176 104 q 165 74 172 88 q 156 50 158 61 q 148 13 149 31 q 142 -21 147 -4 q 142 -44 138 -32 q 149 -62 147 -56 q 149 -83 149 -74 q 150 -104 150 -93 q 156 -135 151 -117 q 165 -174 161 -154 q 167 -213 168 -194 q 158 -243 167 -232 q 156 -241 157 -242 q 153 -239 154 -240 q 150 -214 150 -228 q 147 -186 150 -200 q 129 -114 138 -153 q 128 -97 128 -106 q 128 -81 128 -89 q 119 -67 125 -75 l 119 -43 q 109 2 113 -19 q 100 50 106 24 q 101 83 97 65 q 101 117 104 101 q 101 135 101 124 q 97 153 100 146 q 90 172 94 161 q 82 193 85 182 q 84 221 79 207 q 92 250 89 235 q 78 287 81 269 q 75 321 76 304 q 65 353 71 339 l 65 426 q 58 505 60 465 q 49 575 56 544 q 39 601 46 588 q 26 626 32 614 q 15 652 19 639 q 10 678 10 665 q 13 726 11 706 q 4 768 15 746 q -1 774 3 771 q -7 781 -6 778 q -6 803 -11 792 q 8 818 -1 815 q 26 828 13 826 q 46 838 39 831 q 69 867 57 849 q 93 894 82 886 q 113 905 103 900 q 132 915 122 910 q 142 926 139 922 q 153 936 146 931 l 163 936 q 172 908 174 921 q 176 876 169 896 q 193 846 181 863 q 218 818 206 829 q 229 768 215 788 q 254 728 243 749 q 258 714 257 721 q 261 700 260 707 q 267 694 264 697 q 272 689 269 692 q 285 660 279 674 q 303 636 292 647 q 328 660 322 644 q 346 692 335 676 q 356 699 351 694 q 365 706 360 703 q 372 722 368 714 q 379 739 375 731 q 391 753 385 746 q 401 771 397 761 q 405 790 406 782 q 403 803 404 797 q 406 815 403 810 q 421 829 408 821 q 450 808 442 825 q 474 783 458 792 q 481 781 475 783 q 493 776 486 778 q 506 771 500 774 q 513 768 513 768 q 522 768 517 767 q 532 767 526 769 l 544 758 l 544 758 m 192 499 q 181 533 193 514 q 158 556 169 553 q 156 541 156 546 q 158 532 156 536 q 163 524 160 528 q 168 514 165 519 q 165 495 171 506 q 163 475 158 485 q 169 468 165 472 q 175 460 172 464 q 177 460 176 460 q 179 461 178 461 q 180 463 179 463 q 181 464 181 463 q 185 482 178 475 q 192 499 192 489 z "},"N":{"ha":533,"x_min":-3,"x_max":519,"o":"m 518 778 q 511 759 519 767 q 500 743 503 751 q 502 722 499 738 q 504 694 506 706 q 498 594 494 640 q 496 500 501 547 q 490 482 494 492 q 485 463 486 472 q 485 446 483 456 q 481 428 486 436 q 473 420 478 422 q 465 414 468 418 q 463 407 465 413 q 457 395 460 401 q 451 383 454 389 q 449 375 449 376 q 450 348 450 361 q 451 321 450 335 q 444 301 449 311 q 436 279 439 290 q 432 262 433 269 q 428 246 431 254 q 429 224 424 235 q 431 200 435 213 q 422 176 426 189 q 414 153 417 164 q 415 131 414 142 q 417 110 415 121 q 406 41 411 74 q 390 -24 401 8 q 388 -46 388 -32 q 386 -69 388 -60 q 387 -81 386 -76 q 388 -93 388 -86 q 385 -128 385 -110 q 385 -167 385 -147 q 384 -205 385 -186 q 379 -239 383 -224 q 378 -238 378 -239 q 376 -237 378 -237 q 369 -222 374 -229 q 363 -203 365 -214 q 360 -178 360 -192 q 360 -149 360 -164 q 359 -121 360 -135 q 356 -97 358 -107 q 357 -78 353 -90 q 358 -58 361 -67 q 354 -46 356 -51 q 350 -35 353 -40 q 351 -16 347 -24 q 351 3 354 -8 q 346 16 349 10 q 342 29 343 22 q 344 62 339 44 q 347 94 350 79 q 339 124 344 110 q 329 156 333 138 q 333 183 326 168 q 338 210 339 199 q 326 240 335 228 q 315 269 318 253 q 316 295 313 281 q 313 318 319 310 q 291 331 307 324 q 268 344 275 339 q 265 374 271 358 q 254 403 258 390 l 221 407 q 200 430 211 411 q 178 457 189 449 q 174 456 176 456 q 153 387 171 424 q 121 331 136 350 q 135 327 132 332 q 144 315 139 322 q 141 294 140 301 q 144 271 142 286 q 138 230 146 251 q 126 194 131 208 q 126 183 124 188 q 126 171 129 178 q 112 158 121 163 q 99 144 103 154 q 109 131 104 138 q 114 113 114 124 q 102 92 108 104 q 93 71 96 79 q 97 58 96 64 q 101 44 99 51 q 99 15 101 32 q 93 -17 97 -3 q 95 -30 94 -24 q 99 -43 96 -36 q 92 -58 96 -50 q 88 -72 89 -65 q 87 -97 86 -82 q 87 -126 88 -111 q 83 -154 86 -142 q 72 -171 81 -167 l 72 -169 q 61 -110 61 -143 q 58 -53 61 -78 q 53 -24 57 -37 q 51 7 50 -10 q 48 27 51 18 q 39 45 44 36 q 28 63 33 54 q 22 83 24 72 q 24 102 24 93 q 28 121 25 111 q 27 141 31 128 q 26 165 24 154 q 33 185 29 174 q 38 207 38 196 q 33 224 35 215 q 28 242 31 233 q 30 251 29 247 q 32 261 31 256 q 30 279 31 271 q 28 297 29 288 q 31 306 29 301 q 32 317 33 310 q 25 338 28 329 q 19 358 22 347 q 20 369 19 364 q 21 381 21 374 q 15 389 18 386 q 11 400 13 392 q 19 412 14 407 q 28 422 25 417 q 32 458 42 443 q 11 489 22 474 l 19 526 q 19 551 21 536 q 16 583 18 567 q 12 614 14 599 q 10 640 10 629 q 13 666 11 653 q 17 692 14 679 q 4 748 11 714 q 4 808 -3 782 q 26 823 15 815 q 47 836 36 831 q 80 837 61 835 q 110 842 99 839 q 137 856 125 846 q 164 867 149 865 q 176 856 175 861 q 185 844 178 851 q 200 835 192 838 q 213 825 208 832 q 213 806 217 815 q 211 781 208 796 q 225 728 214 758 q 241 702 233 715 q 257 676 249 689 q 287 608 274 643 q 324 547 300 574 l 325 547 q 332 572 328 556 q 333 600 336 589 q 328 615 331 607 q 328 635 325 624 q 331 660 329 650 q 331 685 333 669 q 323 738 326 713 q 324 790 319 763 q 323 806 326 799 q 317 819 319 814 q 315 833 314 824 q 317 852 315 842 q 322 871 319 863 q 325 881 324 879 q 338 886 333 883 q 360 881 351 886 q 377 867 369 875 q 391 849 385 858 q 406 835 397 840 q 435 817 417 826 q 469 806 454 808 q 485 806 478 804 q 500 804 493 807 q 510 793 506 801 q 518 778 515 785 z "},"O":{"ha":560,"x_min":3,"x_max":568,"o":"m 115 169 q 83 234 97 201 q 56 303 69 267 q 35 344 47 325 q 17 388 24 364 q 13 410 14 394 q 11 444 11 426 q 13 478 11 461 q 15 503 14 494 q 13 534 14 518 q 13 565 13 550 q 6 578 10 572 q 4 593 3 585 q 20 637 8 618 q 47 672 32 656 q 76 705 61 689 q 101 740 90 721 q 110 777 110 756 q 122 814 111 799 q 141 830 126 819 q 172 850 156 840 q 204 867 189 860 q 228 875 219 874 q 281 874 254 879 q 326 885 307 869 q 363 875 350 885 q 381 850 375 865 q 392 819 388 835 q 403 790 396 803 q 440 797 431 799 q 453 787 450 794 q 459 769 457 779 q 472 749 461 758 l 493 736 q 501 725 499 731 q 511 717 504 719 q 526 712 519 713 q 538 703 532 711 q 545 680 540 697 q 553 643 550 663 q 558 606 557 624 q 557 582 560 588 q 538 563 550 567 q 510 551 525 558 q 508 527 510 536 q 507 503 507 518 q 524 507 515 503 q 527 519 526 514 q 529 532 528 525 q 541 536 536 535 q 556 535 546 538 q 567 490 567 511 q 561 446 568 468 q 560 435 561 440 q 560 424 560 429 q 533 386 549 401 q 524 381 528 383 q 515 376 519 379 q 508 362 511 371 q 503 349 506 353 q 493 322 496 338 q 488 296 490 307 l 488 268 q 479 257 485 261 q 471 246 474 253 q 470 225 471 235 q 468 204 469 215 q 438 154 456 178 q 404 107 419 131 q 396 94 401 101 q 384 79 390 86 q 371 66 378 72 q 358 58 364 60 q 356 57 357 57 q 353 56 354 57 q 343 42 346 51 q 333 26 340 32 q 299 7 315 17 q 283 6 294 6 q 260 7 272 6 q 239 10 249 8 q 228 14 229 11 q 216 29 221 21 q 206 44 211 38 q 175 74 190 60 q 147 106 160 89 q 131 137 136 121 q 115 169 125 153 m 156 303 q 156 288 156 301 q 156 260 156 275 q 158 231 157 244 q 158 217 158 218 q 166 204 163 210 q 174 192 169 199 q 177 176 176 183 q 182 163 178 169 q 191 151 183 158 q 208 135 199 143 q 226 119 218 126 q 239 107 235 111 q 249 91 246 100 q 260 76 253 82 q 300 122 289 96 q 331 171 311 147 q 349 183 338 179 q 371 192 361 186 q 392 242 379 222 q 419 285 404 263 l 419 286 q 399 283 407 289 q 382 296 392 288 q 371 314 372 304 q 373 355 367 333 q 376 401 379 376 q 371 431 375 413 q 364 464 367 449 q 365 478 365 471 q 367 492 365 485 q 360 501 365 496 q 358 515 356 506 q 367 534 363 528 q 376 544 371 540 q 388 549 382 547 q 400 558 393 551 l 400 560 q 391 559 396 560 q 383 556 386 558 q 372 546 379 551 q 356 538 364 540 q 340 536 349 535 q 326 546 332 538 q 322 560 321 553 q 317 574 322 567 q 303 576 313 574 q 289 579 294 578 q 277 579 282 581 q 268 576 272 578 q 259 576 264 575 q 247 588 254 578 l 243 613 l 218 571 q 199 566 210 564 q 181 560 188 568 q 183 546 181 557 q 189 522 186 535 q 194 497 192 508 q 196 485 196 486 q 183 466 190 471 q 176 442 176 461 q 180 423 176 433 q 186 401 183 413 q 191 380 189 390 q 190 363 193 369 q 185 356 188 360 q 179 349 182 353 q 174 334 176 342 q 169 318 172 326 q 163 311 167 315 q 156 303 158 307 z "},"P":{"ha":525,"x_min":-53,"x_max":515,"o":"m 171 -310 q 167 -310 168 -311 q 164 -310 167 -310 q 156 -281 160 -297 q 147 -254 151 -265 q 141 -244 144 -249 q 135 -232 138 -239 q 129 -206 129 -219 q 122 -179 129 -193 q 112 -153 118 -167 q 103 -125 106 -140 q 103 -97 100 -111 q 103 -62 106 -82 q 96 -40 100 -51 q 89 -15 92 -28 q 91 28 90 7 q 94 71 92 49 q 88 83 92 78 q 82 94 85 89 q 88 130 78 111 q 101 158 97 149 q 107 188 108 172 q 103 221 106 204 q 101 235 101 228 q 99 246 101 243 q 78 249 90 253 q 54 243 65 244 q 44 245 49 243 q 35 247 39 247 q 28 244 33 247 q 16 238 22 242 q 3 230 10 233 q -4 225 -3 226 q -26 206 -12 218 q -53 199 -40 194 l -53 200 q -38 224 -50 211 q -10 248 -26 236 q 22 269 6 260 q 47 283 38 278 q 57 286 53 285 q 67 289 61 288 l 106 318 q 106 330 108 322 q 103 340 104 338 q 102 365 99 351 q 104 394 106 379 q 103 408 104 401 q 103 421 103 414 q 101 476 106 446 q 92 528 97 506 q 93 549 93 539 q 94 569 93 558 q 95 590 96 576 q 92 618 94 603 q 88 647 90 633 q 83 671 86 661 q 81 694 81 681 q 83 719 82 707 q 84 743 85 732 q 78 763 83 754 q 56 773 67 768 q 35 783 46 778 q 28 797 33 789 q -13 828 11 813 q -47 867 -37 843 l -44 869 q -35 874 -40 871 q -22 871 -28 871 q -10 868 -17 871 q 12 857 3 864 q 29 843 21 850 q 62 833 40 835 q 94 829 83 832 q 119 835 104 828 q 143 844 133 843 q 157 842 150 844 q 167 839 164 840 q 181 841 174 840 q 194 842 188 842 q 244 833 218 836 q 294 824 269 829 q 343 812 319 819 q 388 792 367 804 q 408 770 401 783 q 426 747 415 757 q 470 714 449 731 q 508 675 492 697 q 509 652 515 667 q 506 625 503 638 q 509 584 511 603 q 510 542 507 565 q 511 528 511 535 q 513 514 511 521 q 501 499 510 504 q 488 486 493 493 q 481 471 483 481 q 476 454 479 461 q 475 442 474 447 q 478 432 476 438 q 481 421 481 426 q 479 410 482 415 q 468 394 475 399 q 454 382 461 389 q 448 367 450 375 q 439 353 446 358 q 422 342 431 347 q 406 333 414 338 q 396 324 400 329 q 386 315 392 318 q 372 310 379 313 q 357 306 364 308 q 347 297 351 301 q 335 290 342 293 q 319 290 328 288 q 306 293 311 292 q 271 290 290 296 q 239 278 251 285 q 243 244 238 264 q 246 217 249 224 q 226 194 242 201 q 204 172 211 188 q 205 160 204 165 q 206 150 206 156 q 205 120 207 138 q 197 92 203 103 q 190 85 194 86 q 182 81 186 83 q 176 69 179 75 q 169 58 172 64 q 160 52 165 54 q 150 43 154 50 q 151 13 151 31 q 153 -11 150 -4 q 166 -26 160 -19 q 175 -46 172 -33 q 169 -60 176 -51 q 161 -72 163 -68 q 163 -94 163 -83 q 167 -115 164 -104 q 161 -130 164 -124 q 157 -143 158 -136 q 156 -160 156 -147 q 159 -190 157 -174 q 163 -219 161 -206 q 167 -236 165 -232 q 172 -252 168 -242 q 176 -274 175 -262 q 177 -296 178 -286 q 171 -310 176 -306 m 267 564 q 265 533 265 549 q 268 508 265 518 q 263 494 267 503 q 257 474 260 485 q 253 455 254 464 q 253 440 251 446 q 256 434 256 438 q 260 428 257 431 q 258 413 258 421 q 257 397 258 406 q 260 391 260 394 q 264 383 261 388 q 260 365 268 372 q 256 347 251 357 q 279 348 267 347 q 299 354 292 349 q 303 381 301 368 q 321 400 306 393 q 336 405 326 403 q 356 409 346 407 q 372 415 365 411 q 378 425 379 418 l 378 440 q 386 458 379 450 q 385 475 393 467 q 383 476 383 476 q 376 477 379 478 q 371 475 374 476 q 357 489 360 479 q 354 509 354 499 q 355 529 354 519 q 351 544 356 539 l 351 547 q 335 547 346 547 q 312 548 324 547 q 290 551 300 549 q 275 558 279 554 q 272 563 272 561 q 269 568 272 565 q 268 566 268 567 q 267 564 268 565 z "},"Q":{"ha":582,"x_min":-8,"x_max":581,"o":"m 238 -150 q 227 -142 231 -147 q 219 -131 224 -136 q 210 -122 217 -128 q 197 -108 203 -115 q 189 -94 192 -101 q 190 -83 186 -87 q 221 -105 206 -89 q 256 -128 236 -121 q 272 -129 265 -131 q 286 -128 279 -128 q 293 -130 289 -129 q 300 -132 297 -131 q 324 -131 307 -133 q 346 -125 340 -128 q 366 -109 361 -119 q 381 -87 371 -99 q 392 -78 386 -82 q 404 -68 397 -74 q 413 -44 410 -60 q 417 -10 415 -28 q 419 24 419 7 q 418 50 419 40 q 396 72 404 58 q 381 52 388 67 q 369 23 375 38 q 355 -2 363 8 q 338 -10 347 -12 q 299 -1 321 -14 q 257 31 278 11 q 218 69 236 50 q 190 96 200 88 q 166 102 179 103 q 143 113 153 101 q 133 124 139 115 q 122 144 128 133 q 111 164 117 154 q 104 179 106 174 q 101 199 101 186 q 96 222 100 213 q 69 256 88 242 q 39 289 50 271 q 23 332 25 310 q 14 382 21 354 q 7 409 11 392 q 7 439 3 426 q -2 464 4 446 q -7 486 -8 482 q -1 499 -4 493 q 4 511 1 504 q 10 558 11 538 q 18 603 8 579 q 41 658 29 631 q 60 718 53 686 q 101 745 83 725 q 139 776 119 765 q 182 801 161 790 q 225 822 203 811 q 239 838 235 828 q 251 853 243 849 q 269 856 258 856 q 286 864 279 857 q 306 860 297 864 q 322 854 315 857 q 342 852 333 853 q 361 850 351 851 q 416 833 388 839 q 467 811 444 826 q 485 758 469 779 q 517 718 500 738 q 527 691 522 704 q 536 665 532 678 q 553 630 544 644 q 569 601 563 615 q 578 568 575 586 q 578 522 581 550 q 557 492 564 511 q 546 454 550 474 q 545 440 546 447 q 544 426 544 433 q 540 418 543 422 q 533 410 536 414 q 526 378 528 394 q 521 351 524 361 q 520 334 521 343 q 519 315 519 325 l 507 265 q 500 249 506 263 q 490 221 494 236 q 481 193 485 206 q 476 179 476 181 q 481 175 479 176 q 486 171 483 174 q 494 163 490 167 q 501 154 497 158 q 524 143 513 146 q 543 125 536 140 q 524 58 538 90 q 504 -10 511 25 q 505 -51 501 -25 q 503 -87 508 -76 q 482 -105 500 -92 q 442 -133 464 -118 q 401 -160 421 -147 q 376 -175 382 -174 q 360 -172 367 -178 q 344 -168 353 -167 q 319 -171 329 -169 q 299 -172 308 -172 q 281 -168 290 -171 q 260 -157 272 -165 q 249 -153 254 -154 q 238 -150 243 -153 m 406 406 q 415 422 408 415 q 424 439 421 428 q 417 463 425 446 q 407 488 410 479 q 407 523 403 506 q 413 557 411 540 q 392 573 404 565 q 368 590 379 581 q 348 610 357 599 q 339 633 339 621 q 344 653 339 643 q 358 672 350 663 q 372 692 365 682 q 382 714 379 703 l 381 714 q 364 702 372 707 q 349 689 356 697 q 340 671 342 681 q 332 650 338 661 q 326 644 329 647 q 319 639 322 642 q 307 617 313 628 q 294 596 301 606 q 277 597 285 594 q 263 601 269 600 q 243 599 253 600 q 224 599 233 599 q 210 577 217 588 q 193 558 203 567 q 178 548 186 551 q 161 538 169 544 q 165 507 164 522 q 167 476 165 492 q 161 466 165 469 q 156 454 157 463 q 169 420 161 439 q 171 388 178 401 q 163 382 169 388 q 150 369 157 376 q 138 356 143 363 q 131 349 132 350 q 135 333 132 343 q 144 324 138 322 q 163 324 154 321 q 181 319 171 328 q 187 292 192 308 q 189 260 182 275 q 199 233 193 249 q 211 207 204 218 q 233 183 218 197 q 251 161 249 169 q 260 143 257 150 q 265 131 263 136 q 273 119 268 125 q 288 108 278 114 q 296 111 294 108 q 301 117 297 114 q 310 122 304 119 q 319 122 317 124 q 330 135 326 126 q 339 150 333 143 q 335 149 336 150 q 324 141 326 143 q 319 138 321 139 q 313 137 317 136 q 299 138 308 138 q 289 137 293 138 q 281 139 285 136 q 276 147 278 143 q 271 156 274 151 q 254 171 263 164 q 242 192 246 178 q 250 213 239 201 q 264 235 261 224 q 267 255 267 244 q 267 274 267 265 q 274 290 268 283 q 293 297 279 296 q 314 279 301 286 q 341 266 326 272 q 369 253 356 260 q 394 239 383 247 q 397 240 396 240 q 400 242 399 240 q 401 253 399 247 q 406 265 404 258 q 405 274 406 269 q 404 283 404 278 l 408 346 q 407 377 413 365 q 406 406 401 389 z "},"R":{"ha":547,"x_min":-64,"x_max":546,"o":"m 308 214 q 303 220 306 217 q 296 225 300 224 q 285 227 289 228 q 275 231 282 226 q 256 249 265 238 q 233 263 246 260 q 232 261 232 263 q 221 232 231 242 q 207 207 211 222 q 203 176 203 196 q 208 137 204 157 q 216 99 211 117 q 225 76 221 82 q 209 52 218 61 q 193 29 200 43 q 194 12 190 21 q 193 -4 199 3 q 176 -14 186 -12 q 161 -22 165 -15 q 158 -40 161 -22 q 152 -79 156 -57 q 147 -122 149 -101 q 147 -147 146 -142 q 152 -169 149 -156 q 158 -197 156 -182 q 161 -228 161 -212 q 157 -256 161 -243 q 151 -253 153 -254 q 141 -235 147 -250 q 130 -201 135 -219 q 121 -164 125 -182 q 117 -139 117 -146 q 117 -125 117 -132 q 118 -111 118 -118 q 115 -82 115 -99 q 113 -49 115 -65 q 104 -10 110 -35 q 104 32 99 15 q 118 53 111 43 q 132 74 125 63 q 132 84 133 76 q 128 100 131 92 q 123 116 125 108 q 119 128 121 124 q 106 189 111 161 q 99 251 101 217 l 90 251 q 70 236 85 242 q 38 228 56 231 q 1 227 19 226 q -29 231 -17 228 l -29 235 q 51 280 10 258 q 117 340 92 301 q 110 356 114 349 q 108 374 106 363 q 115 387 110 381 q 118 403 121 393 q 103 456 111 431 q 99 517 96 482 q 103 547 100 529 q 110 582 107 564 q 114 616 113 600 q 113 642 115 632 q 111 643 111 643 q 110 645 110 644 q 108 647 110 646 q 94 677 97 658 q 81 707 92 696 q 63 717 72 713 q 46 728 54 722 q 44 753 39 739 q 47 776 50 767 q 38 790 42 783 q 28 803 33 796 q 29 810 29 806 q 31 817 29 814 q 26 823 31 818 q 15 833 21 828 q 5 843 10 839 q -1 849 0 847 q -10 850 -6 850 q -18 851 -14 850 q -41 880 -31 863 q -64 911 -51 897 q -63 915 -64 914 q -62 918 -62 915 q -57 919 -60 919 q -47 916 -53 917 q -37 913 -42 915 q -28 900 -33 906 q -19 889 -24 894 q -7 890 -11 889 q 1 884 -3 888 q 10 876 6 881 q 40 865 26 869 q 69 854 54 861 q 76 848 72 851 q 82 842 79 844 q 110 834 89 839 q 143 832 131 829 l 164 836 q 197 827 179 833 q 226 824 214 821 q 264 829 244 826 q 303 829 283 832 q 319 818 311 828 q 333 804 326 808 q 360 797 344 797 q 385 792 375 796 q 399 781 394 789 q 411 769 403 774 q 422 772 418 768 q 435 774 426 775 q 472 758 453 769 q 501 733 490 747 q 505 724 504 728 q 508 715 506 719 q 519 709 513 710 q 528 703 525 708 q 529 688 533 694 q 522 674 525 681 q 526 658 525 665 q 528 642 526 650 q 525 621 525 628 q 530 585 525 606 q 539 542 535 564 q 544 502 543 521 q 542 472 546 483 q 537 467 540 469 q 532 461 533 465 q 530 433 531 447 q 526 406 529 419 q 512 393 522 394 q 494 385 501 392 q 466 351 483 372 q 435 324 449 331 q 410 318 424 318 q 386 311 397 318 l 386 307 q 422 276 406 293 q 458 244 439 260 q 463 238 461 242 q 467 231 464 233 q 487 215 478 222 q 504 196 496 207 q 501 188 503 190 q 499 181 500 185 q 499 132 493 157 q 508 90 504 107 q 512 62 511 75 q 515 33 513 49 q 521 8 518 21 q 526 -17 524 -4 q 520 -40 526 -28 q 511 -61 514 -53 q 508 -92 504 -79 q 506 -125 511 -106 q 499 -137 503 -132 q 492 -147 494 -142 q 486 -169 489 -158 q 481 -192 483 -181 q 475 -199 478 -196 q 471 -208 472 -203 q 472 -220 468 -215 q 472 -231 475 -225 q 467 -240 469 -235 q 463 -249 465 -244 q 445 -308 454 -276 q 415 -361 436 -340 q 413 -360 414 -361 q 408 -360 411 -360 q 429 -279 419 -319 q 449 -200 439 -239 q 449 -174 451 -185 q 444 -153 447 -164 q 448 -127 442 -139 q 456 -107 454 -115 q 453 -82 458 -96 q 449 -57 447 -68 q 444 22 456 -15 q 393 65 432 58 l 389 82 q 394 92 392 88 q 400 103 397 97 q 397 115 399 110 q 399 129 396 121 q 385 138 393 132 q 376 151 378 144 q 375 166 374 161 q 369 178 376 171 q 341 198 358 193 q 308 214 324 203 m 233 381 q 278 388 257 382 q 324 400 299 394 q 330 418 324 403 q 338 436 336 433 q 351 447 343 444 q 365 451 358 449 q 377 461 371 454 q 388 486 383 468 q 390 499 389 492 q 388 513 390 506 q 353 528 371 518 q 343 561 336 538 q 349 572 346 567 q 354 581 351 576 q 329 567 343 574 q 296 560 315 560 q 288 572 293 565 q 276 582 283 579 q 267 566 269 572 q 264 554 264 560 q 266 542 264 549 q 271 525 268 535 q 272 503 274 514 q 274 482 271 492 q 278 468 275 475 q 279 454 282 461 q 273 441 278 447 q 265 429 268 435 q 265 422 263 425 q 265 414 267 419 q 253 393 261 399 q 233 382 244 388 l 233 381 l 233 381 z "},"S":{"ha":551,"x_min":-8,"x_max":539,"o":"m 522 299 q 519 292 521 296 q 515 285 517 289 q 517 282 515 285 q 524 263 519 275 q 526 243 529 251 q 519 233 525 236 q 511 225 514 231 q 494 196 503 211 q 479 165 486 181 q 467 130 472 147 q 454 97 461 113 q 450 78 453 92 q 440 69 446 71 q 428 64 435 68 q 418 51 422 57 q 410 40 414 46 q 395 32 403 36 q 383 21 388 28 l 382 19 q 380 2 379 13 q 378 -17 381 -8 q 369 -28 374 -24 q 361 -39 365 -33 q 360 -47 360 -43 q 358 -54 360 -50 q 347 -75 356 -62 q 328 -100 339 -87 q 307 -122 318 -112 q 288 -135 296 -132 q 245 -113 265 -126 q 208 -89 225 -100 q 199 -78 204 -83 q 189 -68 194 -74 q 142 -44 169 -57 q 100 -17 115 -32 q 24 117 47 42 q 19 286 0 193 q 20 331 25 310 q 25 374 15 353 l 29 374 q 31 372 29 372 q 30 347 31 361 q 29 317 29 332 q 31 289 29 301 q 38 271 33 276 q 41 273 40 272 q 44 275 42 274 q 44 238 46 257 q 42 198 43 218 q 44 160 42 178 q 54 128 46 142 q 61 111 57 121 q 72 96 65 101 q 79 90 75 93 q 88 85 83 88 q 94 70 93 78 q 103 57 96 63 q 144 44 121 46 q 183 32 167 43 l 192 15 q 226 -15 211 -8 q 274 -11 240 -22 q 281 22 279 7 q 284 51 282 38 q 291 80 286 65 q 307 111 296 94 l 319 140 q 342 156 331 147 q 367 171 354 164 q 351 194 357 183 q 340 222 344 206 q 346 243 338 233 q 357 260 354 253 q 355 274 358 265 q 346 293 351 283 q 334 310 340 303 q 324 321 328 318 q 315 327 319 324 q 306 333 310 331 l 275 333 q 244 341 260 336 q 213 339 229 346 q 202 344 207 342 q 192 350 197 347 q 178 349 183 353 q 167 351 174 346 l 165 351 q 157 363 160 357 q 149 374 154 369 q 125 389 133 383 q 115 419 117 394 q 99 415 104 418 q 86 408 94 411 q 56 411 74 404 q 25 422 38 418 q 9 466 15 443 q -4 510 3 489 q -3 517 -3 514 q -1 524 -3 521 q -5 542 -4 533 q -8 560 -6 550 q 15 603 0 583 q 38 644 29 622 q 59 698 49 672 q 86 746 69 724 q 101 754 92 753 q 117 760 110 756 q 136 773 125 765 q 156 788 147 781 q 177 806 164 794 q 206 828 190 817 q 235 847 221 839 q 261 857 250 856 q 282 852 272 854 q 306 847 292 850 q 328 848 317 847 q 350 849 339 849 q 366 840 358 844 q 382 831 374 835 q 389 830 385 831 q 396 829 393 829 q 437 809 414 822 q 474 785 460 796 q 492 777 483 781 q 510 769 500 774 q 526 747 521 761 q 536 719 532 733 q 535 707 539 711 q 526 699 531 703 q 517 688 521 694 q 514 667 513 681 q 515 626 515 646 q 517 586 515 606 q 508 574 514 579 q 499 561 501 568 q 496 549 496 556 q 494 540 496 543 q 481 508 492 519 q 457 488 471 497 q 444 492 449 490 q 435 500 440 493 q 437 515 438 506 q 434 532 436 524 q 428 548 432 540 q 419 558 424 556 q 408 563 414 561 q 396 568 403 565 q 378 585 385 575 q 357 596 372 594 q 331 591 342 599 q 306 583 321 583 q 293 611 290 599 q 303 644 296 624 q 278 642 288 646 q 260 635 269 639 q 258 619 260 624 q 252 610 256 614 q 244 602 249 606 q 236 592 240 599 q 242 590 240 592 q 226 588 235 589 q 211 586 218 588 q 211 565 211 576 q 215 546 211 553 q 240 543 222 544 q 261 539 258 542 l 269 522 q 289 519 279 519 q 308 515 299 518 q 324 503 315 511 q 340 492 332 496 q 355 490 347 489 q 369 488 363 490 q 377 478 374 485 q 386 469 381 472 q 399 469 393 469 q 411 467 404 468 q 428 460 417 465 q 453 448 440 454 q 476 435 465 442 q 489 424 486 428 q 501 404 496 414 q 513 383 506 394 q 528 371 518 376 q 538 356 538 365 q 531 343 536 349 q 524 331 526 338 q 524 315 524 324 q 522 299 524 307 z "},"T":{"ha":600,"x_min":-3,"x_max":586,"o":"m 204 338 q 205 364 203 349 q 204 393 207 379 q 192 424 200 411 q 181 456 183 436 q 185 487 178 472 q 196 515 192 501 q 198 549 200 531 q 193 581 196 567 q 175 581 183 581 q 157 579 167 581 q 149 576 153 578 q 142 572 146 575 q 119 574 131 574 q 96 575 107 575 q 74 567 83 574 q 55 556 64 560 q 35 553 46 551 q 13 569 25 554 q 10 583 11 572 q 6 608 8 594 q 2 635 4 622 q -1 654 0 647 q 13 672 1 664 q 21 689 24 679 l 21 710 q 31 738 25 725 q 6 763 13 750 q -2 791 -1 776 q 1 822 -3 806 q 8 860 4 839 q 60 863 32 863 q 110 861 89 864 l 146 861 q 154 854 149 858 q 165 849 160 850 q 184 847 175 847 q 203 846 193 847 q 216 840 210 843 q 231 835 222 836 q 256 834 246 832 q 278 839 267 836 q 297 838 289 842 q 318 838 304 835 q 335 843 325 840 q 356 847 344 846 q 372 847 360 847 q 399 844 385 846 q 424 840 413 843 q 438 835 435 838 q 454 839 439 835 q 488 849 469 843 q 520 860 506 856 q 536 867 535 865 q 569 849 558 864 q 583 813 581 833 q 583 770 586 793 q 572 731 579 747 q 559 717 568 721 q 547 700 550 714 q 551 673 546 689 q 563 641 557 657 q 574 611 569 625 q 574 592 578 597 q 560 579 568 583 q 550 565 553 575 q 551 555 550 560 q 551 546 551 550 q 550 526 550 539 q 549 501 550 514 q 548 476 549 488 q 543 458 547 464 q 539 452 542 456 q 533 444 536 449 l 529 444 q 526 447 526 447 q 524 450 525 447 q 515 485 514 467 q 508 526 515 504 q 501 538 506 533 q 493 547 496 542 q 494 556 494 551 q 494 565 494 561 q 488 574 492 569 q 479 585 483 579 q 451 585 468 585 q 422 588 435 585 q 406 586 414 586 q 389 586 397 586 q 384 516 378 551 q 400 444 390 481 q 400 430 403 436 q 400 417 397 424 q 376 385 390 400 q 364 379 369 379 q 354 372 358 379 l 354 363 q 366 354 360 356 q 382 350 372 353 q 384 347 383 349 q 386 344 385 346 q 388 293 388 321 q 382 243 389 265 q 383 217 382 231 q 383 192 383 204 q 365 169 379 178 q 339 151 350 161 q 334 140 336 149 q 331 122 332 132 q 328 104 329 113 q 326 94 326 96 q 343 76 333 85 q 357 57 353 68 q 358 42 358 53 q 356 17 357 31 q 351 -8 354 4 q 346 -28 349 -21 q 341 -35 343 -31 q 336 -42 339 -39 q 335 -70 336 -57 q 335 -97 335 -83 q 338 -106 336 -101 q 338 -118 340 -111 q 334 -124 338 -119 q 329 -125 331 -128 q 328 -144 329 -137 q 322 -158 325 -150 q 318 -172 319 -165 q 317 -192 315 -176 q 319 -214 318 -208 q 320 -237 322 -222 q 315 -264 318 -253 q 317 -278 317 -271 q 318 -293 318 -286 q 313 -335 321 -314 q 297 -368 306 -356 l 296 -368 q 290 -365 293 -365 q 290 -324 285 -346 q 290 -283 294 -303 q 283 -272 289 -281 q 278 -256 281 -268 q 272 -229 275 -243 q 269 -203 269 -215 q 269 -187 268 -192 q 265 -176 268 -182 q 264 -162 261 -169 q 268 -156 265 -157 q 272 -149 271 -156 q 261 -135 264 -144 q 259 -116 258 -126 q 260 -94 260 -106 q 260 -74 261 -83 q 256 -52 257 -65 q 251 -29 254 -39 q 242 -8 246 -18 q 232 13 238 1 q 233 26 233 19 q 233 40 233 33 q 232 68 231 57 q 229 100 233 79 q 225 118 226 110 q 221 135 224 126 q 226 157 224 146 q 232 179 229 168 l 215 213 q 212 247 213 225 q 214 283 211 268 q 211 312 217 299 q 204 338 206 325 z "},"U":{"ha":564,"x_min":-4,"x_max":567,"o":"m 567 746 q 558 730 563 738 q 549 714 553 722 q 548 699 546 707 q 547 682 550 690 q 541 669 544 675 q 536 657 538 664 q 537 631 533 647 q 536 599 540 614 q 524 565 531 579 q 513 535 517 550 q 509 506 510 519 q 506 478 508 492 q 510 423 503 453 q 515 371 517 393 q 520 354 518 363 q 525 338 522 346 q 498 290 514 310 q 475 239 482 271 q 477 209 472 224 q 476 176 482 194 q 464 150 469 163 q 451 125 458 138 q 451 92 447 110 q 449 57 454 75 q 438 42 447 51 q 418 22 429 32 q 397 4 407 13 q 381 -8 386 -4 q 361 -31 369 -17 q 339 -49 353 -46 q 326 -49 335 -50 q 308 -46 318 -47 q 290 -42 299 -44 q 279 -39 282 -40 q 272 -33 275 -36 q 264 -28 268 -31 l 236 -28 q 224 -22 232 -26 q 207 -13 215 -18 q 192 -3 199 -8 q 182 7 185 3 q 163 35 171 19 q 142 60 156 51 q 124 72 135 64 q 101 90 113 81 q 82 108 90 99 q 72 126 74 118 q 75 139 74 133 q 78 151 76 144 q 76 199 74 176 q 75 244 79 221 q 69 284 72 263 q 63 318 65 306 q 63 339 61 328 q 61 360 64 350 q 63 369 63 364 q 65 378 64 374 q 62 402 64 389 q 57 425 60 415 l 57 464 q 50 472 56 471 q 40 478 44 472 q 35 485 39 479 q 28 499 32 492 q 22 512 25 506 q 18 521 18 518 q 15 544 13 532 q 17 569 18 556 q 13 591 14 581 q 10 613 11 601 q 10 641 7 628 q 11 672 14 654 q 8 683 8 679 q 8 694 7 688 q 3 727 11 713 q -1 756 -4 742 q 15 772 1 763 q 35 786 29 781 q 67 800 44 794 q 114 809 89 806 q 164 815 139 813 q 204 819 189 817 q 227 820 217 822 q 249 825 238 818 q 264 821 260 825 q 275 810 268 817 q 271 792 272 803 q 269 769 269 782 q 269 745 268 757 q 272 725 269 733 q 264 714 269 722 q 266 691 258 700 q 268 669 274 682 q 247 655 261 658 q 222 644 233 651 q 221 643 221 644 q 226 629 224 635 q 249 608 242 626 q 249 576 256 590 q 232 556 242 565 q 219 532 222 546 q 219 522 218 529 q 220 505 219 514 q 222 488 221 496 q 225 476 224 481 q 210 403 215 436 q 196 332 204 369 q 199 314 199 322 q 201 296 200 306 q 200 294 201 296 q 189 274 197 281 q 174 257 181 268 q 171 242 169 250 q 169 228 172 235 q 170 226 169 226 q 171 225 171 226 q 178 231 176 228 q 182 236 179 233 l 189 236 q 206 217 196 226 q 219 193 217 207 q 220 185 222 188 q 218 178 218 182 q 216 139 214 161 q 224 108 218 117 l 225 108 q 237 99 229 101 q 249 89 244 96 q 252 78 251 85 q 258 68 253 71 q 278 65 267 65 q 300 61 290 64 q 324 50 311 58 q 343 46 336 42 q 351 53 346 46 q 363 69 357 60 q 373 86 368 78 q 379 97 378 94 q 378 108 379 100 q 376 125 378 117 q 374 140 375 133 q 371 149 372 147 q 352 161 357 151 q 347 185 347 171 q 347 213 346 199 q 349 238 349 226 q 349 258 349 249 q 350 279 350 268 q 342 297 347 288 q 339 318 336 306 q 348 404 346 360 q 343 486 350 449 q 328 515 340 503 q 311 543 317 528 q 316 553 311 546 q 327 570 321 561 q 339 588 333 579 q 344 604 344 597 q 338 620 340 611 q 332 636 336 629 q 323 646 329 642 q 313 657 317 650 q 309 692 304 671 q 317 728 314 714 q 320 749 319 736 q 329 768 321 761 q 351 772 339 775 q 375 769 363 769 q 413 766 389 768 q 456 758 438 764 q 475 757 463 756 q 501 760 488 758 q 527 765 515 763 q 546 769 539 768 q 560 765 554 772 q 567 746 567 757 z "},"V":{"ha":556,"x_min":-22,"x_max":561,"o":"m 538 739 q 551 724 540 732 q 556 701 561 715 q 538 677 550 686 q 522 653 526 668 l 526 628 q 518 597 524 614 q 519 564 513 581 q 525 553 522 558 q 525 540 528 549 q 511 493 521 515 l 507 447 q 499 433 506 440 q 489 415 492 425 q 490 392 485 404 q 489 372 494 379 q 482 365 486 365 q 472 363 478 365 q 452 342 458 354 q 425 328 446 331 q 418 306 422 317 q 417 283 414 294 q 428 260 419 272 q 432 233 436 247 q 427 225 429 229 q 422 218 425 221 l 422 193 q 416 175 419 185 q 410 157 413 165 q 412 142 408 149 q 413 129 415 136 q 405 110 410 122 q 394 94 400 99 q 381 90 388 92 q 368 86 375 89 q 347 64 358 79 q 331 38 335 49 q 317 -22 319 8 q 306 -81 314 -51 q 306 -91 306 -86 q 307 -100 307 -96 q 304 -140 304 -119 q 299 -175 304 -160 q 299 -195 294 -186 q 300 -215 303 -204 q 292 -224 297 -219 q 285 -225 288 -224 l 285 -222 q 278 -205 281 -215 q 272 -183 275 -194 q 274 -175 271 -179 q 274 -164 276 -171 q 258 -133 267 -147 q 243 -103 250 -118 q 236 -70 235 -86 q 235 -39 238 -54 q 224 -12 232 -31 q 214 15 217 6 q 214 22 211 19 q 217 26 217 24 l 210 76 q 207 83 210 76 q 200 98 204 90 q 192 112 196 106 q 189 118 189 118 q 180 126 185 122 q 171 133 175 129 q 170 140 171 136 q 169 147 169 143 q 160 161 165 154 q 151 175 156 168 q 147 191 149 181 q 142 213 144 201 q 140 236 140 225 q 140 253 139 247 q 144 272 142 260 q 144 292 147 283 q 134 306 139 299 q 124 322 129 314 q 114 351 117 338 q 106 379 111 364 q 93 403 100 392 q 81 431 86 415 q 78 451 79 442 q 75 471 78 460 q 67 497 71 483 q 58 524 63 510 q 52 560 53 542 q 44 597 51 578 q 17 657 32 626 q 1 671 13 663 q -3 690 -6 682 q -6 714 -1 699 q -11 724 -8 719 q -17 733 -14 729 q -21 761 -19 740 q -21 790 -22 782 q 4 799 -10 793 q 29 808 18 806 q 44 803 40 811 q 60 797 49 794 q 92 803 76 800 q 125 815 108 807 q 136 826 129 822 q 159 833 147 832 q 178 840 171 833 q 189 835 185 838 q 197 828 193 832 q 200 810 197 821 q 206 788 203 800 q 213 764 210 775 q 221 747 217 753 q 233 731 226 739 q 242 713 239 724 q 240 701 244 706 q 232 692 235 696 q 228 676 229 688 q 231 658 228 664 q 221 644 226 647 q 210 629 215 640 q 226 597 218 614 q 242 563 235 579 q 231 542 239 551 q 226 518 224 533 q 234 503 229 508 q 242 492 239 499 q 242 480 243 489 q 240 460 242 471 q 237 441 239 450 q 233 431 235 432 q 224 420 229 424 q 217 406 219 417 q 228 383 221 400 q 241 344 235 365 q 251 305 247 324 q 254 278 256 286 q 251 272 251 275 q 247 265 250 268 q 247 241 246 258 q 247 219 247 224 q 252 206 250 213 q 257 193 254 200 q 262 151 260 178 q 264 111 264 125 l 267 111 q 277 128 269 122 q 288 143 285 133 q 291 163 292 153 q 288 181 290 172 q 285 197 286 189 q 286 215 283 206 q 294 250 289 229 q 296 286 300 271 q 293 301 294 293 q 292 315 292 308 q 301 362 292 339 q 313 413 311 385 q 306 438 314 426 q 300 464 297 449 q 309 499 303 478 q 322 535 315 519 l 318 597 q 323 615 321 606 q 328 633 325 624 q 328 658 329 643 q 326 687 328 672 q 323 715 324 701 q 326 736 322 728 q 319 754 324 744 q 325 772 315 764 q 349 782 338 782 q 371 777 360 782 q 394 766 382 772 q 419 758 406 760 q 449 758 436 756 q 483 761 463 761 q 498 772 489 772 q 519 775 507 772 l 532 767 q 538 739 535 750 z "},"W":{"ha":883,"x_min":-49,"x_max":879,"o":"m 828 729 q 853 720 839 726 q 878 711 867 714 q 878 683 879 704 q 874 656 876 663 q 869 646 871 650 q 864 636 867 642 q 861 613 860 621 q 857 594 863 606 q 840 579 851 590 q 828 556 833 568 q 818 535 824 544 q 807 499 811 521 q 803 463 803 478 q 794 426 803 443 q 782 392 786 408 q 779 373 781 382 q 776 353 778 364 q 765 326 772 338 q 751 301 757 314 q 743 273 746 286 q 733 244 740 260 q 723 228 728 236 q 713 213 718 221 q 713 194 710 206 q 717 175 715 182 q 717 158 718 169 q 715 135 717 147 q 710 113 713 124 q 706 97 707 103 q 698 87 701 92 q 692 76 694 82 q 689 66 690 71 q 686 56 688 61 q 677 48 682 51 q 668 40 672 44 q 665 33 668 40 q 658 19 661 26 q 651 4 654 11 q 647 -3 647 -3 l 640 -51 q 642 -56 640 -53 q 644 -62 644 -61 q 633 -90 640 -74 q 622 -117 625 -106 q 622 -142 619 -131 q 618 -168 624 -153 q 601 -205 610 -187 q 583 -242 592 -222 q 583 -253 581 -249 q 586 -262 585 -257 q 578 -282 582 -272 q 572 -303 575 -292 l 567 -303 q 565 -302 565 -303 q 563 -301 564 -301 q 560 -297 561 -299 q 557 -292 558 -294 q 558 -272 554 -281 q 558 -253 563 -264 q 553 -217 554 -237 q 550 -178 553 -197 q 551 -169 551 -174 q 551 -160 551 -164 q 542 -99 544 -129 q 528 -40 539 -69 q 511 -14 524 -29 q 489 8 499 1 q 476 13 482 11 q 464 15 471 14 q 452 32 457 21 q 444 51 447 43 q 446 65 442 58 q 447 78 450 71 q 442 97 446 88 q 435 115 438 107 l 435 140 q 430 147 432 143 q 425 154 428 151 q 430 182 421 169 q 442 204 439 194 q 440 228 444 217 q 432 249 435 239 q 414 256 421 251 q 400 267 407 261 q 397 251 397 260 q 396 235 397 242 q 389 216 393 226 q 383 197 385 206 l 388 176 q 383 163 385 169 q 378 149 381 156 q 361 135 371 135 q 342 128 351 135 q 315 98 326 117 q 297 60 304 79 q 296 53 297 58 q 294 40 294 47 q 293 26 293 32 q 294 18 293 19 q 284 -26 285 -3 q 276 -75 283 -50 q 274 -106 274 -89 q 271 -133 275 -122 q 272 -154 268 -144 q 274 -174 276 -164 q 265 -182 269 -181 q 257 -183 263 -183 l 257 -182 q 250 -164 253 -175 q 244 -143 247 -153 q 247 -134 244 -139 q 247 -124 250 -129 q 232 -92 240 -107 q 217 -61 224 -76 q 210 -30 208 -46 q 208 1 211 -14 q 197 28 206 11 q 186 56 189 46 q 187 63 185 61 q 190 68 189 65 l 183 117 q 179 124 181 119 q 176 130 176 126 q 172 138 175 133 q 163 158 167 146 q 144 174 156 165 q 143 181 143 176 q 142 188 143 185 l 125 217 q 120 233 122 222 q 116 254 118 243 q 113 276 114 265 q 114 293 113 288 q 118 312 115 300 q 118 332 121 324 q 108 347 113 339 q 96 363 103 356 q 87 391 89 378 q 79 419 85 404 q 66 444 74 432 q 54 472 58 457 q 51 492 53 482 q 49 511 50 501 q 40 538 44 525 q 31 564 35 551 q 25 601 26 583 q 18 638 24 618 q 4 667 11 653 q -10 697 -3 682 q -18 705 -14 701 q -25 711 -22 708 q -31 731 -33 722 q -33 756 -29 740 q -38 765 -36 760 q -43 775 -40 769 q -47 802 -46 782 q -47 831 -49 822 q -23 840 -36 833 q 1 849 -10 846 q 17 844 13 851 q 33 838 22 836 q 66 844 50 840 q 97 856 82 847 l 110 868 q 132 873 121 872 q 151 881 143 874 q 162 875 158 878 q 171 868 165 872 q 173 851 171 863 q 178 828 175 840 q 186 805 182 817 q 194 788 190 793 q 206 772 199 781 q 215 753 213 764 q 212 741 217 746 q 204 732 207 736 q 201 716 201 728 q 204 699 201 704 q 194 685 200 689 q 183 671 189 682 q 199 638 190 656 q 214 604 207 619 q 203 583 211 593 q 199 560 196 574 q 207 545 201 550 q 215 532 213 540 q 216 520 217 529 q 214 501 215 511 q 210 481 213 490 q 207 471 208 472 q 198 460 203 464 q 190 446 193 457 q 201 423 194 440 q 213 385 207 406 q 224 345 219 364 q 226 318 228 326 q 224 313 225 315 q 221 307 222 310 q 219 282 219 300 q 221 260 219 264 q 226 247 224 253 q 231 233 228 240 q 235 193 233 219 q 236 151 238 167 l 240 151 q 251 169 243 164 q 261 183 258 174 q 263 203 264 193 q 260 221 263 213 q 257 238 258 229 q 258 257 256 247 q 267 291 263 271 q 269 326 272 311 q 265 342 267 333 q 264 357 264 350 q 274 402 264 379 q 286 453 285 425 q 279 478 288 468 q 274 504 271 489 q 282 540 276 518 q 294 576 288 561 q 292 607 293 592 q 290 638 292 622 q 296 656 293 647 q 301 674 299 664 q 302 698 303 683 q 299 727 301 713 q 297 755 297 742 q 299 776 296 768 q 293 795 297 786 q 299 813 289 804 q 322 822 311 822 q 344 817 333 822 q 367 806 356 813 q 392 799 379 800 q 423 800 410 797 q 456 801 436 803 q 471 813 463 813 q 492 815 479 813 l 504 807 q 508 793 507 800 q 510 779 508 786 q 524 764 513 772 q 529 742 535 756 q 516 722 525 729 q 500 703 507 714 q 519 702 513 707 q 535 692 526 697 q 534 641 538 672 q 528 586 531 610 q 532 552 526 568 q 540 518 538 536 q 538 488 539 503 q 536 457 538 472 q 543 439 539 450 q 551 416 547 428 q 557 393 556 404 q 557 374 558 382 q 549 355 554 364 q 544 333 543 346 q 555 278 546 304 q 565 226 564 251 q 564 216 565 221 q 561 208 563 211 q 563 172 558 193 q 572 138 568 151 q 574 119 575 128 q 570 102 572 111 q 567 84 568 93 q 569 65 565 75 q 578 56 574 60 q 586 47 582 51 q 589 40 589 43 q 594 33 589 36 q 599 89 592 60 q 610 142 606 118 q 607 179 613 158 q 604 218 601 200 q 620 274 611 247 q 640 329 629 301 q 633 342 638 339 q 624 351 628 344 q 620 367 621 360 q 617 383 619 375 q 619 415 610 403 q 631 440 628 426 q 626 465 633 453 q 617 486 619 476 q 639 542 625 513 q 643 546 640 544 q 647 550 646 547 q 640 565 650 558 q 628 576 631 572 l 628 606 q 622 617 625 613 q 615 629 618 622 q 618 646 613 636 q 626 660 624 656 q 637 674 631 667 q 646 692 643 682 q 655 727 653 711 q 667 756 657 743 q 678 761 669 758 q 699 755 689 758 q 721 749 710 751 q 727 743 724 746 q 733 738 731 740 q 744 734 739 735 q 756 731 749 733 l 764 722 l 806 719 q 815 726 810 721 q 828 729 821 732 z "},"X":{"ha":644,"x_min":-12,"x_max":646,"o":"m 588 761 q 608 753 597 756 q 626 743 619 751 q 641 710 636 733 q 638 675 646 688 q 612 656 618 674 q 599 622 606 638 q 568 560 583 590 q 531 504 553 529 q 500 483 518 490 q 472 458 482 476 q 471 445 471 456 q 472 423 471 435 q 474 402 474 411 q 475 393 475 393 q 463 380 472 385 q 449 365 453 375 q 459 354 454 360 q 469 343 464 349 q 506 313 488 328 q 538 279 524 299 q 535 270 538 272 q 532 263 533 268 q 533 215 528 240 q 543 172 539 190 q 546 144 544 158 q 550 117 547 131 q 556 92 553 104 q 561 65 558 79 q 555 42 561 54 q 544 22 549 31 q 542 -10 538 4 q 540 -43 546 -24 q 533 -54 538 -50 q 526 -64 529 -58 q 520 -86 524 -75 q 514 -108 517 -97 q 510 -117 513 -112 q 504 -125 507 -121 q 506 -137 503 -132 q 507 -147 508 -142 q 502 -157 504 -153 q 497 -165 500 -161 q 478 -225 488 -193 q 450 -278 469 -257 l 443 -278 q 464 -197 454 -237 q 482 -117 474 -157 q 483 -92 485 -103 q 478 -71 481 -82 q 481 -45 475 -57 q 490 -25 488 -33 q 487 1 492 -14 q 483 26 482 15 q 485 67 486 47 q 478 104 485 88 q 460 133 472 121 q 428 149 447 144 l 424 165 q 429 176 426 171 q 435 186 432 181 q 432 199 433 193 q 432 213 431 204 q 422 222 426 217 q 411 231 417 226 q 409 245 407 239 q 404 261 411 251 q 382 277 394 274 q 356 289 369 281 q 343 298 349 293 q 331 307 338 303 q 297 292 315 299 q 268 268 278 285 q 265 249 264 261 q 260 232 265 238 q 247 223 254 226 q 238 213 240 219 q 239 198 244 206 q 235 183 233 190 q 238 178 236 179 q 243 175 240 178 q 249 158 250 165 q 244 139 247 150 q 216 128 235 138 q 192 113 197 119 q 185 96 189 108 q 179 70 182 83 q 175 44 176 57 q 174 25 174 31 q 178 5 175 18 q 181 -17 182 -8 q 172 -42 178 -28 q 171 -68 167 -56 q 177 -87 174 -76 q 183 -111 181 -99 q 182 -128 186 -121 q 176 -142 178 -135 q 177 -150 175 -147 q 181 -156 179 -153 q 179 -165 179 -161 q 178 -175 179 -169 q 181 -190 181 -182 q 182 -206 181 -197 q 188 -222 183 -212 q 194 -237 192 -232 l 199 -279 q 213 -321 206 -299 q 225 -367 221 -343 l 217 -367 q 203 -351 210 -362 q 189 -325 196 -339 q 176 -297 182 -311 q 167 -275 171 -283 q 164 -265 165 -272 q 161 -250 163 -257 q 158 -232 160 -242 q 153 -222 156 -226 q 149 -212 151 -218 q 149 -199 149 -206 q 150 -186 150 -193 q 144 -174 149 -179 q 138 -161 140 -168 q 132 -137 135 -149 q 126 -112 129 -125 q 117 -101 124 -106 q 108 -89 111 -96 q 108 -64 104 -75 q 108 -42 111 -53 q 99 -3 104 -18 q 85 32 94 13 q 83 47 82 38 q 88 66 85 56 q 94 88 92 76 q 97 108 97 99 q 100 130 97 114 q 106 153 103 146 q 104 168 106 164 q 113 200 110 183 q 118 235 115 217 q 117 237 118 236 q 117 239 117 238 q 117 258 117 243 q 118 275 117 274 q 111 297 111 285 q 123 309 119 301 q 132 322 126 317 q 142 331 136 328 q 156 336 149 333 q 160 344 158 340 q 163 351 161 347 q 183 367 172 361 q 203 383 194 372 q 178 405 190 386 q 163 433 167 424 q 161 445 161 440 q 161 456 161 450 q 149 475 157 467 q 140 496 142 483 q 144 509 139 503 q 153 521 150 515 q 147 540 150 531 q 140 560 143 549 l 136 560 q 119 547 128 553 q 99 547 110 542 q 84 579 93 567 q 68 607 75 592 q 61 619 65 610 q 60 631 57 629 q 44 645 53 638 q 33 660 36 653 q 28 679 31 671 q 3 715 19 694 q -12 758 -12 735 q 26 774 7 768 q 68 778 44 781 q 84 794 75 789 q 103 802 93 799 q 126 808 114 806 q 149 817 138 811 q 183 776 179 807 l 188 776 q 196 798 197 786 q 196 821 194 810 q 212 830 203 829 q 231 838 221 831 q 253 832 239 835 q 261 795 253 815 q 269 768 269 775 q 264 751 267 760 q 258 735 261 743 q 260 698 254 713 q 263 667 265 683 q 256 642 260 654 q 260 615 253 631 q 278 595 265 600 q 299 581 292 590 q 307 561 301 575 q 335 522 318 539 l 338 522 q 355 556 346 539 q 374 590 364 572 q 388 606 381 597 q 399 625 394 614 l 400 661 q 413 681 404 672 q 424 699 421 689 q 440 760 435 728 q 451 819 444 792 q 467 822 460 821 q 483 819 475 822 q 496 801 490 807 q 508 792 501 794 q 523 788 514 789 q 547 783 532 786 q 560 782 551 782 q 574 771 567 778 q 588 761 581 764 z "},"Y":{"ha":604,"x_min":-35,"x_max":621,"o":"m 596 756 q 615 731 610 749 q 618 700 621 713 q 617 690 615 693 q 615 679 619 686 q 590 660 596 679 q 576 628 583 642 q 546 565 561 596 q 508 510 531 535 q 478 489 496 496 q 451 464 461 482 q 450 449 450 460 q 451 428 450 439 q 453 408 453 417 q 453 399 454 399 q 444 388 453 396 q 426 372 436 381 q 408 355 417 363 q 397 347 399 347 q 399 315 399 331 q 400 282 399 299 q 407 258 403 271 q 408 231 411 244 q 397 223 404 224 q 383 217 389 222 q 374 190 374 208 q 381 160 374 171 q 399 158 392 161 q 405 138 401 151 q 410 110 408 125 q 412 82 413 96 q 407 60 411 68 q 392 50 401 57 q 378 38 382 43 q 377 11 374 26 q 386 -11 381 -4 q 379 -22 383 -17 q 372 -33 375 -28 q 375 -69 374 -51 q 379 -106 376 -87 q 371 -115 376 -112 q 363 -124 365 -117 q 358 -196 358 -156 q 356 -268 357 -236 q 361 -299 356 -283 q 356 -322 367 -315 q 352 -324 353 -324 q 349 -326 351 -325 q 335 -294 338 -315 q 329 -257 332 -274 q 332 -240 332 -246 q 320 -198 326 -219 q 310 -154 314 -176 q 306 -108 307 -131 q 303 -61 306 -85 q 296 -47 300 -54 q 289 -31 292 -39 q 283 -12 283 -21 q 278 8 283 -3 q 267 22 272 15 q 256 36 261 29 q 256 49 256 43 q 257 60 256 54 q 258 90 260 75 q 254 121 256 106 q 254 136 254 128 q 256 151 254 144 q 240 204 249 182 q 221 254 231 226 q 231 285 228 267 q 231 323 233 304 q 223 358 229 342 q 206 382 217 374 q 184 388 196 389 q 165 397 172 388 q 151 418 158 407 q 140 439 144 429 q 140 450 140 444 q 139 461 139 456 q 128 480 133 474 q 122 491 124 486 q 121 503 119 496 q 131 526 122 510 l 118 564 l 114 564 q 97 552 107 557 q 76 553 88 547 q 62 584 71 571 q 46 613 53 597 q 40 625 44 615 q 38 636 35 635 q 23 651 31 643 q 13 665 15 658 q 7 685 10 671 q -18 720 -1 700 q -33 764 -35 740 q 4 779 -14 774 q 46 782 22 785 q 81 808 60 804 q 126 822 103 811 q 149 808 140 817 q 161 782 158 799 l 165 782 q 174 802 175 790 q 174 826 172 814 q 190 835 181 835 q 208 842 199 836 q 219 840 214 840 q 231 838 225 839 q 240 801 231 821 q 247 774 249 781 q 242 757 244 765 q 236 740 239 749 q 238 703 232 718 q 240 671 243 689 q 234 647 238 658 q 238 621 231 636 q 258 601 244 606 q 278 586 271 597 q 281 576 279 581 q 285 567 282 572 q 298 546 290 556 q 313 528 306 536 l 315 528 q 333 561 325 544 q 351 594 342 578 q 366 611 358 603 q 376 631 374 619 l 378 667 q 391 685 383 678 q 403 704 399 693 q 418 765 414 733 q 431 825 422 797 q 445 827 438 826 q 463 825 453 828 q 471 809 465 818 q 483 796 476 800 l 538 788 q 550 778 544 782 q 561 768 556 774 q 578 762 569 763 q 596 756 588 761 z "},"Z":{"ha":581,"x_min":-12,"x_max":608,"o":"m 353 746 q 398 778 367 772 q 465 785 429 783 q 536 790 501 786 q 592 819 571 794 q 594 820 593 819 q 597 821 596 821 q 607 814 604 818 q 608 810 607 811 q 608 807 608 810 q 595 789 603 797 q 581 772 588 781 q 574 757 575 765 q 568 742 574 749 q 551 724 561 733 q 535 703 542 714 q 529 691 532 696 q 524 679 526 686 q 514 669 519 674 q 506 657 508 664 q 501 636 503 646 q 497 617 500 626 q 487 599 492 607 q 476 582 482 590 q 475 571 474 575 q 475 560 476 567 q 468 538 474 549 q 458 518 463 528 q 452 491 456 504 q 446 463 449 478 q 440 460 443 461 q 435 456 438 458 q 425 440 429 449 q 417 425 421 432 q 399 405 410 414 q 382 388 389 396 q 366 375 374 381 q 350 363 358 369 q 343 343 344 354 q 341 321 342 332 q 337 300 340 310 q 324 285 333 290 q 300 275 311 278 q 276 264 289 272 q 258 247 267 257 q 238 233 250 236 q 242 215 238 224 q 243 196 246 207 l 243 193 q 228 176 239 183 q 213 160 218 168 q 205 140 210 153 q 196 122 200 128 q 183 113 190 115 q 171 104 175 111 q 165 81 163 92 q 178 72 169 76 q 196 63 186 67 q 216 59 206 60 q 233 63 226 58 q 240 60 236 61 q 249 60 244 58 q 261 65 256 61 q 275 69 267 68 q 294 70 285 69 q 311 71 303 71 q 328 84 321 74 q 346 97 335 94 q 365 96 358 100 q 378 89 371 92 q 380 90 379 89 q 382 90 381 90 q 396 93 385 90 q 413 99 407 96 q 440 126 429 110 q 471 154 451 143 q 476 151 474 151 q 467 93 471 121 q 465 78 465 86 q 465 63 465 71 q 470 44 468 53 q 475 24 472 35 q 481 13 478 18 q 489 0 485 7 q 487 -11 488 -6 q 485 -22 486 -17 q 475 -31 481 -25 q 458 -26 464 -31 q 444 -19 453 -22 q 430 -17 438 -18 q 414 -15 422 -17 q 406 -8 410 -12 q 394 -3 401 -4 q 386 -3 393 -3 q 371 -3 379 -3 q 355 -6 363 -4 q 344 -7 347 -7 q 327 -15 336 -8 q 307 -18 318 -21 q 282 -18 296 -15 q 256 -18 268 -21 q 211 -14 233 -15 q 165 -10 189 -12 q 144 -13 154 -10 q 128 -18 135 -17 q 108 -15 117 -19 q 88 -15 99 -11 q 56 -34 72 -22 q 24 -51 39 -46 q 18 -27 13 -46 q 29 7 24 -8 q 49 43 36 26 q 72 79 61 60 q 76 99 76 89 q 81 119 76 110 q 93 138 86 128 q 103 157 100 149 q 106 172 106 164 q 111 188 106 181 q 129 203 118 199 q 147 219 140 208 q 151 247 157 233 q 151 272 146 260 q 172 306 158 290 q 197 336 186 321 q 204 357 203 350 q 215 374 208 367 q 224 392 221 381 q 224 404 224 399 q 225 415 225 410 q 248 460 235 439 q 274 502 261 481 q 296 547 286 524 q 310 600 306 571 q 281 590 292 600 q 258 571 271 579 q 251 569 256 569 q 243 568 246 569 q 219 574 233 581 q 192 569 206 567 q 175 580 181 572 q 161 593 169 588 q 159 594 160 593 q 157 594 158 594 q 134 563 151 578 q 106 532 117 547 q 86 531 96 535 q 68 524 76 526 q 58 500 63 513 q 47 476 53 488 q 45 463 44 469 q 43 453 46 457 q 35 450 40 450 l 35 453 q 31 469 29 461 q 29 488 33 476 q 16 539 19 514 q 14 594 13 564 q 9 614 15 606 q 0 629 3 622 q 2 656 -6 644 q 7 683 10 668 q -4 727 1 710 q -12 771 -10 744 q 6 781 -4 779 q 27 780 15 782 q 52 774 39 778 q 78 771 65 771 q 97 772 85 771 q 121 776 108 774 q 145 782 133 779 q 163 789 157 785 q 178 783 167 786 q 204 778 190 781 q 231 773 218 775 q 250 771 244 771 q 266 773 258 771 q 281 777 274 775 q 297 778 289 779 q 314 772 306 778 q 315 756 314 764 q 319 743 315 747 q 335 749 328 749 q 353 746 342 749 z "},"a":{"ha":401,"x_min":-17,"x_max":401,"o":"m 215 -18 q 195 -21 208 -21 q 167 -19 182 -21 q 139 -15 153 -17 q 118 -12 125 -12 q 83 -18 96 -12 q 54 -21 69 -24 q 41 1 49 -12 q 26 28 33 14 q 14 58 18 43 q 11 85 10 72 q 21 117 13 100 q 41 149 29 133 q 65 178 53 164 q 86 200 76 192 q 101 217 93 208 q 117 233 110 225 q 119 247 119 239 q 125 258 118 254 l 138 258 q 172 276 156 267 q 206 293 189 285 q 239 318 225 307 q 282 338 253 329 q 281 340 281 339 q 279 342 281 340 q 246 369 261 353 q 208 393 231 386 q 180 393 194 399 q 154 385 165 388 q 113 373 126 379 q 81 353 99 367 q 70 341 75 346 q 61 329 65 336 q 44 319 53 324 q 32 306 36 315 q 28 283 29 294 q 26 260 28 271 q -3 167 14 211 q -6 138 -7 156 q -11 114 -6 121 l -11 115 q -16 146 -17 128 q -12 183 -15 164 q -6 218 -10 201 q 1 243 -1 235 q 3 304 7 274 q 15 363 0 335 q 64 419 36 399 q 125 464 92 439 l 146 485 q 163 489 154 488 q 181 493 172 490 q 213 511 199 500 q 243 532 228 522 q 257 528 250 532 q 258 508 260 518 q 261 489 256 497 l 315 443 q 334 419 326 432 q 353 396 342 407 q 366 382 360 389 q 379 368 372 375 l 379 358 q 385 356 382 357 q 390 353 388 354 l 399 332 q 390 304 401 318 q 382 271 379 290 q 383 250 385 261 q 379 226 381 239 q 376 174 378 200 q 374 121 375 149 q 376 98 371 107 q 376 76 381 89 q 368 67 374 69 q 360 57 363 64 q 361 38 361 47 q 363 19 361 29 q 363 1 365 8 q 364 -18 361 -7 q 374 -53 368 -36 q 386 -87 381 -71 q 385 -97 389 -93 q 382 -103 382 -100 q 387 -121 385 -112 q 392 -139 389 -129 q 395 -184 396 -165 q 397 -222 394 -203 q 394 -221 397 -222 q 385 -174 392 -197 q 369 -131 378 -150 q 367 -119 368 -124 q 365 -107 367 -114 q 360 -103 363 -104 q 356 -99 358 -101 q 350 -76 351 -87 q 343 -54 349 -65 q 328 -33 339 -43 q 314 -12 318 -24 q 315 -4 314 -8 q 315 6 315 0 q 311 12 314 8 q 307 18 308 15 q 301 40 301 29 q 297 61 301 50 q 267 44 286 56 q 243 25 249 33 q 231 1 236 15 q 215 -18 226 -12 m 147 31 q 196 35 175 26 q 233 58 217 43 q 263 91 250 72 q 290 125 276 110 q 286 165 285 144 q 269 173 278 172 q 249 176 261 174 q 234 172 243 174 q 222 167 225 169 q 207 152 215 158 q 193 138 199 146 q 185 121 189 129 q 178 104 182 113 q 169 102 172 103 q 163 100 167 101 q 148 109 151 104 q 138 119 144 114 q 113 115 124 122 q 110 113 113 115 q 119 89 110 93 q 140 88 133 92 q 148 75 146 83 q 149 56 150 67 q 144 38 147 46 q 147 31 147 35 z "},"b":{"ha":400,"x_min":-22,"x_max":400,"o":"m 117 438 q 162 445 146 444 q 190 442 178 446 q 214 432 201 439 q 247 417 226 425 q 269 413 258 415 q 289 408 279 411 q 355 349 324 385 q 397 271 386 313 l 397 225 q 398 215 397 219 q 400 203 399 210 q 394 184 397 193 q 388 165 390 175 l 388 118 q 369 106 383 107 q 346 100 356 104 l 313 75 q 306 52 313 60 q 289 40 299 44 q 269 30 279 35 q 253 15 260 25 q 244 -3 247 7 q 238 -23 242 -12 q 230 -42 235 -33 q 217 -57 225 -51 l 213 -57 q 201 -50 210 -53 q 189 -12 197 -26 q 161 15 181 3 q 144 16 156 14 q 122 22 133 18 q 100 31 110 26 q 88 39 90 36 q 82 49 85 44 q 76 61 79 54 q 75 60 74 60 q 74 57 76 60 q 69 53 71 54 q 64 51 67 53 q 65 26 65 40 q 60 6 64 13 q 67 -16 64 -3 q 71 -44 69 -29 q 72 -73 72 -58 q 69 -97 72 -87 l 67 -97 l 67 -96 q 61 -76 64 -85 q 56 -60 58 -68 q 45 -38 50 -49 q 35 -17 40 -28 q 36 3 36 -10 q 31 36 33 18 q 25 69 29 54 q 27 81 24 76 q 31 90 31 85 q 27 97 29 93 q 24 104 25 101 q 29 121 25 111 q 26 151 29 139 q 19 179 24 164 q 20 201 19 190 q 21 224 21 213 q 17 260 19 242 q 14 296 15 278 q 25 349 18 318 q 35 399 32 379 q 34 419 36 407 q 35 438 32 431 q 35 458 38 447 q 26 478 32 468 q 15 498 21 489 q 6 513 8 507 q 3 531 3 518 q 6 556 4 543 q 11 579 8 568 q 14 593 14 590 q 18 651 22 625 q 7 701 14 676 q 1 714 4 708 q -6 724 -3 719 q -10 735 -10 729 q -6 749 -10 742 q 3 753 -4 753 q 1 771 6 763 q 1 786 -4 779 q 15 798 6 794 q 21 813 24 801 q 10 833 18 824 q -6 852 1 843 q -17 872 -12 861 q -18 896 -22 882 q -4 918 -15 908 q 13 939 7 928 l 13 957 q 20 965 15 963 q 26 972 25 967 q 23 994 29 979 q 21 1024 17 1010 q 36 1069 28 1044 q 49 1118 44 1093 q 52 1174 53 1146 q 58 1231 51 1203 q 65 1225 64 1229 q 73 1165 74 1200 q 72 1096 72 1129 q 70 1082 71 1089 q 69 1067 69 1075 q 82 1029 74 1047 q 85 985 83 1007 q 89 942 88 964 q 92 928 89 938 q 97 910 94 919 q 101 894 100 901 q 101 883 103 886 q 94 865 100 875 q 88 846 89 854 q 92 826 86 836 q 104 808 97 817 q 116 792 111 800 q 119 778 121 783 q 103 749 115 763 q 89 718 92 736 q 94 703 89 708 q 101 692 100 697 q 103 680 106 685 q 100 668 100 675 q 105 626 99 649 q 114 588 111 603 q 123 565 117 576 q 124 543 129 553 q 117 535 121 539 q 111 528 114 531 q 106 507 108 521 q 89 497 100 503 q 89 486 86 492 q 97 474 92 481 q 106 463 101 468 q 113 453 111 457 q 114 438 114 447 l 117 438 l 117 438 m 257 231 q 216 239 235 229 q 190 267 197 249 q 191 290 186 278 q 188 308 196 301 q 176 318 185 314 l 172 318 q 163 303 165 310 q 159 289 160 296 q 157 275 158 282 q 151 261 156 268 q 144 257 147 258 q 138 253 140 256 q 131 246 132 250 q 125 236 129 242 q 111 228 122 233 q 94 221 100 224 q 103 199 96 210 q 113 179 110 189 q 111 167 114 172 q 104 155 108 161 q 98 142 100 149 q 99 128 96 136 q 109 106 103 113 q 124 97 115 100 q 143 92 132 93 q 171 88 154 92 q 187 78 181 83 q 206 74 193 74 q 218 88 210 82 q 235 100 226 94 q 251 111 243 106 q 264 125 260 117 q 265 144 271 136 q 258 163 260 153 q 267 178 263 171 q 275 193 271 186 q 265 213 269 203 q 257 231 261 222 z "},"c":{"ha":279,"x_min":-11,"x_max":274,"o":"m 272 171 q 273 172 272 172 q 274 174 274 172 q 269 136 272 154 q 263 99 265 118 q 264 89 264 93 q 265 79 264 85 q 263 61 263 69 q 260 43 263 53 q 243 33 253 39 q 223 21 233 28 q 203 6 213 14 q 192 -10 194 -1 q 147 -18 168 -11 q 104 -21 126 -25 q 90 -4 97 -11 q 75 11 82 3 q 60 35 67 22 q 44 60 53 49 q 38 68 42 64 q 29 76 33 72 q 20 101 25 89 q 11 125 15 114 q 0 139 7 132 q -10 154 -7 146 q -9 174 -11 163 q -3 196 -7 185 q 6 217 1 207 q 13 235 10 228 q 10 251 10 246 q 8 286 8 272 q 13 318 8 300 q 28 347 17 333 q 46 374 39 360 q 52 389 49 381 q 58 406 56 397 q 87 439 69 425 q 122 463 104 453 q 142 456 135 463 q 158 443 150 449 q 183 431 171 435 q 207 418 196 428 q 228 390 221 407 q 242 357 235 372 q 245 343 243 353 q 249 323 247 333 q 250 303 250 313 q 249 289 250 293 q 225 267 239 272 q 203 251 211 263 q 196 235 201 246 q 182 230 192 232 q 167 225 172 228 q 156 239 158 232 q 151 253 153 246 q 144 266 149 260 q 131 278 140 272 q 134 255 131 269 q 131 233 138 240 q 117 226 126 228 q 101 224 108 225 q 103 206 99 215 q 104 188 107 196 q 101 172 103 182 q 98 150 100 161 q 94 129 96 139 q 88 114 92 119 q 81 110 85 111 q 75 106 78 108 q 81 79 71 90 q 92 53 90 68 q 108 53 100 51 q 122 57 115 54 q 129 42 125 50 q 138 28 133 35 q 161 28 147 28 q 189 32 175 29 q 215 40 203 35 q 233 53 226 44 q 240 68 235 54 q 249 99 244 82 q 258 130 254 115 q 258 147 261 144 q 265 158 261 151 q 272 171 269 165 z "},"d":{"ha":446,"x_min":10,"x_max":458,"o":"m 397 989 q 403 964 394 974 q 411 943 413 954 q 406 918 410 929 q 401 892 401 907 q 422 872 419 881 q 418 855 424 864 q 406 835 413 846 q 401 813 400 825 q 407 804 401 807 q 415 799 413 801 q 417 778 421 789 q 415 760 413 767 q 422 748 415 753 q 432 738 428 743 q 413 707 422 721 q 413 686 410 700 q 401 669 410 675 q 382 657 392 664 q 394 603 382 625 q 415 553 407 581 l 415 510 q 428 479 424 494 q 428 465 431 472 q 423 451 426 457 q 417 439 419 444 q 419 429 415 433 q 434 420 425 424 q 451 414 443 417 q 446 367 458 386 q 439 358 443 361 q 435 349 435 356 q 440 315 435 331 q 430 290 438 307 q 419 261 422 272 q 421 252 421 257 q 422 242 421 247 q 424 229 424 238 q 424 211 424 221 q 424 192 424 201 q 422 179 424 183 q 415 163 421 168 q 407 151 410 158 q 413 135 410 146 q 413 125 413 131 q 411 114 413 119 q 422 76 415 94 q 431 36 428 58 q 427 14 432 24 q 421 -4 422 4 q 424 -24 422 -15 q 428 -43 426 -33 q 430 -81 433 -60 q 428 -121 426 -101 q 425 -97 425 -110 q 421 -71 425 -85 q 410 -47 418 -58 q 396 -25 403 -36 q 393 -9 394 -18 q 390 7 392 0 q 346 96 367 51 q 317 86 333 92 q 285 74 301 81 q 256 60 269 68 q 233 44 242 53 q 215 12 222 33 q 190 -22 207 -10 q 183 -24 186 -25 q 172 -24 179 -24 q 159 -10 164 -18 q 146 3 154 -1 q 107 16 131 13 q 72 31 83 19 q 42 73 56 47 q 20 127 28 99 q 11 183 13 156 q 17 235 10 211 q 19 267 22 251 q 28 297 15 282 q 38 302 32 300 q 49 307 43 304 q 79 338 68 319 q 110 369 90 357 q 142 383 125 378 q 175 394 160 388 q 208 410 190 401 q 242 426 226 418 q 257 440 247 431 q 280 444 267 444 q 306 440 293 443 q 330 432 319 438 q 343 422 340 426 q 346 424 344 424 l 346 426 q 349 431 349 428 q 325 454 335 442 q 324 469 319 461 q 331 485 329 476 q 329 498 333 493 q 324 510 325 503 q 325 526 321 518 q 329 543 329 535 q 326 559 328 550 q 321 575 324 568 q 322 598 317 588 q 331 617 328 608 q 321 663 326 643 q 322 672 319 668 q 325 678 324 675 q 325 709 325 694 q 324 739 325 724 q 330 756 325 747 q 335 772 335 764 q 322 788 325 776 q 321 815 319 800 q 324 843 322 829 q 328 864 326 857 q 337 902 332 881 q 349 943 342 924 q 349 968 349 956 q 351 996 350 981 q 361 1038 357 1015 q 369 1076 365 1061 q 369 1152 376 1111 q 367 1229 363 1193 q 373 1228 369 1228 q 379 1226 376 1228 q 381 1197 385 1210 q 385 1164 378 1183 q 402 1074 396 1121 q 397 989 408 1028 m 346 204 q 347 210 349 208 q 343 214 344 211 q 341 230 340 221 q 336 246 342 239 q 323 256 333 250 q 299 266 313 261 q 274 276 286 271 q 254 282 261 281 q 266 269 261 275 q 278 257 271 264 q 268 238 276 250 q 253 221 260 225 q 230 220 240 214 q 207 228 219 226 q 175 226 192 231 q 149 218 158 221 q 140 189 144 203 q 135 162 136 175 q 136 135 133 149 q 151 110 139 122 q 186 112 169 111 q 222 114 203 113 q 228 102 225 107 q 233 90 231 97 l 236 90 q 252 92 244 92 q 268 93 260 93 q 284 106 274 101 q 306 116 294 111 q 327 126 317 121 q 343 139 338 131 q 342 149 344 144 q 338 156 340 153 q 331 163 335 160 q 328 172 328 167 q 337 186 331 178 q 346 204 343 194 z "},"e":{"ha":326,"x_min":-3,"x_max":493,"o":"m 0 190 q 1 201 -3 197 q 4 210 4 206 l 0 251 q 8 273 4 263 q 15 294 11 283 q 35 347 24 319 q 63 402 47 375 q 97 452 79 429 q 133 490 114 475 q 173 469 150 488 q 217 427 196 451 q 256 377 239 403 q 279 332 272 351 q 278 318 282 325 q 274 307 275 311 q 274 286 271 297 q 279 269 276 275 q 264 249 272 258 q 270 238 263 242 q 281 229 278 233 q 285 209 283 224 q 285 188 286 194 q 275 178 279 183 q 263 171 271 172 l 247 171 q 241 164 244 168 q 233 156 238 160 l 204 156 q 190 144 197 153 q 177 126 183 136 q 165 108 171 117 q 151 96 158 100 q 140 94 144 94 q 129 93 135 94 q 129 74 129 86 q 132 58 129 63 l 140 50 q 142 31 142 40 q 143 14 142 22 q 148 3 144 11 q 156 -12 151 -4 q 163 -28 160 -21 q 169 -36 167 -35 q 183 -40 174 -40 q 199 -43 192 -40 q 207 -56 207 -49 q 205 -72 207 -64 q 202 -87 203 -79 q 207 -103 201 -96 q 232 -129 215 -114 q 264 -147 249 -144 l 283 -147 q 292 -155 288 -151 q 301 -161 297 -158 q 335 -165 318 -171 q 364 -151 351 -158 q 385 -137 374 -144 q 399 -118 397 -129 q 418 -115 407 -119 q 442 -106 429 -111 q 469 -95 456 -100 q 493 -89 482 -90 l 492 -90 q 478 -96 485 -96 q 464 -99 472 -96 q 453 -107 458 -103 q 443 -114 449 -111 q 433 -118 438 -117 q 424 -122 429 -119 q 416 -131 418 -125 q 411 -143 414 -137 q 379 -168 393 -157 q 367 -178 372 -174 q 357 -186 361 -182 q 347 -194 351 -192 q 332 -196 343 -197 q 315 -193 321 -194 q 297 -192 308 -190 q 276 -190 285 -194 q 249 -175 261 -185 q 224 -158 236 -165 q 202 -156 213 -153 q 185 -153 192 -160 q 179 -146 181 -150 q 175 -139 178 -142 q 163 -127 169 -132 q 150 -115 156 -122 q 144 -100 147 -107 l 132 -92 q 124 -76 128 -83 q 117 -60 121 -68 q 94 -34 106 -47 q 72 -7 83 -21 q 61 -2 68 -4 q 51 6 54 0 q 51 17 51 11 q 50 29 50 22 q 44 40 47 35 q 38 49 40 44 q 39 60 39 56 q 40 71 39 65 q 37 92 38 82 q 33 113 36 101 q 17 152 28 133 q 0 190 7 171 m 125 294 q 97 233 106 271 q 93 158 89 194 q 92 133 94 147 q 96 113 89 118 q 104 113 99 114 q 114 113 110 113 q 130 129 119 126 q 147 140 140 132 q 154 153 149 142 q 165 176 160 164 q 174 201 169 189 q 178 217 178 213 q 165 239 171 228 q 153 261 160 250 q 146 278 149 268 q 136 292 143 288 q 131 293 133 293 q 125 294 128 293 z "},"z":{"ha":369,"x_min":-10,"x_max":729,"o":"m 653 -225 q 691 -220 669 -222 q 729 -225 713 -218 q 728 -231 729 -228 q 728 -236 728 -233 q 647 -251 688 -247 q 558 -244 607 -256 q 533 -246 544 -242 q 511 -246 521 -250 q 476 -221 492 -236 q 440 -197 461 -206 q 426 -194 433 -196 q 413 -192 419 -193 q 393 -181 404 -187 q 375 -171 382 -175 q 361 -168 369 -171 q 344 -147 353 -161 q 329 -124 336 -132 q 316 -115 324 -117 q 303 -107 308 -114 q 289 -91 296 -100 q 274 -76 282 -82 q 260 -72 267 -72 q 249 -68 254 -71 q 240 -62 244 -65 q 231 -56 236 -58 q 215 -53 224 -54 q 199 -51 207 -51 q 154 -42 178 -44 q 110 -35 131 -39 q 94 -35 101 -35 q 78 -37 86 -36 q 71 -33 75 -36 q 61 -32 67 -31 q 28 -48 43 -35 q -7 -60 13 -61 q -7 -42 -10 -53 q 0 -18 -4 -31 q 9 7 4 -6 q 17 28 14 19 q 19 45 18 36 q 19 63 19 54 q 24 73 22 68 q 29 85 26 78 q 31 95 31 90 q 32 106 31 100 q 49 142 39 124 q 68 179 60 160 q 74 196 71 188 q 79 213 76 204 q 94 239 86 226 q 108 264 101 251 q 121 291 115 276 q 131 325 126 306 q 83 330 111 328 q 33 328 54 332 q 24 310 29 321 q 18 289 19 300 q 20 263 17 278 q 10 240 24 249 q 6 242 7 240 q -1 335 -3 292 q 8 426 0 378 q 8 473 13 450 q 11 511 3 496 q 35 508 28 515 q 50 489 43 500 q 110 491 78 489 q 172 499 142 493 q 186 498 181 501 q 197 492 192 494 q 214 497 208 494 q 227 496 221 496 q 240 494 233 496 q 249 499 244 497 q 258 504 254 501 l 293 504 q 308 511 303 507 q 321 519 314 515 q 337 526 329 522 q 353 532 344 529 q 369 526 367 532 l 369 522 q 342 484 357 503 q 318 446 328 465 q 316 431 314 438 q 315 417 318 424 q 290 360 304 389 q 265 303 276 331 q 255 260 258 281 q 240 221 251 240 q 225 214 235 210 q 208 213 215 218 q 202 207 207 211 q 192 197 197 203 q 183 188 188 192 q 179 183 179 183 q 178 169 176 175 q 172 157 179 163 q 156 150 165 153 q 139 144 147 147 q 124 134 131 140 q 117 118 118 128 q 122 95 124 106 q 115 75 121 85 q 102 57 110 65 q 90 39 94 49 q 124 37 111 43 q 156 25 136 31 q 172 25 163 22 q 189 26 181 28 q 209 33 199 25 q 231 33 219 42 q 235 21 233 26 q 240 8 238 15 l 282 -17 q 299 -19 290 -18 q 318 -22 308 -21 q 326 -27 322 -25 q 335 -32 331 -29 q 347 -29 342 -31 q 358 -26 353 -28 l 379 -43 q 401 -49 390 -50 q 422 -56 413 -49 q 432 -68 428 -62 q 442 -81 436 -74 q 450 -85 446 -85 q 457 -90 454 -85 q 460 -117 460 -104 q 463 -143 461 -129 q 489 -156 478 -146 q 510 -178 500 -167 q 530 -201 519 -190 q 556 -214 540 -211 q 594 -222 575 -218 q 628 -229 613 -226 l 653 -225 l 653 -225 z "},"y":{"ha":347,"x_min":-157,"x_max":333,"o":"m 324 -115 q 328 -135 326 -125 q 333 -154 331 -144 q 330 -164 331 -160 q 326 -174 329 -168 q 326 -188 326 -181 q 328 -204 326 -196 q 319 -222 324 -217 q 308 -239 314 -228 l 304 -256 q 298 -265 301 -261 q 292 -275 294 -269 q 288 -285 289 -281 q 285 -297 288 -290 q 257 -337 272 -318 q 232 -378 242 -356 q 233 -396 229 -387 q 235 -412 236 -404 q 219 -420 224 -419 q 203 -425 214 -421 q 194 -431 199 -428 q 185 -437 190 -435 q 174 -440 179 -439 q 163 -442 168 -440 q 152 -454 156 -444 q 142 -468 149 -464 q 131 -470 136 -469 q 119 -472 126 -471 q 110 -480 115 -476 q 100 -487 106 -483 q 81 -492 90 -490 q 61 -496 71 -493 q 50 -503 54 -499 q 38 -511 46 -508 q 24 -494 32 -506 q 9 -488 19 -490 q -7 -483 -1 -486 q -14 -478 -10 -481 q -21 -472 -18 -475 q -35 -469 -29 -469 q -47 -464 -40 -469 l -74 -437 q -89 -432 -82 -432 q -101 -424 -96 -432 q -112 -403 -108 -412 q -124 -382 -117 -393 q -134 -367 -128 -374 q -143 -351 -140 -361 q -142 -341 -146 -344 q -142 -331 -139 -337 q -146 -322 -144 -326 q -150 -312 -147 -317 q -157 -272 -157 -296 q -157 -233 -157 -247 q -151 -215 -157 -222 q -142 -200 -144 -207 q -137 -183 -137 -193 q -133 -168 -137 -174 q -110 -153 -125 -158 q -86 -139 -96 -147 q -78 -126 -82 -132 q -71 -115 -75 -121 q -39 -88 -57 -101 q -1 -67 -21 -75 q 0 -68 -1 -67 l -1 -68 q -19 -79 -8 -72 q -40 -94 -29 -86 q -60 -110 -51 -103 q -72 -124 -69 -118 q -83 -143 -79 -135 q -94 -161 -87 -151 q -105 -170 -99 -168 q -115 -182 -111 -172 q -117 -196 -115 -192 q -126 -209 -119 -203 q -133 -221 -133 -215 q -138 -257 -137 -235 q -136 -301 -139 -279 q -127 -342 -133 -324 q -111 -368 -121 -361 q -99 -372 -104 -372 q -89 -375 -93 -372 q -85 -381 -86 -378 q -81 -386 -83 -383 q -65 -390 -74 -389 q -50 -394 -57 -392 q -34 -405 -42 -399 q -17 -412 -26 -411 q 1 -390 -6 -406 q 14 -362 7 -375 q 22 -353 15 -360 q 35 -340 28 -347 q 51 -328 43 -333 q 61 -321 58 -322 q 83 -329 72 -324 q 103 -332 94 -335 q 126 -315 114 -328 q 148 -285 138 -301 q 168 -251 158 -268 q 185 -222 178 -235 q 203 -199 193 -210 q 221 -176 214 -189 q 227 -163 224 -169 q 233 -150 231 -157 q 253 -135 240 -139 q 271 -124 265 -131 q 270 -82 267 -104 q 271 -40 274 -60 q 263 10 268 -17 q 254 64 258 36 q 232 47 240 58 q 216 24 224 36 q 201 2 208 13 q 181 -12 193 -8 q 169 -10 176 -14 q 154 1 163 -6 q 139 13 146 7 q 129 21 132 18 q 120 28 125 24 q 111 35 115 32 q 98 35 106 38 q 85 35 90 32 q 60 65 71 46 q 38 99 49 83 q 32 103 35 101 q 26 107 29 104 q 24 118 21 114 q 24 128 26 122 q 15 142 21 135 q 7 156 10 149 q 5 174 4 161 q 6 200 6 186 q 9 226 7 214 q 13 246 11 239 l 13 303 q 12 319 14 310 q 7 338 10 329 q 2 354 4 347 q 1 365 0 361 q -4 381 0 369 q -14 407 -8 393 q -26 442 -19 422 l -26 443 l -18 447 q -8 467 -10 456 q 10 486 -6 479 q 22 484 17 490 q 33 481 28 478 q 47 500 36 490 q 68 504 57 510 q 75 498 72 501 q 85 497 78 494 q 97 506 92 500 q 107 517 101 511 q 125 508 121 517 q 134 482 132 499 q 139 451 136 465 q 148 428 142 440 q 157 406 154 417 q 156 395 158 399 q 153 389 154 392 q 153 381 153 385 q 154 374 154 376 q 149 347 157 354 q 131 336 142 340 q 131 331 131 332 q 133 326 132 329 q 143 326 140 329 q 150 321 146 324 q 148 292 149 306 q 144 264 147 279 q 147 251 146 257 q 149 238 147 244 q 140 227 146 226 q 131 221 135 228 q 129 213 129 218 q 119 191 125 203 q 113 168 114 179 q 115 152 111 160 q 126 138 119 144 q 140 126 133 131 q 153 119 147 121 l 157 94 q 164 88 160 92 q 171 81 168 85 q 190 85 178 79 q 213 100 201 90 q 231 122 224 110 q 238 144 239 133 q 236 190 233 168 q 235 238 239 213 q 226 291 229 265 q 214 340 224 317 q 208 361 211 347 q 207 386 204 375 q 215 405 211 396 q 225 422 219 414 q 226 441 228 431 q 228 458 225 451 l 236 471 q 238 482 238 476 q 240 493 238 488 q 268 483 260 493 q 290 468 276 474 q 299 469 296 467 q 306 467 301 471 q 310 457 308 461 q 315 449 313 453 q 315 430 317 442 q 310 406 314 418 q 303 382 307 393 q 297 364 299 371 q 295 333 296 354 q 294 290 294 313 q 295 246 294 267 q 299 217 296 225 q 303 207 300 211 q 308 197 307 203 l 308 178 q 324 151 313 163 q 320 139 322 142 q 315 129 318 136 q 313 115 314 125 q 311 93 311 104 q 311 72 311 82 q 313 56 311 61 q 315 40 313 50 q 319 19 317 29 q 322 -1 321 8 q 324 -11 324 -10 q 320 -22 322 -15 q 317 -36 318 -28 q 317 -50 317 -43 q 318 -64 318 -57 q 321 -90 319 -76 q 324 -115 322 -103 z "},"x":{"ha":340,"x_min":-10,"x_max":338,"o":"m 324 431 q 322 397 321 410 q 322 364 324 383 q 324 350 324 360 q 321 342 324 346 q 317 336 318 339 q 315 317 317 322 q 297 306 308 313 q 274 289 285 299 q 258 267 264 279 q 260 239 253 254 q 257 233 256 236 q 261 228 258 231 q 274 211 268 222 q 285 192 281 200 q 295 176 289 185 q 304 161 301 168 q 306 146 307 154 q 307 131 306 138 q 308 105 307 119 q 310 83 310 90 q 310 81 310 82 q 311 78 311 79 q 310 60 310 68 q 309 46 310 53 q 310 36 308 39 q 311 18 310 32 q 314 -11 313 4 q 317 -50 315 -29 q 308 -71 314 -61 q 299 -90 301 -81 q 297 -110 297 -101 q 296 -131 297 -119 q 289 -156 293 -143 q 282 -181 285 -168 q 272 -222 275 -200 q 267 -264 269 -244 q 266 -285 265 -275 q 265 -306 267 -294 q 260 -333 263 -319 q 254 -360 257 -346 q 251 -382 251 -371 q 249 -401 251 -393 q 253 -328 251 -364 q 261 -251 256 -292 q 259 -240 260 -246 q 257 -229 258 -235 q 269 -173 260 -200 q 281 -117 278 -146 q 278 -101 282 -108 q 276 -85 274 -94 q 278 -69 278 -76 q 278 -51 278 -61 q 281 -39 279 -43 q 283 -29 282 -35 q 277 15 286 -11 q 263 56 268 42 q 258 84 258 68 q 253 110 258 100 q 243 120 251 113 q 224 135 235 128 q 204 149 214 143 q 192 157 194 156 q 167 138 185 142 q 163 117 164 126 q 160 93 161 107 q 149 83 153 90 q 138 71 144 75 l 138 69 q 143 54 142 61 q 142 36 144 47 q 137 34 139 35 q 132 31 135 33 q 129 7 125 21 q 128 -22 133 -7 q 121 -31 126 -25 q 130 -93 126 -58 q 131 -154 133 -128 q 126 -170 129 -165 q 124 -183 124 -175 q 140 -213 139 -192 q 139 -262 142 -235 q 142 -290 139 -271 q 150 -319 146 -308 q 157 -331 153 -326 q 164 -343 161 -335 q 165 -352 165 -347 q 165 -360 165 -357 q 169 -366 168 -362 q 172 -372 169 -369 q 178 -396 175 -382 q 183 -421 181 -410 l 182 -421 q 165 -372 178 -393 q 143 -326 151 -350 q 130 -281 136 -303 q 117 -235 124 -258 q 116 -222 114 -228 q 117 -210 118 -217 q 112 -194 115 -203 q 106 -178 108 -185 q 106 -165 104 -174 q 104 -149 107 -157 q 85 -72 97 -111 q 65 4 72 -33 q 66 28 64 15 q 67 51 68 40 q 65 86 65 69 q 63 119 64 103 q 66 129 64 126 q 69 136 68 132 q 75 157 72 143 q 79 160 78 158 q 83 163 81 161 q 90 175 85 167 q 99 193 94 183 q 106 212 103 203 q 110 225 110 221 q 101 236 108 228 q 86 251 94 244 q 69 262 78 258 q 58 260 61 265 q 51 270 56 263 q 41 287 46 278 q 32 304 36 296 q 26 317 28 313 l 26 328 q 22 335 24 332 q 19 342 21 339 q 17 360 17 350 q 15 381 17 371 q 5 432 10 408 q -10 478 0 456 q -8 489 -8 483 q -6 500 -7 494 q 1 503 -4 501 q 14 508 7 506 q 27 513 21 511 q 36 517 33 515 q 44 526 40 519 q 51 535 47 532 q 58 536 54 536 q 67 539 63 536 q 72 547 69 542 q 78 556 75 553 q 92 550 86 560 q 103 526 99 540 q 112 497 108 513 q 118 475 115 482 q 127 465 121 468 q 136 451 133 463 l 128 422 q 129 412 126 415 q 133 404 132 408 q 138 380 136 394 q 144 357 139 365 q 159 342 151 350 q 175 328 167 335 l 176 328 q 183 339 178 336 q 192 345 188 342 q 200 353 196 349 q 207 368 204 357 q 213 421 211 389 q 215 485 214 453 q 220 544 217 517 q 232 582 224 571 q 256 568 250 582 q 272 544 261 554 q 289 542 279 539 q 306 543 299 546 q 309 539 308 540 q 313 535 310 538 q 310 522 311 528 q 308 508 310 515 q 314 497 313 503 q 324 497 319 494 q 331 493 328 500 q 332 460 338 476 q 324 431 326 443 z "},"f":{"ha":406,"x_min":-81,"x_max":497,"o":"m 138 786 q 136 792 136 789 q 135 799 136 796 q 144 815 138 806 q 154 833 151 824 q 165 888 163 860 q 175 942 167 917 q 190 972 182 957 q 204 1001 197 986 l 204 1029 q 213 1082 211 1054 q 222 1139 215 1110 q 222 1148 222 1143 q 224 1158 222 1153 q 231 1116 228 1136 q 242 1078 235 1096 q 239 1051 239 1065 q 239 1025 239 1038 q 245 1013 242 1018 q 251 1003 249 1007 q 264 963 263 985 q 276 921 265 940 q 303 881 288 900 q 335 839 319 861 q 351 826 340 832 q 367 813 363 821 q 370 799 372 806 q 371 783 368 792 q 378 759 374 772 q 386 739 382 746 l 386 699 q 392 676 388 686 q 396 651 397 667 q 392 640 396 647 q 383 624 388 632 q 374 608 379 615 q 368 596 369 600 q 362 572 364 586 q 349 554 360 558 q 345 586 344 568 q 349 621 346 604 q 351 632 351 626 q 353 644 351 638 q 343 656 350 649 q 332 667 336 663 q 318 692 325 674 q 310 717 311 710 q 289 719 294 722 q 252 712 268 713 q 218 722 236 711 l 218 743 q 217 744 218 744 q 204 733 213 742 q 206 715 201 725 q 219 696 211 706 q 233 677 226 686 q 243 663 240 668 q 228 647 238 651 q 213 636 218 643 q 210 620 214 628 q 201 606 207 613 q 190 592 196 599 q 181 578 183 585 q 184 558 178 567 q 193 540 190 550 q 214 539 206 540 q 228 535 222 538 q 242 531 235 533 q 260 528 249 528 q 278 530 269 528 q 296 534 288 532 q 313 535 304 536 q 329 528 321 535 q 415 535 368 542 q 497 522 461 528 l 497 519 q 497 515 497 517 q 496 511 496 514 q 433 509 468 504 q 368 508 397 514 q 356 503 363 506 q 343 497 350 500 q 318 495 332 493 q 289 493 304 497 q 282 488 286 492 q 275 483 278 485 l 243 483 q 232 477 236 482 q 222 469 228 472 q 207 468 215 467 q 193 469 199 469 q 190 438 190 454 q 188 407 189 422 q 189 399 185 403 q 193 393 193 396 q 180 376 190 382 q 164 364 169 371 q 163 354 164 358 q 160 346 161 350 q 176 324 171 335 q 190 303 182 313 q 203 292 194 297 q 222 282 213 288 q 240 272 232 276 q 253 261 249 267 q 253 241 260 250 q 250 221 247 232 q 254 201 251 214 q 259 176 257 189 q 262 151 261 163 q 260 131 263 139 q 249 119 257 124 q 238 108 242 115 q 242 60 242 89 q 251 15 242 32 q 264 -7 256 4 q 265 -29 272 -18 q 242 -47 249 -36 q 235 -72 236 -58 q 236 -101 235 -86 q 238 -129 238 -115 q 242 -139 238 -135 q 246 -151 247 -143 q 233 -186 239 -171 q 224 -221 226 -201 q 231 -257 224 -239 q 242 -287 239 -275 q 234 -306 242 -299 q 226 -324 226 -314 q 229 -343 226 -331 q 233 -362 232 -356 q 233 -418 236 -392 q 226 -475 231 -444 q 229 -487 226 -481 q 233 -499 232 -493 l 233 -567 q 229 -565 232 -567 l 229 -564 q 225 -536 222 -553 q 222 -508 228 -519 q 203 -452 207 -483 q 200 -387 200 -421 q 200 -320 200 -354 q 193 -257 200 -286 l 193 -237 q 188 -223 192 -233 q 181 -201 185 -212 q 175 -181 178 -190 q 175 -168 172 -171 q 169 -164 174 -165 q 164 -160 165 -162 l 164 -133 q 160 -92 158 -115 q 165 -50 161 -69 q 166 -11 169 -31 q 157 31 163 8 q 158 38 156 36 q 164 42 161 39 q 163 53 164 42 q 163 76 163 64 q 162 100 163 89 q 161 111 161 111 q 135 185 150 151 q 99 253 119 219 q 92 293 96 272 q 83 333 88 314 q 76 348 81 342 q 68 361 71 354 q 69 370 67 364 q 73 385 71 376 q 78 401 75 393 q 82 413 81 408 q 78 427 83 422 q 69 438 72 432 q 72 448 72 443 q 74 460 72 453 q 69 475 71 467 q 65 490 68 483 l 64 490 q 1 490 36 488 q -67 489 -33 492 q -81 497 -69 494 q -80 501 -81 500 q -79 504 -79 501 q -49 509 -61 504 q -26 517 -37 514 q 2 517 -14 519 q 33 517 18 515 q 48 522 40 517 q 64 531 56 528 q 56 546 63 540 q 50 558 49 551 q 62 579 53 568 q 74 601 71 590 q 77 623 78 611 q 82 646 76 635 q 90 657 86 651 q 99 668 94 663 q 101 683 101 675 q 106 699 100 690 q 120 714 111 708 q 132 731 129 719 q 135 758 135 746 q 138 786 136 771 z "},"g":{"ha":311,"x_min":-35,"x_max":332,"o":"m 21 89 q 4 176 6 133 q 12 259 3 218 q 38 338 21 300 q 74 410 54 375 q 88 408 83 411 q 108 392 96 403 q 132 373 119 382 q 158 357 144 364 q 185 351 172 350 l 185 353 q 174 402 176 376 q 165 456 172 428 q 163 474 164 465 q 158 493 161 483 q 165 503 158 496 q 178 519 171 511 q 194 536 186 528 q 204 549 201 544 q 225 589 217 567 q 249 631 233 611 q 285 660 264 650 q 326 683 306 671 l 331 683 q 332 682 331 683 q 310 660 325 667 q 285 642 294 653 q 276 622 281 635 q 272 601 271 608 l 272 579 q 267 569 269 574 q 261 560 264 565 q 263 545 263 553 q 264 531 263 538 q 238 503 256 514 q 210 468 219 493 q 243 471 224 474 q 246 465 244 468 q 249 458 247 461 q 240 430 246 442 q 228 406 233 418 q 220 382 224 394 q 221 353 217 369 q 225 342 222 349 q 232 326 228 335 q 240 311 236 318 q 246 301 243 304 q 263 292 253 294 q 276 281 272 289 q 278 259 282 269 q 276 233 274 249 q 277 194 278 217 q 272 151 276 172 q 260 110 268 129 q 240 81 251 92 q 244 67 242 76 q 249 47 246 57 q 253 26 251 36 q 258 13 256 17 q 267 4 263 8 q 276 -4 271 0 q 294 -38 286 -19 q 308 -76 303 -57 q 307 -90 307 -83 q 306 -103 307 -96 q 309 -133 308 -122 q 306 -168 310 -144 l 306 -203 q 293 -231 301 -217 q 281 -258 285 -246 q 270 -316 271 -286 q 257 -369 269 -346 q 254 -381 256 -372 q 251 -401 253 -390 q 248 -419 249 -411 q 247 -428 247 -428 q 226 -458 236 -444 q 204 -485 217 -472 q 199 -493 200 -487 q 196 -501 199 -499 q 186 -503 190 -504 q 175 -506 182 -503 q 161 -514 168 -508 q 149 -518 154 -519 q 134 -514 144 -519 q 114 -501 124 -508 q 96 -485 104 -493 q 88 -475 88 -478 l 89 -474 q 106 -483 94 -478 q 128 -489 117 -487 q 151 -487 140 -490 q 167 -472 163 -483 q 170 -448 174 -460 q 172 -421 167 -436 q 181 -400 176 -410 q 189 -378 186 -390 l 185 -328 q 194 -311 188 -319 q 203 -294 201 -303 q 203 -253 206 -275 q 211 -215 200 -232 q 202 -209 208 -210 q 192 -204 196 -208 q 186 -188 186 -197 q 183 -172 186 -179 q 201 -156 190 -164 q 213 -136 211 -147 q 208 -139 210 -137 q 204 -142 207 -140 q 194 -152 200 -151 q 181 -149 188 -153 q 167 -138 174 -144 q 157 -128 161 -132 q 154 -129 156 -129 q 144 -137 151 -136 q 135 -142 138 -139 q 132 -153 132 -150 q 83 -179 119 -181 q 74 -189 79 -185 q 65 -200 68 -193 q 66 -212 64 -207 q 69 -223 68 -218 q 72 -233 71 -228 q 68 -244 72 -239 q 55 -253 61 -249 q 42 -260 49 -257 l 25 -281 q 32 -308 28 -294 q 39 -332 36 -321 q 35 -342 36 -337 q 32 -353 35 -347 q 29 -373 29 -360 q 29 -390 29 -386 l 29 -392 q 32 -401 32 -394 q 35 -414 32 -408 q 54 -447 43 -433 q 79 -475 65 -461 l 79 -476 q 60 -467 67 -474 q 46 -456 54 -461 q 19 -431 26 -446 q 8 -400 11 -417 q 3 -364 6 -383 q -8 -325 0 -344 q -15 -315 -11 -319 q -21 -307 -18 -311 q -30 -275 -28 -292 q -35 -242 -32 -258 q -21 -211 -28 -224 q -18 -192 -21 -203 q -2 -175 -12 -181 q 15 -160 8 -169 q 30 -137 24 -149 q 47 -115 36 -125 q 65 -99 56 -107 q 83 -81 74 -90 q 109 -49 96 -65 q 135 -18 122 -33 q 165 -9 150 -10 q 196 -1 181 -8 q 208 5 203 1 q 221 13 214 8 q 215 35 222 28 q 181 36 196 35 q 151 39 167 38 q 131 25 146 26 q 103 31 115 24 q 84 42 93 35 q 67 53 75 50 q 60 52 64 53 q 54 51 57 51 q 33 66 42 54 q 21 89 24 78 m 68 183 q 70 153 65 171 q 84 121 75 136 q 103 94 93 106 q 119 86 113 83 q 125 85 124 86 q 138 98 135 92 q 140 111 140 104 q 140 126 140 118 q 144 144 140 133 q 152 159 147 153 q 160 178 157 165 q 179 178 169 179 q 196 179 189 178 q 206 188 203 181 q 208 213 210 194 q 202 206 201 210 q 199 199 203 201 q 171 194 183 186 q 151 211 158 201 q 124 212 128 208 q 107 225 119 215 q 92 216 97 218 q 82 212 86 214 q 75 204 78 210 q 68 183 72 199 z "},"h":{"ha":518,"x_min":0,"x_max":519,"o":"m 28 1103 q 28 1135 31 1114 q 23 1180 25 1157 q 22 1224 21 1203 q 35 1253 24 1244 q 43 1251 40 1251 q 51 1249 46 1250 q 53 1201 53 1225 q 53 1155 53 1178 q 58 1110 54 1132 q 74 1068 63 1089 q 74 1051 76 1061 q 68 1033 71 1040 q 71 1009 71 1021 q 74 986 71 997 q 71 968 71 976 q 68 949 71 960 q 81 922 72 933 q 94 899 89 911 q 98 876 97 886 q 101 856 99 867 q 111 809 107 832 q 121 763 115 786 q 119 748 122 756 q 118 731 115 740 q 135 706 124 718 q 151 679 146 693 q 153 670 156 674 q 147 663 151 667 q 140 656 143 660 q 139 647 138 653 q 148 634 143 640 q 156 621 153 628 q 157 606 156 614 q 158 590 158 597 q 162 584 161 588 q 165 576 163 581 q 151 558 163 568 q 144 538 140 549 q 158 525 147 528 q 175 517 169 522 q 176 511 175 517 q 178 499 178 506 q 181 485 179 492 q 182 476 182 478 q 165 461 171 471 q 159 440 160 451 q 159 417 158 429 q 161 397 160 406 q 175 383 167 389 q 179 385 178 385 q 203 403 186 397 q 232 417 219 408 q 244 431 239 424 q 260 442 249 438 l 260 443 q 274 447 267 446 q 286 454 281 447 q 300 476 296 464 q 329 490 304 488 q 356 472 342 483 q 376 450 369 460 q 381 431 382 439 q 388 414 379 422 q 399 408 393 411 q 411 401 404 404 q 435 362 428 383 q 461 325 442 340 q 472 319 464 321 q 482 311 479 318 q 490 286 489 300 q 497 257 492 272 q 503 245 499 253 q 510 229 507 238 q 517 214 514 221 q 518 203 519 207 q 515 192 517 200 q 510 176 513 185 q 505 159 507 167 q 501 151 503 151 q 484 144 493 149 q 465 136 475 140 q 454 113 460 125 q 442 89 449 100 q 440 75 439 82 q 444 62 442 68 q 449 49 447 56 q 450 36 451 43 q 440 6 443 21 q 433 -21 436 -8 q 434 -34 433 -28 q 435 -47 435 -40 q 417 -77 426 -61 q 397 -108 407 -93 q 387 -117 392 -112 q 376 -124 382 -121 q 370 -141 371 -132 q 370 -160 369 -150 q 372 -178 371 -169 q 371 -194 374 -186 q 364 -228 368 -211 q 354 -261 360 -246 q 358 -283 354 -268 q 354 -304 361 -297 q 352 -292 354 -297 q 347 -283 350 -287 q 346 -263 346 -274 q 346 -243 346 -253 q 339 -203 342 -225 q 333 -168 336 -182 l 333 -128 q 345 -107 336 -117 q 357 -89 354 -97 q 365 -33 372 -60 q 350 17 357 -7 q 353 36 347 28 q 360 51 360 44 q 356 66 360 57 q 349 84 353 75 q 339 101 344 93 q 329 114 333 110 q 314 125 322 119 q 303 139 306 131 q 306 146 306 142 q 310 153 307 150 q 333 187 319 179 q 376 207 347 194 q 374 228 379 221 q 360 244 368 235 q 333 242 342 242 q 306 244 325 242 q 293 224 301 228 q 274 219 285 219 q 250 219 263 218 q 225 214 238 219 q 192 192 206 204 q 158 172 178 181 q 157 139 161 149 q 142 111 153 129 q 140 99 138 106 q 145 86 142 93 q 151 72 149 79 q 151 58 154 65 q 142 47 149 51 q 132 38 136 43 q 128 20 128 32 q 131 -6 129 8 q 135 -35 133 -21 q 132 -60 136 -50 q 131 -84 129 -69 q 136 -113 133 -99 q 140 -139 139 -128 q 138 -154 142 -150 q 124 -126 131 -140 q 111 -97 118 -112 q 114 -81 108 -89 q 115 -61 119 -72 q 103 -27 110 -46 q 89 11 96 -8 q 88 65 83 35 q 89 118 92 96 q 84 138 89 128 q 82 160 79 149 q 91 176 85 167 q 94 194 97 185 q 85 215 88 208 q 92 232 83 221 q 79 241 86 239 q 65 247 72 243 q 65 257 65 253 q 64 267 64 261 q 54 271 58 269 q 44 275 50 272 q 48 302 47 289 q 51 331 49 315 q 38 345 49 338 q 24 360 26 353 q 28 376 19 367 q 40 394 36 386 q 35 417 43 408 q 42 426 35 419 q 47 439 49 432 q 40 452 43 446 q 33 464 36 458 q 38 477 29 474 q 49 485 46 481 q 55 500 51 489 q 60 524 58 511 q 63 548 63 536 q 61 564 64 560 q 39 576 54 572 q 21 593 24 581 q 26 611 26 603 q 24 628 26 619 q 21 646 22 636 q 24 669 19 656 q 33 689 29 679 q 42 710 36 699 q 19 722 31 717 q 0 736 7 728 q 7 749 3 743 q 14 761 11 754 q 14 781 17 772 q 14 800 11 790 q 23 817 19 808 q 33 832 26 825 q 31 860 36 847 q 21 886 26 874 q 19 912 18 901 q 18 935 21 922 q 7 961 11 949 q 4 981 3 969 q 10 1006 6 993 q 19 1029 14 1018 q 28 1049 24 1040 q 25 1056 25 1051 q 24 1064 25 1060 q 22 1072 22 1065 q 24 1084 22 1078 q 26 1096 25 1090 q 28 1103 26 1101 z "},"i":{"ha":131,"x_min":0,"x_max":124,"o":"m 32 629 q 51 679 47 651 q 58 738 56 707 q 56 747 57 743 q 54 757 56 751 q 57 765 56 761 q 60 775 58 769 q 73 762 69 771 q 76 741 76 753 q 74 717 75 729 q 74 694 72 704 q 80 675 76 685 q 86 657 83 665 q 90 652 88 654 q 94 647 93 650 q 96 632 96 640 q 97 617 96 624 q 104 610 99 614 q 113 603 110 606 q 110 582 113 596 q 100 575 104 579 q 90 568 96 571 q 78 542 81 554 q 56 528 75 531 q 28 565 42 539 q 17 614 14 590 q 26 619 24 617 q 32 629 28 622 m 111 472 q 110 450 113 461 q 108 428 108 439 q 112 410 108 417 q 117 398 115 404 q 115 385 118 392 q 100 369 113 379 q 99 351 101 360 q 100 333 97 342 q 107 317 103 324 q 113 306 111 311 q 110 294 114 300 q 96 279 107 289 q 98 266 97 275 q 100 254 99 257 q 106 249 103 251 q 111 244 110 247 q 110 213 110 229 q 108 182 110 197 q 115 154 111 167 q 124 125 118 142 q 110 110 115 114 q 89 101 104 106 q 83 85 86 96 q 83 64 81 75 q 88 51 86 57 q 88 39 90 46 q 83 -24 82 7 q 72 -83 83 -54 q 67 -85 69 -85 q 63 -86 65 -85 l 63 -83 q 56 -64 58 -79 q 54 -30 54 -49 q 54 6 54 -11 q 53 35 54 24 q 46 63 50 46 q 44 92 42 79 q 55 112 47 104 q 65 135 63 119 q 62 188 68 160 q 50 242 56 215 q 39 249 40 244 q 33 261 38 254 q 26 272 31 268 q 19 283 22 276 q 19 304 17 292 q 24 331 21 317 q 28 358 26 344 q 26 381 29 371 q 20 394 25 386 q 10 412 15 403 q 3 429 6 421 q 4 442 0 438 q 10 447 7 447 q 19 449 14 446 q 24 456 22 454 q 32 459 28 458 q 40 463 36 460 q 49 472 46 467 q 56 482 51 476 q 74 493 63 489 q 94 504 86 497 q 101 501 97 503 q 107 499 104 500 q 108 485 107 490 q 111 472 110 479 z "},"j":{"ha":210,"x_min":-276,"x_max":169,"o":"m 56 669 q 60 676 57 672 q 63 685 63 681 q 63 713 65 699 q 69 733 60 726 q 79 722 75 731 q 85 703 83 714 q 88 682 88 693 q 89 663 89 671 q 96 632 89 647 q 108 601 103 617 q 113 572 114 586 q 94 544 111 557 q 67 544 81 538 q 46 561 54 550 q 35 583 38 572 q 44 599 33 594 q 49 623 44 614 q 56 643 53 632 l 56 669 l 56 669 m -49 -447 q -53 -455 -50 -450 q -58 -462 -57 -460 q -58 -468 -58 -465 q -57 -474 -57 -471 q -62 -497 -58 -485 q -75 -512 -67 -508 q -106 -491 -90 -504 q -133 -465 -122 -478 q -137 -460 -136 -462 q -140 -454 -137 -457 q -178 -438 -156 -446 q -221 -421 -200 -431 q -258 -399 -242 -411 q -276 -367 -274 -386 q -269 -353 -275 -364 q -268 -337 -264 -342 q -263 -331 -265 -335 q -258 -325 -261 -328 q -259 -312 -258 -318 q -260 -300 -260 -307 q -255 -276 -261 -290 q -246 -253 -249 -261 l -246 -232 q -226 -181 -239 -201 q -220 -176 -224 -178 q -214 -172 -217 -174 q -200 -153 -206 -164 q -185 -136 -194 -143 q -167 -127 -176 -129 q -150 -118 -157 -125 q -140 -108 -144 -114 q -129 -99 -136 -101 q -116 -95 -126 -97 q -94 -91 -106 -93 q -72 -88 -82 -89 q -61 -89 -62 -87 q -58 -94 -58 -90 q -61 -97 -58 -94 q -74 -101 -68 -100 q -86 -104 -79 -101 q -95 -113 -87 -107 q -112 -126 -103 -119 q -131 -140 -122 -133 q -144 -149 -140 -146 q -155 -153 -150 -151 q -165 -158 -160 -156 q -169 -169 -167 -161 q -176 -187 -172 -178 q -181 -203 -179 -196 q -183 -212 -183 -211 q -174 -229 -181 -224 q -167 -249 -168 -235 q -187 -273 -174 -260 q -197 -306 -201 -286 q -187 -323 -192 -314 q -179 -340 -183 -332 q -171 -326 -178 -328 q -155 -328 -164 -325 q -138 -337 -146 -332 q -126 -344 -131 -343 l -124 -344 l -90 -346 q -67 -331 -83 -343 q -44 -312 -50 -318 q -39 -304 -42 -308 q -33 -294 -36 -300 q -24 -288 -29 -292 q -12 -281 -18 -285 q -15 -256 -11 -269 q -14 -232 -18 -242 q -4 -225 -10 -231 q -1 -214 -3 -219 q 1 -203 0 -208 q 13 -196 6 -197 q 25 -187 21 -194 q 26 -176 29 -181 q 25 -160 22 -171 q 31 -140 28 -149 q 38 -121 35 -132 q 39 -112 39 -118 q 49 -92 44 -101 q 60 -72 54 -82 l 60 -36 q 63 -26 63 -31 q 67 -15 64 -21 q 60 0 64 -8 q 54 18 56 8 q 58 41 51 28 q 67 63 64 54 q 63 76 64 69 q 60 90 63 83 q 62 106 61 97 q 63 122 63 114 l 63 124 q 56 135 60 129 q 50 146 53 140 q 44 169 47 157 q 39 192 42 181 q 32 202 36 197 q 25 213 28 207 q 29 229 22 224 q 33 244 36 235 q 30 249 31 247 q 26 253 29 250 q 26 265 26 260 q 25 278 26 271 q 22 285 24 282 q 18 293 21 289 l 17 294 q 23 310 15 304 q 33 322 31 315 q 35 339 35 331 q 36 356 35 347 q 28 397 32 376 q 21 438 24 418 q 14 449 18 444 q 11 457 10 454 q 35 472 28 465 q 68 482 43 479 q 83 501 71 494 q 106 514 96 507 q 118 508 113 514 q 113 468 118 489 q 101 426 107 447 q 98 394 96 407 q 97 363 100 382 q 90 314 94 339 q 93 265 86 289 q 89 241 97 250 q 85 219 81 232 q 101 194 90 204 q 114 164 111 183 q 106 153 107 158 q 108 144 106 149 q 115 133 111 139 q 119 122 119 128 q 125 98 119 111 q 138 71 131 85 q 153 44 144 57 q 169 24 163 32 q 163 8 168 13 q 153 -3 158 4 l 124 -69 l 124 -93 q 117 -102 122 -99 q 110 -110 113 -106 q 99 -135 103 -122 q 89 -162 94 -149 q 81 -192 85 -178 q 75 -219 78 -207 q 76 -231 76 -226 q 76 -243 76 -236 q 60 -260 74 -254 q 39 -278 46 -267 q 31 -293 35 -285 q 21 -310 26 -301 q 18 -327 18 -318 q 13 -343 18 -336 q -5 -364 6 -354 q -22 -385 -15 -374 q -28 -397 -25 -392 q -33 -410 -31 -403 q -41 -419 -36 -415 q -49 -431 -46 -424 l -49 -447 z "},"k":{"ha":300,"x_min":-10,"x_max":300,"o":"m -8 232 q -4 245 -10 239 q 0 258 1 251 q -4 269 -1 265 q -7 282 -7 272 q 11 306 6 289 q 17 344 17 324 q 16 387 18 365 q 13 422 14 408 q 17 443 11 435 q 26 461 24 451 q 25 475 28 468 q 19 488 22 482 q 13 501 15 494 q 11 514 10 507 q 18 533 14 522 q 15 556 22 544 q 4 569 11 563 q -6 586 -3 575 q -6 599 -8 594 q -6 611 -3 604 q -8 617 -6 613 q -7 626 -10 622 q 6 645 -3 638 q 21 663 15 653 l 21 679 q 26 689 24 685 q 32 699 29 693 q 28 709 29 704 q 25 721 28 714 q 22 760 22 743 q 21 799 21 778 q 33 822 28 810 q 46 847 39 835 q 43 869 49 858 q 35 888 38 879 q 33 919 32 899 q 36 951 33 940 q 33 971 33 961 q 29 992 32 981 q 35 1020 32 1006 q 42 1050 39 1035 q 42 1090 44 1071 q 46 1126 39 1110 q 46 1149 49 1135 q 50 1169 43 1164 q 58 1174 51 1174 q 67 1168 63 1169 q 65 1140 65 1158 q 65 1103 65 1122 q 67 1065 65 1083 q 71 1036 68 1046 q 70 1024 72 1032 q 65 1010 68 1017 q 59 996 61 1003 q 57 985 57 989 l 65 943 q 65 920 67 932 q 65 897 64 908 q 72 868 68 882 q 76 838 76 854 q 71 824 74 829 q 68 797 69 810 q 64 772 67 785 q 63 758 63 767 q 65 740 64 749 q 68 723 67 731 q 71 713 69 715 q 79 701 76 704 q 76 666 81 685 q 67 628 71 647 q 71 574 63 600 q 83 528 79 547 q 80 501 86 510 q 71 478 74 493 q 69 428 65 453 q 79 386 74 403 q 82 364 82 378 q 89 344 82 350 l 90 344 q 93 343 90 344 q 115 366 104 354 q 142 382 126 378 q 160 387 150 385 q 178 393 169 389 q 193 403 185 396 q 201 417 201 410 q 204 429 201 424 q 228 446 214 442 q 228 454 228 447 q 229 469 229 461 q 229 485 229 478 q 229 496 229 493 q 224 510 226 503 q 219 524 222 517 q 228 546 222 536 q 239 567 235 556 q 247 610 246 585 q 250 654 247 636 q 248 674 249 665 q 246 693 247 683 q 247 706 246 697 q 249 725 247 715 q 252 742 250 735 q 257 751 254 749 l 258 751 q 271 718 264 735 q 282 685 278 701 q 284 652 286 669 q 283 619 282 635 l 279 603 q 278 589 278 596 q 278 575 278 582 q 271 536 275 556 q 271 497 267 517 q 279 481 274 486 q 290 469 285 476 q 295 454 293 467 q 300 438 297 442 q 283 422 294 422 q 263 413 272 421 q 256 399 256 408 q 251 382 256 389 q 240 369 247 375 q 225 355 232 363 q 213 340 218 347 q 210 322 208 332 q 226 313 221 319 q 239 299 232 306 q 256 289 250 293 q 275 267 267 282 q 289 238 283 253 q 285 222 292 228 q 276 210 279 215 q 276 195 275 206 q 278 173 276 185 q 281 151 279 161 q 283 139 282 140 q 278 107 276 126 q 274 83 279 94 q 261 64 268 72 l 261 42 q 257 37 258 39 q 253 32 256 35 q 252 17 253 25 q 251 3 251 10 q 247 -3 250 0 q 244 -12 243 -7 q 246 -47 247 -28 q 242 -76 244 -65 q 243 -91 243 -83 q 244 -107 243 -99 q 239 -147 240 -126 q 235 -187 238 -168 q 219 -244 232 -218 q 199 -296 206 -271 q 194 -329 192 -315 q 190 -361 196 -343 q 174 -401 183 -382 q 157 -440 164 -421 q 152 -462 154 -450 q 143 -482 150 -475 q 147 -461 143 -469 q 153 -443 150 -453 q 153 -424 156 -435 q 157 -403 151 -414 q 160 -400 157 -400 q 164 -397 163 -400 q 168 -380 167 -394 q 171 -362 169 -365 q 174 -329 172 -346 q 178 -296 175 -312 q 185 -274 181 -285 q 193 -253 189 -264 q 191 -246 192 -250 q 189 -239 190 -242 q 190 -227 189 -232 q 190 -217 190 -222 q 190 -202 190 -210 q 188 -187 189 -194 q 194 -173 190 -181 q 200 -158 197 -165 q 200 -128 206 -143 q 192 -100 194 -112 q 194 -81 190 -93 q 201 -62 199 -69 q 200 -33 206 -44 q 194 -6 194 -21 q 206 7 197 -1 q 203 31 201 19 q 201 56 206 42 q 197 65 200 60 q 190 74 193 71 q 188 92 186 82 q 194 110 189 101 q 205 126 199 119 q 215 135 211 133 q 213 158 214 146 q 210 181 213 169 q 204 182 206 181 l 203 182 q 206 164 206 171 q 199 149 206 157 q 175 154 183 147 q 162 171 167 161 q 153 192 157 181 q 142 211 149 203 q 133 214 138 213 q 124 217 128 215 q 116 225 119 219 q 108 233 113 231 q 82 240 97 240 q 53 239 67 239 q 51 206 50 219 q 51 174 53 192 l 56 144 q 50 135 53 138 l 50 110 q 44 99 47 104 q 40 88 42 94 q 42 67 42 76 q 43 46 42 57 q 38 38 42 40 q 33 29 35 36 q 38 0 39 14 q 39 -29 36 -14 q 43 -106 46 -68 q 42 -190 40 -143 l 39 -190 q 36 -174 39 -179 q 31 -162 33 -169 q 30 -127 26 -149 q 29 -90 33 -106 q 22 -56 25 -74 q 17 -19 19 -37 q 18 -4 18 -12 q 19 11 18 4 q 13 35 17 22 q 7 57 10 47 q 9 65 7 63 q 13 71 11 68 q 13 85 15 79 q 8 94 11 92 q 10 122 10 108 q 11 149 11 135 q 1 190 7 171 q -8 232 -6 210 z "},"l":{"ha":172,"x_min":-7,"x_max":154,"o":"m 60 93 q 63 115 65 103 q 56 140 60 128 q 51 165 51 153 q 63 189 51 178 q 50 209 56 196 q 53 235 44 222 q 42 251 46 243 q 32 267 39 258 q 35 278 35 274 q 38 290 35 283 q 36 301 40 297 q 31 308 32 304 q 31 319 29 313 q 33 332 32 325 q 36 345 35 339 q 38 354 38 351 q 23 379 31 367 q 7 406 15 392 q 18 436 10 418 q 32 465 26 454 q 31 483 31 475 q 28 500 31 492 q 36 508 31 506 q 44 519 42 511 q 31 520 35 519 q 22 526 26 521 q 24 546 22 536 q 25 565 25 556 q 21 574 24 567 q 15 589 18 581 q 8 603 11 597 q 6 613 6 610 q 18 628 13 621 q 31 644 24 636 q 19 672 33 660 q 0 696 6 685 q -1 722 -7 710 q 0 746 4 733 q 1 771 -4 758 q 12 794 6 783 q 22 816 18 806 q 22 833 26 826 q 10 844 17 839 q -4 854 3 849 l 25 888 q 24 894 25 890 q 22 900 22 897 q 28 921 25 911 q 32 942 31 931 q 29 960 31 951 q 25 981 28 969 q 34 1049 36 1013 q 32 1125 32 1086 q 40 1128 35 1125 q 57 1125 49 1125 q 67 1084 68 1106 q 76 1038 67 1063 q 92 1008 85 1022 q 107 978 100 993 q 117 966 111 972 q 130 953 124 960 q 140 939 136 946 q 139 926 143 932 q 128 919 135 922 q 117 914 122 917 q 118 881 117 897 q 119 847 119 864 q 138 802 132 825 q 142 751 144 779 q 130 749 135 750 q 119 746 125 747 q 114 731 117 739 q 110 717 111 724 q 119 706 111 710 q 132 696 128 701 q 126 679 126 685 q 133 670 126 672 q 144 664 140 668 q 149 651 150 658 q 151 639 149 644 q 150 627 154 632 q 140 618 146 622 q 128 610 133 614 q 126 601 124 607 q 139 586 129 596 q 135 573 143 579 q 132 560 128 567 q 139 549 135 554 q 146 539 143 544 q 138 520 149 529 q 124 504 128 511 q 125 499 124 501 q 126 493 126 496 q 128 481 128 490 q 129 460 129 471 q 129 441 129 450 q 129 432 129 432 q 117 418 122 426 q 120 405 119 411 q 124 392 121 399 q 118 378 121 385 q 111 364 115 371 q 113 335 111 349 q 114 307 114 322 q 104 292 111 299 q 94 279 97 286 q 99 266 97 272 q 104 254 101 260 q 108 222 111 239 q 111 193 106 206 q 112 185 114 189 q 110 178 110 181 q 110 115 111 142 q 104 56 110 89 q 113 35 108 44 q 121 15 118 25 q 111 -7 118 3 q 113 -23 110 -14 q 119 -37 117 -32 q 119 -67 125 -51 q 111 -94 114 -82 q 110 -132 108 -114 q 111 -168 111 -150 q 108 -203 111 -186 q 92 -236 104 -221 l 89 -236 q 88 -235 88 -236 q 81 -201 83 -218 q 75 -168 78 -185 q 72 -128 71 -154 q 76 -90 74 -103 q 76 -72 81 -79 q 69 -58 72 -65 q 69 -34 67 -47 q 75 -11 72 -21 q 74 17 79 4 q 64 43 69 31 q 56 68 58 56 q 60 93 53 81 z "},"m":{"ha":460,"x_min":-21,"x_max":469,"o":"m 314 -210 q 311 -147 306 -178 q 324 -83 317 -115 q 320 -47 321 -64 q 318 -10 319 -29 q 335 9 326 0 q 353 28 343 18 q 349 39 351 33 q 343 51 346 44 q 356 67 347 58 q 358 90 364 76 q 347 108 356 99 q 340 126 338 117 q 351 140 343 138 q 361 149 358 142 q 367 173 365 157 q 366 205 368 189 q 358 232 364 221 q 343 240 353 243 q 333 233 340 240 q 316 218 325 226 q 298 201 307 210 q 285 189 289 193 q 274 138 283 163 q 258 93 265 114 q 253 72 256 86 q 254 51 251 58 q 244 3 247 31 q 238 -46 242 -24 q 235 -74 235 -57 q 234 -109 235 -92 q 232 -141 233 -126 q 226 -161 231 -156 q 224 -100 226 -125 q 218 -43 221 -75 q 219 -16 215 -29 q 221 14 224 -3 q 219 41 218 28 q 224 63 221 54 l 219 83 q 222 102 221 92 q 219 119 222 113 q 213 126 214 122 q 208 135 211 131 q 202 150 201 143 q 207 163 203 157 q 217 175 211 169 q 225 186 222 181 q 226 204 225 199 q 214 213 222 208 q 198 224 206 218 q 187 239 190 231 q 189 258 183 247 q 207 269 196 268 q 221 283 218 269 l 211 283 q 192 276 199 276 q 180 278 185 275 q 170 288 175 282 q 158 301 165 294 q 147 291 156 300 q 128 272 138 282 q 111 252 119 261 q 103 240 103 243 q 101 217 100 229 q 103 195 101 206 q 104 176 104 185 q 100 161 104 167 q 83 158 89 158 q 83 147 85 153 q 83 138 82 140 q 94 122 94 133 q 93 108 89 117 q 94 93 97 100 q 89 89 92 92 q 86 53 82 76 q 86 15 90 31 q 83 15 85 15 q 81 14 82 14 q 78 -6 81 1 q 74 -24 76 -14 q 75 -35 75 -31 q 75 -46 75 -40 q 72 -78 74 -62 q 69 -111 71 -94 q 69 -139 67 -122 q 69 -165 72 -156 q 65 -176 68 -169 q 61 -186 61 -183 q 64 -196 63 -192 q 65 -207 65 -201 q 65 -246 65 -226 q 64 -285 64 -265 l 63 -285 q 59 -203 61 -240 q 50 -126 57 -167 q 50 -105 47 -115 q 47 -83 53 -94 q 49 -44 50 -64 q 43 -8 47 -25 q 45 1 44 -3 q 46 11 46 6 q 39 20 43 15 q 32 31 35 25 q 32 48 29 36 q 37 72 35 60 q 39 92 39 83 q 32 104 39 101 q 22 131 26 115 q 18 164 18 147 q 21 179 18 168 q 15 190 19 186 q 7 199 10 193 q 5 215 4 206 q 3 231 6 224 q -5 239 0 235 q -12 249 -10 243 q -11 260 -12 256 q -4 268 -10 264 q 7 276 1 272 q 17 283 13 279 q 21 293 21 288 q 22 302 22 297 q 24 311 22 307 q 12 319 14 314 q 3 328 10 325 l -6 328 q -20 354 -19 335 q -15 397 -21 374 q 0 440 -8 419 q 13 471 8 461 q 12 491 17 483 q 18 510 7 499 q 26 509 22 510 q 33 508 29 508 q 51 478 38 488 q 74 488 63 481 q 100 486 85 494 q 103 464 103 476 q 111 444 104 451 q 128 456 117 446 q 153 477 140 465 q 175 500 165 489 q 188 517 185 511 q 189 533 190 524 q 192 550 188 543 q 197 551 194 550 q 206 506 206 528 q 218 461 207 483 q 226 453 222 457 q 236 444 231 449 q 257 411 247 426 q 278 381 267 396 q 287 385 283 383 q 294 392 290 386 q 302 415 292 406 q 317 435 313 424 q 322 457 324 447 q 324 479 321 467 q 331 500 328 490 q 339 521 335 510 q 345 550 344 536 q 350 576 346 564 q 357 575 353 575 q 361 538 363 557 q 367 504 360 519 q 376 492 371 500 q 392 454 386 472 q 408 418 397 436 q 424 398 415 407 q 439 376 432 389 q 456 312 453 346 q 469 244 460 278 q 456 204 461 222 q 445 174 450 189 q 439 156 440 158 q 441 138 440 147 q 443 121 442 129 q 432 87 436 104 q 422 54 428 69 q 420 43 421 49 q 418 32 419 38 q 402 13 413 21 q 385 -4 392 6 q 381 -17 382 -11 q 378 -31 381 -24 q 365 -43 374 -37 q 353 -56 357 -49 q 351 -76 347 -64 q 350 -99 354 -87 q 343 -124 346 -111 q 338 -151 340 -136 q 339 -166 339 -158 q 340 -181 339 -174 q 334 -224 336 -204 q 329 -268 332 -244 l 329 -340 l 328 -340 q 323 -299 328 -321 q 314 -261 318 -276 q 314 -235 311 -247 q 314 -210 317 -224 z "},"n":{"ha":388,"x_min":-15,"x_max":390,"o":"m 296 -117 q 292 -129 293 -124 q 289 -142 292 -135 q 283 -153 286 -147 q 275 -162 279 -158 l 275 -175 q 257 -194 268 -186 q 239 -214 246 -203 q 198 -265 217 -242 q 154 -312 179 -289 q 140 -331 146 -321 q 125 -347 133 -340 q 115 -351 121 -350 q 106 -357 108 -353 q 95 -378 99 -368 q 79 -394 92 -387 q 85 -387 82 -390 q 90 -382 88 -385 q 97 -366 93 -374 q 103 -350 100 -358 q 115 -343 110 -347 q 128 -335 121 -339 q 130 -327 129 -331 q 132 -319 131 -324 q 155 -291 143 -304 q 178 -262 167 -278 q 186 -247 183 -251 q 210 -219 197 -232 q 231 -189 222 -206 q 233 -178 232 -183 q 235 -165 233 -172 q 250 -147 242 -158 q 256 -131 253 -140 q 263 -112 260 -121 q 267 -80 269 -94 q 271 -49 264 -65 q 278 -42 274 -44 q 285 -35 282 -39 q 290 -19 290 -26 q 289 -6 290 -12 q 285 8 288 1 q 281 24 282 15 q 296 38 286 33 q 313 51 306 43 q 322 85 321 63 q 318 119 324 108 q 313 122 315 121 q 307 122 310 124 q 313 133 310 128 q 318 143 315 138 q 310 158 311 150 q 308 181 308 165 q 283 183 293 181 q 267 188 274 185 q 253 196 260 192 q 236 204 246 200 l 236 265 l 229 265 q 218 282 226 271 q 217 281 217 282 q 197 265 210 265 q 171 256 183 264 q 150 230 160 243 q 131 204 140 217 q 132 174 131 189 q 135 150 133 160 q 129 133 135 140 q 121 118 124 125 q 118 94 118 107 q 114 67 118 81 q 114 47 111 56 q 120 33 117 39 q 126 19 124 26 q 128 3 129 13 q 118 -15 125 -6 q 108 -33 111 -24 q 108 -52 108 -43 q 110 -69 108 -61 q 106 -92 107 -81 q 101 -114 104 -103 q 103 -126 103 -121 q 106 -137 104 -131 q 95 -208 100 -174 q 88 -275 90 -242 l 86 -275 q 85 -219 86 -247 q 78 -162 85 -190 q 78 -116 78 -139 q 76 -69 78 -93 q 72 -52 75 -62 q 68 -35 69 -42 q 69 -24 68 -29 q 69 -15 69 -19 q 67 3 68 -6 q 65 19 67 11 q 68 29 68 28 l 60 54 q 54 92 54 71 q 50 138 54 114 q 47 156 49 143 q 47 172 44 168 q 33 213 40 190 q 21 254 26 235 l 17 283 q 8 292 14 290 q 0 303 3 294 q 4 322 -3 313 q 13 338 11 331 l 8 363 q 7 378 7 369 q 6 393 7 386 q -7 430 1 408 q -8 469 -15 451 q 6 475 -1 472 q 19 475 13 478 q 40 497 21 489 q 82 510 58 506 q 128 513 106 514 q 160 508 150 513 q 161 491 161 501 q 161 469 161 481 q 160 448 161 458 q 157 433 158 438 q 151 421 154 426 q 150 404 147 415 q 151 403 151 404 q 153 403 151 403 q 177 425 167 411 q 201 447 188 439 q 219 454 211 451 q 230 469 226 461 q 243 482 233 476 q 244 492 242 485 q 249 508 246 500 q 255 524 251 517 q 261 533 258 532 q 275 532 271 540 q 276 522 279 525 q 275 511 272 518 q 282 501 278 506 q 289 492 286 497 q 292 481 290 486 q 294 469 293 476 l 311 453 q 317 438 314 446 q 322 422 319 429 q 331 408 326 415 q 340 394 336 401 q 339 383 339 388 q 338 371 339 378 q 342 340 340 356 q 347 310 344 325 q 347 289 349 300 q 347 267 344 278 q 354 247 350 256 q 361 232 358 239 l 361 211 q 366 190 364 203 q 372 165 368 176 q 381 149 375 156 q 390 135 386 143 q 376 97 383 115 q 364 54 368 79 q 357 40 363 49 q 354 28 351 31 q 346 18 350 22 q 338 8 342 14 q 335 -6 336 1 q 332 -21 333 -14 q 322 -44 328 -31 q 313 -65 315 -57 q 311 -79 311 -72 q 310 -93 311 -86 q 303 -106 307 -100 q 296 -117 299 -111 z "},"o":{"ha":328,"x_min":-12,"x_max":333,"o":"m 40 90 q 40 98 39 94 q 42 104 42 101 l 33 133 q 18 160 28 147 q 4 188 8 174 q 1 201 1 194 q -1 214 1 207 q -6 221 -3 218 q -11 229 -10 224 q -12 246 -12 235 q -12 269 -12 257 q -11 291 -12 281 q -8 308 -10 301 q 0 322 -4 315 q 7 336 4 329 q 26 383 18 360 q 50 426 35 407 q 58 436 54 432 q 67 444 63 440 q 73 463 74 457 q 83 478 72 469 q 104 483 93 478 q 127 492 115 488 q 151 498 139 496 q 172 494 163 500 l 185 503 q 268 461 242 503 q 274 447 271 454 q 281 431 278 439 q 308 391 294 411 q 329 347 322 371 q 328 338 329 342 q 328 328 328 333 q 328 274 333 300 q 312 224 322 249 q 290 178 301 200 q 269 133 278 156 q 261 91 263 114 q 253 49 260 68 q 232 39 240 46 q 215 24 224 32 q 199 8 207 15 q 181 -4 190 0 q 153 -4 174 -7 q 119 1 132 -1 q 106 2 114 3 q 92 6 99 1 q 62 44 76 18 q 40 90 47 71 m 83 310 q 72 273 72 293 q 79 235 72 253 q 88 222 82 228 q 96 207 93 217 l 75 178 q 75 155 72 167 q 79 133 78 143 q 86 96 81 119 q 103 65 92 72 q 125 58 113 64 q 147 49 139 51 q 171 49 156 46 q 185 64 175 54 q 185 85 190 75 q 181 106 181 94 q 186 129 183 117 q 192 153 189 142 q 183 196 190 176 q 186 233 176 215 q 219 246 193 249 q 212 286 222 274 q 178 304 201 299 l 176 303 q 163 274 176 279 q 136 260 150 268 q 128 251 131 257 q 118 243 125 246 q 103 247 108 240 q 92 256 97 253 q 83 310 94 285 z "},"p":{"ha":329,"x_min":-14,"x_max":318,"o":"m 289 121 q 279 93 285 106 l 258 64 q 254 43 254 57 q 251 28 254 29 q 244 22 249 24 q 236 18 239 19 q 233 19 235 18 q 221 24 225 21 q 210 29 217 28 q 186 31 199 32 q 163 32 174 29 q 158 35 160 33 q 153 38 156 36 q 137 35 144 40 q 118 32 129 29 q 103 42 111 38 q 89 51 96 47 l 89 49 q 90 32 89 40 q 92 15 90 24 l 82 6 q 82 -11 79 -1 q 82 -32 85 -21 l 65 -44 q 58 -42 61 -43 q 50 -40 54 -42 q 60 -74 50 -60 q 78 -99 69 -87 l 78 -107 q 62 -140 61 -119 q 69 -181 63 -160 q 81 -219 75 -201 q 81 -246 86 -237 q 75 -253 78 -251 q 68 -257 72 -254 q 68 -276 71 -269 q 63 -293 65 -282 q 65 -296 64 -294 q 67 -299 65 -297 q 67 -318 69 -307 q 64 -336 65 -329 q 63 -347 63 -342 q 61 -358 63 -353 q 65 -383 64 -372 q 63 -407 65 -394 q 69 -417 65 -414 q 74 -431 72 -419 q 65 -440 69 -436 q 58 -449 61 -443 q 58 -477 58 -464 q 58 -506 57 -490 q 58 -514 58 -510 q 57 -524 57 -518 q 60 -570 61 -547 q 57 -621 60 -593 q 58 -628 56 -624 q 63 -635 61 -632 q 63 -658 67 -647 q 53 -676 58 -668 l 51 -676 q 48 -674 49 -675 q 44 -672 47 -674 q 41 -657 42 -665 q 38 -642 40 -649 q 43 -635 40 -639 q 44 -625 46 -632 q 38 -608 39 -614 q 37 -594 35 -601 q 38 -579 39 -586 q 34 -554 36 -567 q 29 -531 32 -542 q 31 -518 31 -524 q 32 -506 32 -512 q 24 -456 29 -483 q 24 -438 22 -446 q 28 -424 26 -431 l 25 -404 q 23 -391 24 -397 q 22 -383 22 -385 q 20 -369 22 -379 q 17 -348 18 -358 q 14 -328 15 -337 q 14 -317 13 -319 q 19 -306 17 -311 q 24 -292 21 -300 q 22 -276 26 -282 q 15 -264 18 -269 q 19 -253 18 -258 q 21 -244 19 -249 q 19 -218 24 -231 q 11 -196 14 -206 q 10 -165 6 -178 q 11 -135 14 -151 q 9 -127 10 -131 q 7 -119 8 -124 q 15 -109 11 -114 q 24 -100 19 -104 q 19 -87 22 -90 q 13 -78 15 -85 q 10 -62 10 -71 q 7 -44 10 -53 q 13 -35 10 -39 q 17 -24 17 -32 q 10 -14 14 -18 q 4 -4 7 -10 q 7 20 3 4 q 14 44 11 36 q 13 53 13 49 q 11 63 13 58 q 13 72 13 68 q 15 82 14 76 q 10 99 13 90 q 4 115 7 107 q 4 143 1 131 q 7 175 7 156 q -6 182 0 178 q -14 194 -11 186 q 0 211 -4 204 q 13 229 4 218 q 5 263 6 247 q 6 292 4 278 q 13 319 8 306 q 19 349 17 333 q 18 365 21 356 q 18 385 15 375 q 23 401 21 393 q 28 418 25 410 q 24 469 29 446 q 33 514 18 492 q 42 497 42 511 q 42 465 43 482 q 42 431 42 447 q 50 408 42 414 l 50 411 q 71 428 63 417 q 86 451 79 439 q 101 474 93 463 q 122 492 110 485 q 137 476 133 488 q 147 456 140 464 q 159 444 154 450 q 171 433 164 439 q 197 411 183 422 q 224 390 211 400 q 247 381 235 383 q 265 369 258 378 q 268 358 268 365 q 271 346 268 351 q 299 290 286 319 q 318 229 311 261 q 314 217 318 225 q 308 206 310 210 q 311 176 307 194 q 314 153 315 157 q 302 135 310 142 q 289 121 294 129 m 151 71 q 188 66 169 63 q 222 81 207 69 q 243 112 236 93 q 246 154 250 131 q 238 167 244 163 q 229 179 232 172 l 217 225 q 205 232 211 228 q 188 233 199 236 q 182 231 185 232 q 176 228 179 229 q 161 230 167 228 q 144 231 156 232 q 135 247 139 238 q 124 261 131 256 q 122 231 122 249 q 114 201 122 213 q 89 189 100 199 q 89 176 86 179 q 102 157 93 165 q 114 139 111 149 q 113 130 115 133 q 108 123 111 126 q 103 115 106 119 q 103 107 101 111 q 109 97 106 101 q 115 88 113 93 q 117 81 117 85 q 119 74 117 76 q 137 70 125 71 q 151 71 149 69 z "},"q":{"ha":322,"x_min":-18,"x_max":310,"o":"m 289 210 q 294 176 286 192 q 310 149 303 161 l 297 111 q 301 81 300 97 q 299 47 303 64 q 295 40 297 44 q 293 32 293 36 q 295 19 294 25 q 296 7 296 14 q 296 -17 299 -4 q 292 -40 293 -29 q 294 -51 292 -46 q 293 -62 296 -56 q 286 -72 290 -69 q 279 -79 282 -74 q 279 -90 276 -86 q 283 -99 282 -94 q 281 -113 286 -107 q 272 -125 275 -119 q 281 -133 275 -131 q 289 -143 286 -136 q 287 -153 288 -149 q 286 -161 286 -157 q 297 -172 289 -167 q 296 -190 299 -183 q 288 -192 292 -192 q 281 -193 285 -193 q 283 -232 279 -215 q 289 -269 288 -249 q 283 -285 289 -281 q 275 -296 278 -289 l 279 -329 q 276 -340 276 -335 q 272 -350 275 -344 q 276 -377 275 -364 q 279 -403 278 -390 q 279 -424 281 -411 q 277 -449 278 -436 q 276 -473 276 -461 q 279 -493 276 -485 l 271 -510 q 272 -520 272 -515 q 274 -531 272 -525 q 274 -581 269 -553 q 271 -628 278 -608 l 268 -628 q 263 -594 268 -611 q 254 -564 258 -578 q 256 -551 251 -556 q 261 -543 260 -547 q 258 -529 261 -540 q 256 -511 256 -518 q 256 -510 256 -510 q 257 -508 257 -510 q 249 -458 250 -485 q 250 -403 247 -431 q 248 -391 250 -397 q 244 -381 246 -385 q 246 -358 240 -369 q 242 -353 244 -354 q 238 -350 240 -353 q 237 -335 236 -347 q 238 -318 238 -324 q 243 -297 236 -306 q 253 -278 250 -289 q 249 -224 256 -250 q 250 -172 243 -199 q 248 -163 251 -167 q 243 -156 244 -160 q 243 -147 243 -151 q 244 -137 243 -142 q 240 -125 243 -131 q 236 -114 238 -119 q 238 -87 233 -104 q 238 -60 242 -69 q 247 -49 243 -51 q 246 -46 247 -47 q 230 -21 235 -42 q 231 11 225 0 q 249 35 236 24 q 256 69 263 47 l 256 67 q 237 56 244 58 q 218 47 229 54 q 215 35 217 43 q 211 18 214 26 q 203 4 208 10 q 190 1 199 -1 q 178 6 182 4 q 164 8 175 8 q 158 3 164 7 q 145 -5 153 -1 q 131 -11 138 -8 q 121 -14 124 -14 l 96 -1 q 83 2 89 1 q 75 7 78 3 q 67 26 69 21 q 56 47 63 36 q 42 67 49 58 q 24 77 35 74 q 10 90 14 81 q 0 149 3 122 q -18 197 -3 175 q -10 211 -15 207 q -3 222 -6 215 q 7 265 4 244 q 21 304 10 286 q 47 337 35 321 q 74 368 60 353 q 75 374 75 371 q 76 381 75 378 q 88 390 81 386 q 101 401 96 394 q 119 436 113 417 q 140 464 125 456 q 156 463 144 465 q 180 457 167 461 q 204 449 193 453 q 218 443 215 444 q 222 442 221 440 q 235 426 231 431 q 239 426 238 424 q 246 439 243 429 q 250 461 249 449 q 252 485 251 474 q 254 503 253 496 q 253 526 257 514 q 257 549 250 538 q 263 546 257 549 q 269 524 272 539 q 268 499 267 510 q 273 482 271 490 q 278 465 275 474 q 276 447 279 457 q 278 426 274 436 q 296 319 293 379 q 286 297 296 308 q 279 268 276 285 l 296 235 q 292 222 293 228 q 289 210 292 217 m 225 115 q 239 148 242 131 q 236 189 236 165 q 238 204 236 197 q 233 218 239 211 q 217 232 228 228 q 201 244 207 236 q 195 260 196 253 q 192 273 194 267 q 186 285 190 279 q 169 296 182 290 l 169 267 q 178 249 172 258 q 183 229 185 240 q 169 208 182 219 q 150 190 157 197 q 152 155 160 172 q 134 122 144 138 q 119 93 124 107 q 133 69 115 79 l 147 69 q 157 66 151 68 q 167 61 163 64 q 178 65 174 64 q 190 69 183 67 q 194 83 193 76 q 194 96 196 90 q 210 107 201 104 q 225 115 218 110 z "},"r":{"ha":365,"x_min":-10,"x_max":363,"o":"m 292 174 q 278 148 285 161 q 264 121 271 135 q 267 157 267 138 q 274 189 267 176 q 259 231 267 208 q 261 276 251 253 q 265 277 264 278 q 269 278 267 276 q 274 289 274 283 q 272 301 274 294 q 270 302 271 301 q 268 303 269 303 q 261 286 267 290 q 249 282 256 282 q 233 283 242 282 q 218 282 225 285 q 206 273 211 278 q 193 264 200 268 q 178 261 186 261 q 171 254 171 261 q 171 228 168 243 q 178 195 174 213 q 186 161 182 178 q 189 133 190 144 q 175 109 188 122 q 156 86 163 96 q 151 74 153 81 q 147 61 150 68 q 149 45 144 51 q 156 33 153 39 q 156 23 158 28 q 138 11 154 18 q 135 -3 138 6 q 141 -22 136 -14 q 143 -40 146 -29 q 144 -43 143 -42 q 144 -47 144 -44 q 139 -52 142 -50 q 133 -57 136 -54 l 133 -99 q 128 -120 131 -110 q 124 -142 126 -131 q 124 -156 124 -149 q 125 -171 124 -164 q 123 -201 122 -186 q 121 -233 124 -217 q 114 -292 117 -265 q 113 -356 111 -319 q 111 -354 113 -354 q 106 -307 110 -331 q 97 -261 101 -283 q 97 -236 97 -249 q 96 -211 97 -224 q 88 -165 92 -192 q 81 -115 83 -137 q 78 -78 78 -97 q 81 -42 79 -60 q 81 -9 82 -25 q 72 22 79 7 q 74 48 75 36 q 74 72 72 60 q 79 90 76 82 q 79 108 82 97 q 73 122 76 115 q 67 136 69 129 q 56 143 61 142 q 49 154 51 144 q 51 172 46 165 q 58 186 56 178 q 59 206 60 190 q 57 225 58 222 q 44 258 53 244 q 29 289 35 271 q 29 319 25 306 q 26 353 33 333 q 19 359 24 356 q 13 365 15 363 q 3 381 8 371 q -6 397 -3 392 q -2 415 -10 410 q 8 426 6 421 q 20 445 15 435 q 35 463 25 456 q 52 471 39 465 q 81 481 65 476 q 110 487 97 485 q 128 486 124 489 q 135 478 131 482 q 142 469 139 474 q 147 451 146 461 q 151 435 147 442 q 164 419 164 432 l 168 419 q 178 433 175 425 q 189 446 182 442 q 203 456 196 451 q 215 468 210 461 q 224 484 219 476 q 231 500 228 492 q 246 513 238 507 q 258 529 254 518 q 264 551 263 538 q 267 579 265 565 q 271 605 268 593 q 281 622 274 617 q 285 617 282 619 q 285 604 288 610 q 281 592 282 599 l 285 571 q 283 557 283 564 q 282 543 282 550 l 290 510 q 297 488 293 499 q 306 465 301 476 q 313 459 308 461 q 318 453 317 457 q 324 431 322 440 q 331 410 325 421 q 340 399 336 404 q 350 388 344 394 q 351 375 350 386 q 351 351 351 364 q 351 326 351 338 q 351 314 351 315 q 356 284 350 300 q 356 254 363 268 q 346 244 350 250 q 345 236 346 240 q 344 228 344 232 q 318 201 331 214 q 292 174 306 188 z "},"s":{"ha":351,"x_min":-215,"x_max":346,"o":"m 282 -29 q 271 -45 279 -39 q 261 -61 263 -51 l 242 -106 l 222 -150 q 208 -160 215 -157 q 197 -172 201 -162 q 192 -192 190 -182 q 190 -210 193 -203 q 185 -219 190 -212 q 174 -235 181 -226 q 163 -250 168 -243 q 154 -260 157 -257 q 110 -290 136 -283 q 58 -312 85 -297 q 31 -325 46 -319 q 3 -337 17 -331 q -14 -350 -6 -343 q -32 -361 -22 -357 l -50 -361 q -90 -367 -69 -364 q -129 -372 -110 -369 q -154 -383 -142 -378 q -181 -393 -167 -387 q -193 -392 -185 -392 q -203 -398 -200 -394 q -215 -401 -206 -401 l -215 -399 q -203 -394 -207 -397 q -193 -387 -200 -390 q -175 -382 -185 -383 q -156 -376 -165 -381 q -140 -366 -149 -372 q -122 -357 -131 -360 q -82 -347 -101 -350 q -40 -333 -62 -343 q -25 -322 -33 -328 q -10 -310 -17 -317 q 2 -308 -3 -307 q 13 -307 7 -310 q 31 -288 24 -300 q 53 -271 39 -276 q 66 -269 60 -268 q 79 -267 72 -271 q 93 -250 89 -262 q 104 -231 97 -237 q 115 -224 108 -225 q 129 -220 122 -222 q 142 -214 136 -218 q 154 -199 149 -210 q 160 -166 164 -182 q 163 -131 156 -150 q 169 -116 165 -124 q 176 -101 174 -108 q 175 -74 179 -90 q 174 -44 171 -58 q 184 -39 176 -42 q 194 -33 192 -36 q 205 -13 200 -28 q 210 10 210 1 q 206 25 208 17 q 207 42 204 33 q 222 58 210 53 q 242 71 235 64 q 249 90 249 78 q 251 113 249 103 q 233 122 243 117 q 214 131 224 128 q 196 124 204 128 q 178 118 188 121 q 161 120 167 115 q 149 125 156 125 q 131 122 139 128 q 113 122 122 117 q 103 141 104 129 q 94 160 103 153 q 75 165 88 165 q 54 171 63 164 q 47 187 43 178 q 44 203 50 196 q 37 219 42 210 q 25 235 32 229 q 15 241 19 238 q 6 247 10 244 q -1 256 3 250 q -4 268 -6 261 q 1 277 -1 272 q 7 288 4 282 q 24 322 18 304 q 42 354 31 339 q 58 369 50 361 q 74 385 67 376 q 75 406 75 392 q 79 413 75 407 q 88 426 83 419 q 95 439 92 433 q 100 446 99 444 q 113 449 108 449 q 122 460 115 451 q 132 472 129 469 q 135 485 136 479 q 135 497 135 492 q 137 508 135 503 q 147 519 139 513 l 154 519 q 166 494 161 508 q 182 472 171 479 q 210 454 196 463 q 240 443 225 446 q 250 443 247 440 q 260 443 253 446 q 287 426 272 438 q 314 399 301 414 q 335 366 326 383 q 346 333 344 349 q 337 315 342 324 q 328 296 332 306 q 319 276 325 288 q 307 252 314 264 q 292 231 300 240 q 274 222 283 222 q 260 239 263 229 q 250 257 258 249 q 239 265 244 263 q 229 274 233 267 q 219 294 224 282 q 206 311 215 306 q 192 312 194 314 q 176 317 189 310 q 179 298 179 306 q 172 281 179 290 q 167 279 171 279 q 150 285 157 281 q 136 293 143 289 q 133 292 135 293 q 133 283 133 288 q 132 274 132 279 q 154 254 143 264 q 179 238 165 244 q 190 235 185 236 q 201 232 194 235 q 207 224 206 229 q 211 215 208 218 q 226 212 218 213 q 240 208 233 211 l 282 175 q 301 169 292 169 q 318 158 311 169 q 326 140 321 154 q 329 119 332 126 q 315 90 325 107 q 301 61 306 74 q 292 16 296 38 q 282 -29 288 -6 z "},"t":{"ha":344,"x_min":-111,"x_max":572,"o":"m 146 672 q 142 695 140 681 q 147 726 143 710 q 157 759 151 743 q 164 786 163 775 q 161 803 165 797 q 160 819 157 808 q 169 903 165 860 q 174 990 172 947 q 176 990 175 990 q 181 989 178 989 q 193 944 194 968 q 194 889 192 919 q 196 864 196 879 q 196 832 196 849 q 195 800 196 815 q 194 774 194 785 q 192 764 193 769 q 190 754 192 758 q 195 731 192 744 q 201 706 199 718 q 220 697 211 704 q 236 686 229 690 q 294 683 268 674 q 343 700 319 693 q 411 672 372 683 q 482 650 450 661 q 493 653 485 650 q 517 650 507 650 q 543 657 529 653 q 572 654 557 661 q 571 652 571 653 q 569 650 571 651 q 555 646 565 647 q 538 643 544 644 q 536 640 538 640 q 535 636 535 639 q 526 635 529 635 q 522 629 524 636 l 513 629 q 490 632 500 635 q 464 632 479 629 q 456 628 458 631 q 447 628 454 626 q 438 630 440 628 q 429 633 435 632 l 428 633 q 416 631 421 632 q 406 629 411 631 q 372 633 389 626 q 338 632 354 639 q 328 626 333 629 q 318 622 322 624 q 285 619 304 618 q 249 613 265 619 q 240 606 239 608 q 224 601 240 603 q 222 592 226 593 q 213 586 218 590 q 207 572 210 579 q 201 557 204 564 q 201 525 197 542 q 210 493 206 508 q 213 463 214 478 q 199 438 213 449 q 203 415 199 426 q 211 393 208 404 q 207 381 213 388 q 203 367 201 374 q 212 351 206 357 q 219 333 218 344 q 206 316 207 325 q 208 299 206 307 q 215 282 211 290 q 217 265 219 274 q 206 251 214 257 q 201 231 197 246 q 215 210 204 219 q 225 190 226 201 q 220 174 225 181 q 213 158 215 167 q 215 147 210 150 q 217 135 219 143 q 212 123 215 131 q 208 110 208 115 q 213 87 211 99 q 218 64 215 75 q 219 34 219 49 q 222 4 219 19 q 226 -3 225 0 q 229 -11 228 -7 q 226 -42 232 -28 q 217 -67 219 -56 q 228 -81 225 -68 q 232 -109 232 -93 q 230 -142 232 -125 q 225 -167 228 -158 q 224 -182 222 -174 q 224 -200 226 -190 q 220 -206 222 -203 q 215 -211 218 -208 q 210 -240 213 -226 q 204 -268 207 -254 q 205 -306 201 -285 q 211 -346 208 -326 q 212 -381 211 -364 q 214 -418 213 -399 q 215 -440 214 -425 q 215 -472 215 -456 q 213 -500 214 -487 q 207 -514 211 -512 q 193 -461 196 -493 q 185 -406 190 -429 q 186 -390 186 -397 q 186 -375 186 -382 q 174 -284 171 -329 q 181 -187 178 -239 l 175 -140 q 169 -131 172 -135 q 164 -121 165 -126 q 169 -101 167 -107 q 162 -73 171 -87 q 150 -46 153 -58 q 150 -35 149 -39 q 153 -28 151 -31 q 156 47 164 13 q 146 85 151 67 q 135 122 140 103 q 133 147 133 135 q 132 174 133 160 q 124 210 129 192 q 117 246 119 228 q 115 267 114 256 q 120 292 117 279 q 128 315 124 304 q 135 335 132 326 l 135 371 l 142 378 q 138 412 139 394 q 133 446 136 429 q 126 460 131 453 q 118 474 121 467 q 124 508 113 493 q 140 533 135 522 q 144 569 147 551 q 143 603 142 586 q 129 596 136 601 q 114 593 122 590 q 82 621 97 606 q 61 626 74 625 q 40 626 49 626 q 27 631 33 629 q 14 636 21 633 q -6 635 4 639 q -25 633 -17 632 q -35 640 -31 639 q -47 642 -37 642 q -69 640 -57 642 q -92 638 -82 639 q -104 635 -103 636 q -111 638 -111 636 l -111 639 q -97 646 -103 644 q -87 640 -92 643 q -49 657 -76 654 q -1 658 -21 660 q 8 665 1 665 q 21 665 15 668 q 33 663 26 661 q 53 668 40 664 q 71 671 65 672 q 79 667 75 671 q 88 663 83 664 q 98 663 89 661 q 117 665 107 664 q 135 669 126 667 q 146 672 144 671 z "},"u":{"ha":363,"x_min":-8,"x_max":365,"o":"m 346 471 q 356 463 350 464 q 364 454 363 461 q 363 438 364 446 q 363 421 363 429 q 361 375 365 393 q 350 342 357 357 q 336 313 343 328 q 326 275 329 297 q 328 246 324 263 q 332 217 332 229 q 328 181 331 197 q 328 144 325 165 q 334 126 329 136 q 336 103 339 117 q 326 90 333 93 q 315 79 318 88 q 317 65 315 69 q 310 46 311 51 q 310 16 307 31 q 311 -14 314 1 q 303 -22 307 -18 q 293 -26 300 -25 q 292 -24 293 -25 q 283 15 289 -6 q 267 47 278 36 q 213 17 239 32 q 160 -12 186 3 q 144 -26 154 -17 q 122 -22 133 -31 q 99 1 110 -12 q 80 30 89 15 q 67 51 71 44 q 39 95 51 74 q 14 142 26 117 l -7 171 q -6 180 -6 175 q -4 189 -6 185 q -1 263 -7 231 q 11 332 6 296 q 4 395 15 364 q -8 457 -7 426 q -2 469 -1 461 q 3 482 -3 476 q 26 488 14 485 q 49 496 38 492 q 63 514 57 503 q 76 533 69 525 q 83 538 79 538 q 89 540 86 538 q 93 547 92 543 q 97 553 94 550 q 103 549 100 550 q 110 546 107 549 q 130 451 117 493 q 163 369 143 408 q 156 349 161 357 q 144 336 150 342 q 131 326 138 331 q 122 313 125 321 l 122 293 q 119 269 117 275 q 128 260 122 263 q 140 254 133 257 q 147 240 146 251 q 144 221 149 229 q 138 203 139 213 q 135 174 136 188 q 132 144 133 160 q 129 135 133 139 q 125 128 125 132 q 133 93 122 113 q 150 64 143 74 q 160 57 154 57 q 173 60 167 57 q 185 66 179 63 q 196 71 190 69 q 208 69 203 72 q 217 69 213 67 q 228 77 219 71 q 238 81 236 83 q 256 150 253 107 q 251 225 258 193 q 251 251 249 238 q 250 278 254 265 q 239 310 246 296 q 228 340 232 325 q 227 358 226 344 q 229 385 228 371 q 232 410 231 399 q 233 422 233 421 q 234 444 235 431 q 233 471 233 457 q 232 496 232 485 q 235 511 232 507 q 251 526 240 521 q 276 531 263 531 q 303 526 290 531 q 325 514 317 522 q 335 492 331 503 q 346 471 340 482 z "},"v":{"ha":375,"x_min":-10,"x_max":379,"o":"m 314 497 q 331 494 322 493 q 347 494 339 494 q 363 490 356 494 q 374 474 369 486 q 377 466 375 469 q 378 458 379 463 q 374 448 376 451 q 369 440 372 444 q 367 408 363 422 q 375 379 372 393 q 367 362 371 368 q 357 352 363 356 q 342 349 351 349 q 319 349 333 349 q 319 338 319 343 q 321 326 319 333 q 326 322 324 324 q 333 321 329 319 q 340 322 336 321 q 349 322 344 322 q 350 298 356 310 q 340 274 344 286 q 343 253 340 267 q 337 238 340 246 q 331 222 333 231 q 323 190 325 207 q 314 163 321 174 l 294 163 q 281 149 288 160 q 267 126 274 139 q 256 101 261 114 q 250 79 251 88 q 251 72 250 76 q 251 64 251 68 q 244 53 249 53 q 232 46 239 53 q 214 22 225 39 q 200 -6 203 4 q 187 -63 192 -36 q 175 -122 182 -90 q 174 -145 175 -133 q 174 -168 174 -157 q 171 -167 172 -168 q 164 -127 167 -147 q 158 -90 161 -107 q 160 -67 160 -79 q 160 -44 160 -56 q 150 -6 157 -25 q 136 32 143 14 q 130 65 131 49 q 122 97 129 82 q 116 106 119 103 q 110 114 113 108 q 109 133 110 124 q 108 151 108 142 q 101 165 107 156 q 88 185 94 175 q 74 206 81 196 q 63 219 67 215 l 67 240 q 61 251 64 246 q 56 261 58 256 q 58 287 53 271 q 57 317 64 303 q 46 330 54 326 q 32 340 38 333 q 17 376 19 360 q 6 417 14 393 q -2 432 3 426 q -10 449 -7 438 q -7 456 -7 451 q -4 465 -7 461 q 6 478 -1 472 q 17 488 13 483 q 37 500 25 497 q 58 508 49 503 q 69 521 67 517 q 84 522 78 524 q 97 524 90 521 q 109 535 106 526 q 121 546 113 543 q 131 543 126 543 q 134 519 133 533 q 140 494 135 506 q 153 490 149 494 q 155 472 156 478 q 151 463 154 465 q 142 458 147 460 q 133 450 138 456 q 126 438 128 444 q 118 428 124 432 q 124 418 121 419 q 139 417 128 414 q 156 419 150 421 l 160 411 q 156 403 158 406 q 153 397 154 400 q 156 336 144 365 q 178 283 168 307 q 158 223 161 250 q 163 153 156 196 q 166 131 165 138 q 174 114 167 125 q 175 115 174 115 q 185 147 178 133 q 194 178 192 161 q 197 205 196 186 q 194 233 197 224 q 190 247 193 240 q 189 261 188 253 q 198 274 192 265 q 210 292 204 282 q 219 310 215 301 q 224 324 224 319 q 221 360 226 339 q 222 403 215 381 q 236 428 225 413 q 250 456 247 443 q 252 483 253 469 q 253 508 251 496 q 265 516 257 514 q 283 518 274 518 q 300 515 292 518 q 311 507 308 513 q 312 502 313 504 q 314 497 311 500 z "},"w":{"ha":489,"x_min":-22,"x_max":492,"o":"m 426 524 q 451 527 436 529 q 476 518 467 525 q 483 456 483 490 q 492 399 483 422 q 476 361 488 378 q 458 324 465 344 q 455 298 456 317 q 456 272 454 279 q 451 258 454 265 q 447 243 449 251 l 447 219 q 441 210 444 214 q 435 199 438 207 q 433 168 432 183 q 431 139 433 153 q 415 117 426 125 q 399 96 404 110 q 376 37 388 64 q 356 -22 364 10 q 349 -90 347 -56 q 349 -158 351 -124 q 345 -192 347 -174 q 346 -222 343 -211 q 343 -201 340 -215 q 344 -175 346 -186 q 339 -143 342 -160 q 335 -112 336 -126 q 336 -99 333 -108 q 336 -81 339 -90 q 334 -76 336 -78 q 332 -72 332 -75 q 331 -44 332 -62 q 328 -8 331 -26 q 324 28 326 11 q 317 54 321 46 q 300 87 310 71 q 285 122 290 103 q 278 140 282 129 q 271 163 275 151 q 262 184 267 175 q 253 196 257 193 q 239 158 246 179 q 226 118 232 138 q 227 103 225 111 q 226 90 229 96 q 223 83 225 83 q 217 79 221 83 q 205 56 211 72 q 196 29 199 40 q 185 -24 190 4 q 178 -81 181 -53 q 175 -111 175 -96 q 172 -143 175 -126 q 174 -167 171 -154 q 179 -190 176 -181 q 178 -206 178 -196 q 178 -238 178 -222 q 179 -271 178 -254 q 178 -269 178 -271 q 167 -211 175 -237 q 153 -157 160 -185 q 147 -126 150 -142 q 142 -96 144 -111 q 125 -53 135 -74 q 110 -8 115 -32 q 107 28 106 11 q 106 64 108 44 q 93 103 100 83 q 79 140 86 122 q 71 180 72 160 q 63 217 69 200 q 43 235 56 231 q 24 251 31 239 q 17 281 17 263 q 14 310 17 299 q 11 315 13 313 q 8 321 10 318 q 8 340 8 331 q 7 360 7 350 q 1 385 4 372 q -4 410 -1 397 q -12 420 -8 415 q -18 429 -15 425 q -21 449 -22 439 q -17 465 -19 458 q 10 473 -6 471 q 40 483 26 475 q 51 499 47 490 q 66 503 60 503 q 79 508 72 503 q 88 521 86 514 q 100 531 90 528 q 119 503 115 522 q 128 464 124 483 q 142 456 138 460 q 150 440 147 451 q 148 411 146 424 q 152 388 150 399 q 152 367 154 378 q 138 343 150 357 q 138 339 138 340 q 139 336 139 338 q 154 328 147 335 q 155 305 157 317 q 156 282 153 293 q 163 260 157 269 q 167 235 169 250 q 168 235 168 235 q 169 236 168 236 q 181 257 176 247 q 193 276 186 267 q 203 316 200 296 q 211 360 206 336 q 217 378 214 369 q 222 396 219 386 q 226 427 226 411 q 228 456 225 443 q 235 483 232 469 q 243 510 239 496 q 244 524 244 518 q 247 538 244 531 l 250 535 q 249 498 253 518 q 249 458 244 478 q 257 422 254 439 q 267 385 260 404 l 288 335 q 284 322 288 328 q 281 308 281 317 q 298 267 292 292 q 317 226 304 242 q 324 240 324 232 q 328 258 325 249 q 337 276 332 269 q 344 293 342 282 q 346 327 347 311 q 344 358 344 343 q 345 385 343 372 q 358 408 347 397 q 353 467 358 442 q 342 515 349 492 q 350 535 346 531 q 359 541 354 540 q 370 542 364 542 q 383 547 376 542 q 402 533 394 543 q 417 513 410 524 q 422 519 419 515 q 426 524 424 522 z "},"$":{"ha":463,"x_min":-1,"x_max":444,"o":"m 440 453 q 442 442 440 449 q 442 429 444 435 q 436 421 439 424 l 432 421 q 422 451 421 432 q 419 485 422 469 q 413 496 417 489 q 406 510 408 503 q 399 538 403 524 q 392 565 396 551 q 382 569 386 568 q 369 619 375 599 q 336 647 363 640 q 310 685 331 665 q 271 708 289 704 q 273 690 274 696 q 271 672 272 683 q 272 666 271 669 q 275 660 274 663 q 269 642 278 649 q 253 633 260 636 q 254 612 251 621 q 261 594 257 603 q 269 578 265 586 q 275 561 274 571 q 272 556 274 558 q 269 551 271 554 q 287 535 276 540 q 304 519 297 529 q 318 499 311 508 q 332 479 325 489 q 355 468 343 471 q 374 453 367 465 q 381 433 379 444 q 383 407 382 421 q 386 380 385 393 q 393 357 388 367 q 402 342 396 353 q 414 321 408 332 q 423 299 419 310 q 424 282 426 288 q 402 256 415 267 q 382 229 389 246 q 381 214 379 222 q 382 199 382 206 q 379 188 382 199 q 373 165 376 178 q 366 142 369 153 q 363 131 363 132 l 342 110 q 327 84 333 97 q 311 58 321 71 q 297 49 304 53 q 283 39 290 44 q 274 23 276 32 q 265 6 271 14 q 252 -7 258 -1 q 239 -19 246 -12 q 233 -45 236 -31 q 232 -71 229 -60 q 235 -85 233 -78 q 235 -100 236 -93 q 233 -176 231 -132 q 232 -254 235 -219 q 226 -294 231 -272 q 211 -325 222 -317 l 207 -321 q 214 -269 214 -300 q 208 -211 214 -237 q 210 -198 207 -206 q 211 -183 213 -190 q 209 -131 210 -157 q 207 -81 208 -106 q 208 -63 207 -75 q 211 -40 210 -51 q 213 -20 213 -29 q 213 -10 214 -11 q 186 1 201 0 q 157 8 171 1 q 129 29 138 15 q 107 54 121 43 q 92 63 100 60 q 75 69 83 65 q 68 78 72 74 q 61 85 64 82 q 50 90 56 89 q 42 97 44 92 q 40 105 40 101 q 39 113 40 108 q 33 122 36 118 q 28 131 31 126 q 22 160 22 144 q 19 192 22 176 l 7 221 q 3 253 4 232 q 6 281 1 275 q 0 307 1 289 q -1 345 -1 325 q 3 383 0 365 q 10 408 6 400 l 11 408 q 18 406 15 408 q 17 371 21 386 q 18 333 14 356 q 29 303 25 317 q 31 285 31 294 q 32 268 31 276 q 42 248 38 257 q 53 229 47 239 q 57 195 58 211 q 69 171 56 179 q 94 169 88 167 q 113 157 100 171 q 111 144 113 151 q 110 128 110 136 q 111 115 110 121 q 118 104 113 108 q 127 101 119 103 q 144 98 135 100 q 163 94 154 96 q 176 90 172 92 q 188 81 183 88 q 199 71 192 74 q 213 81 206 78 q 214 115 213 100 q 218 146 215 131 q 218 177 221 163 q 213 206 215 192 q 211 238 211 221 q 211 269 211 254 q 207 285 208 276 q 203 301 206 293 q 206 317 200 311 q 211 329 213 322 q 203 346 210 339 q 193 360 196 353 q 194 369 192 364 q 196 379 196 375 q 182 381 188 379 q 174 397 178 388 q 167 413 171 406 q 149 426 160 421 q 132 440 139 432 q 127 447 129 443 q 122 456 125 451 q 100 469 114 461 q 81 485 86 478 q 72 518 71 497 q 65 550 74 539 q 62 554 65 550 q 54 563 58 558 q 47 568 50 567 q 42 565 43 569 q 24 584 33 574 q 11 606 15 594 q 12 613 10 608 q 15 619 14 617 q 15 635 15 626 q 13 650 14 643 q 19 676 15 664 q 25 699 22 688 q 38 719 28 710 q 56 739 49 728 l 60 756 q 84 783 71 769 q 108 810 97 796 q 126 838 115 822 l 147 850 q 153 858 150 854 q 158 867 156 863 q 174 880 165 874 q 190 893 183 886 q 197 906 194 900 q 206 917 200 911 q 208 936 206 928 q 213 951 211 944 q 213 989 217 969 q 211 1026 210 1008 q 210 1044 211 1033 q 208 1066 210 1054 q 207 1088 207 1078 q 210 1104 207 1097 q 210 1102 210 1103 q 211 1100 211 1101 q 210 1111 210 1107 q 210 1125 210 1115 q 221 1110 218 1121 q 224 1088 224 1100 q 225 1062 225 1075 q 226 1039 225 1049 q 228 1016 229 1026 q 231 993 228 1006 q 245 935 235 969 q 268 881 256 901 q 288 876 275 879 q 313 868 300 872 q 337 858 326 864 q 351 849 347 853 q 356 828 358 839 q 361 808 354 818 q 371 800 367 804 q 381 792 375 796 q 385 776 383 781 q 414 729 400 754 q 417 713 418 722 q 415 695 417 704 q 410 678 413 686 q 410 664 408 669 q 410 649 407 656 q 417 636 413 643 q 427 622 422 629 q 432 604 432 614 q 422 590 424 599 q 424 569 419 581 q 432 547 429 557 q 437 499 438 521 q 440 453 436 476 m 150 611 q 178 599 160 592 q 208 615 197 607 q 206 634 208 628 q 200 647 203 640 q 199 674 196 661 q 203 700 201 688 l 196 700 q 175 706 183 703 q 151 710 167 710 q 144 703 149 707 q 138 696 140 700 q 142 666 138 681 q 149 640 146 651 q 149 626 149 633 q 150 611 150 618 m 260 283 q 265 253 261 268 q 265 221 268 239 q 249 218 254 217 l 249 213 q 253 194 247 201 q 263 181 260 188 q 263 168 263 174 q 261 156 263 163 q 266 126 265 140 q 265 97 267 113 q 280 103 275 99 q 287 114 285 108 q 291 126 289 119 q 297 140 293 133 q 310 160 304 151 q 324 181 317 169 q 328 206 329 192 q 322 236 326 221 q 311 266 317 251 q 303 292 306 281 q 304 304 304 299 q 306 317 304 310 q 298 360 304 336 q 272 390 292 383 q 276 381 274 383 q 278 371 278 379 q 269 361 275 364 q 261 353 263 358 q 260 333 258 344 q 265 313 263 321 q 263 298 264 306 q 260 283 261 290 z "},"(":{"ha":225,"x_min":-11,"x_max":268,"o":"m -1 635 q -3 649 -3 642 q -4 663 -4 656 q 5 706 -3 682 q 22 752 13 729 q 40 797 31 775 q 56 835 50 818 q 69 897 65 863 q 88 960 74 931 q 110 994 97 981 q 133 1028 122 1008 q 138 1038 136 1033 q 143 1049 140 1043 q 152 1053 147 1051 q 161 1058 157 1056 q 175 1088 169 1072 q 189 1118 181 1104 q 215 1155 201 1138 q 243 1192 229 1172 q 247 1185 244 1190 q 212 1096 232 1136 q 172 1015 192 1056 q 165 988 165 1003 q 158 956 164 972 q 153 945 156 950 q 149 935 151 940 q 145 913 146 924 q 143 890 144 901 q 128 862 138 875 q 115 829 118 849 q 117 792 110 807 q 122 757 125 776 q 118 740 121 751 q 112 717 115 729 q 104 694 108 704 q 99 682 100 685 q 92 678 96 678 q 86 672 89 678 q 82 648 79 660 q 82 621 85 636 q 77 611 79 615 q 76 597 75 607 q 79 578 78 588 q 82 557 81 568 q 89 547 85 550 q 94 535 93 543 l 94 504 q 98 493 97 499 q 101 481 99 488 q 99 451 103 465 q 91 422 96 436 q 84 391 86 407 q 86 357 82 375 q 103 363 96 357 q 117 372 110 368 q 131 372 124 375 q 149 353 138 369 q 149 320 147 338 q 149 292 151 303 q 139 267 146 281 q 135 236 132 254 q 145 209 138 219 q 157 186 153 199 q 167 145 165 165 q 176 104 169 125 q 188 68 182 86 q 201 33 194 50 q 217 4 206 22 q 240 -35 229 -14 q 260 -75 251 -56 q 264 -107 268 -94 q 258 -110 258 -110 q 244 -97 250 -106 q 233 -79 239 -89 q 222 -60 228 -69 q 210 -46 217 -51 q 192 -37 200 -39 q 175 -28 185 -35 q 153 1 163 -19 q 133 36 143 22 q 122 49 129 43 q 113 61 115 54 q 108 76 110 68 q 104 92 107 83 q 99 97 101 96 q 93 100 96 97 q 87 121 88 107 q 81 142 86 135 q 74 149 78 144 q 68 156 71 153 q 63 175 65 164 q 57 181 60 178 q 51 186 54 183 q 44 208 47 197 q 38 231 40 219 q 26 247 31 239 q 18 267 21 254 q 16 312 17 290 q 14 357 15 333 q -3 498 4 432 q -1 635 -11 564 z "},")":{"ha":694,"x_min":-32,"x_max":247,"o":"m 238 635 q 240 498 247 564 q 222 357 232 432 q 220 312 221 333 q 218 267 219 290 q 210 247 215 254 q 199 231 206 239 q 192 208 196 219 q 185 186 189 197 q 179 181 182 183 q 174 175 176 178 q 168 156 171 164 q 162 149 165 153 q 156 142 158 144 q 149 121 150 135 q 143 100 149 107 q 138 97 140 97 q 132 92 135 96 q 128 76 129 83 q 124 61 126 68 q 113 49 119 54 q 103 36 107 43 q 83 1 93 22 q 61 -28 74 -19 q 44 -37 51 -35 q 26 -46 36 -39 q 14 -60 19 -51 q 3 -79 8 -69 q -8 -97 -3 -89 q -22 -110 -14 -106 q -28 -107 -22 -110 q -24 -75 -32 -94 q -4 -35 -15 -56 q 19 4 7 -14 q 35 33 31 22 q 48 68 42 50 q 60 104 54 86 q 69 145 67 125 q 79 186 71 165 q 91 209 83 199 q 101 236 99 219 q 97 267 104 254 q 88 292 90 281 q 87 320 85 303 q 88 353 89 338 q 105 372 97 369 q 119 372 113 375 q 133 363 126 368 q 151 357 140 357 q 153 391 156 375 q 145 422 150 407 q 136 451 140 436 q 135 481 132 465 q 138 493 138 488 q 142 504 139 499 l 142 535 q 147 547 143 543 q 154 557 151 550 q 157 578 156 568 q 160 597 158 588 q 159 611 161 607 q 154 621 157 615 q 154 648 151 636 q 151 672 157 660 q 144 678 149 678 q 138 682 140 678 q 131 694 135 685 q 124 717 128 704 q 118 740 121 729 q 114 757 115 751 q 119 792 111 776 q 121 829 126 807 q 108 862 118 849 q 93 890 99 875 q 91 913 92 901 q 88 935 90 924 q 83 945 85 940 q 78 956 81 950 q 72 988 72 972 q 64 1015 71 1003 q 24 1096 44 1056 q -11 1185 4 1136 q -7 1192 -8 1190 q 21 1155 7 1172 q 47 1118 35 1138 q 61 1088 56 1104 q 75 1058 67 1072 q 84 1053 79 1056 q 93 1049 89 1051 q 98 1038 96 1043 q 103 1028 100 1033 q 126 994 114 1008 q 149 960 139 981 q 167 897 163 931 q 181 835 171 863 q 196 797 186 818 q 215 752 206 775 q 231 706 224 729 q 240 663 239 682 q 240 649 240 656 q 238 635 239 642 z "},"[":{"ha":197,"x_min":-18,"x_max":194,"o":"m 47 1160 q 76 1164 61 1165 q 106 1165 90 1163 q 131 1173 118 1169 q 158 1181 144 1176 q 169 1171 164 1179 q 179 1151 175 1163 q 187 1126 183 1139 q 192 1103 190 1113 q 191 1077 194 1088 q 185 1053 188 1067 q 186 1024 183 1036 q 188 999 189 1013 q 184 954 185 979 q 188 907 183 929 q 179 892 185 896 q 168 882 174 889 q 149 892 157 882 q 135 907 142 901 q 120 908 129 911 q 104 907 111 904 l 104 901 q 103 889 103 897 q 99 875 101 882 q 93 861 96 868 q 93 844 92 854 q 96 822 94 833 q 98 799 97 810 q 96 779 99 788 q 83 765 92 767 q 71 750 75 764 q 58 660 58 710 q 54 560 57 610 q 49 533 53 544 q 42 510 44 522 q 44 467 43 489 q 44 424 44 446 q 44 392 44 408 q 43 358 43 375 l 51 254 q 51 224 51 239 q 50 193 50 208 q 57 152 53 175 q 63 114 61 129 q 63 57 64 86 q 63 0 63 28 q 65 -53 63 -28 q 75 -99 68 -79 q 97 -94 82 -96 q 121 -97 111 -92 q 132 -89 126 -94 q 143 -80 138 -83 q 155 -76 149 -76 q 168 -83 161 -76 q 174 -137 172 -111 q 169 -187 176 -164 q 131 -194 150 -199 q 89 -189 111 -190 q 83 -199 88 -192 q 72 -214 78 -206 q 60 -228 65 -222 q 54 -235 56 -235 q 45 -217 44 -221 q 40 -193 46 -212 q 33 -181 36 -186 q 26 -169 29 -175 q 24 -142 25 -156 q 24 -115 24 -129 q 18 -97 21 -106 q 13 -79 15 -89 q 7 -6 6 -40 q 3 75 8 28 q -5 159 0 111 q -14 250 -10 207 q -12 353 -18 299 q -7 464 -7 408 q -7 536 -7 504 q -4 600 -7 568 l -4 686 q 1 713 -1 700 q 7 740 4 726 q 5 761 8 744 q 1 786 1 778 q 3 816 3 801 q 6 846 4 831 q 4 869 4 857 q 3 892 4 881 l 7 950 q 3 976 6 960 q 3 1007 0 992 q 5 1038 4 1017 q 7 1083 6 1060 q 8 1129 8 1107 q 8 1163 8 1151 q 17 1172 13 1167 q 25 1183 21 1178 q 38 1175 33 1182 q 47 1160 43 1168 z "},"]":{"ha":197,"x_min":-4,"x_max":208,"o":"m 143 1160 q 152 1175 147 1168 q 165 1183 157 1182 q 174 1172 169 1178 q 182 1163 178 1167 q 182 1129 182 1151 q 183 1083 182 1107 q 185 1038 185 1060 q 188 1007 186 1017 q 188 976 190 992 q 183 950 185 960 l 188 892 q 186 869 186 881 q 185 846 186 857 q 187 816 186 831 q 189 786 188 801 q 185 761 188 778 q 182 740 182 744 l 194 686 l 194 600 q 197 536 197 568 q 197 464 197 504 q 203 353 197 408 q 204 250 208 299 q 195 159 200 207 q 188 75 190 111 q 183 -6 182 28 q 178 -79 185 -40 q 172 -97 175 -89 q 167 -115 169 -106 q 166 -142 167 -129 q 164 -169 165 -156 q 158 -181 161 -175 q 150 -193 154 -186 q 147 -208 147 -203 q 145 -216 146 -212 q 142 -224 144 -219 q 136 -235 140 -228 q 130 -228 135 -235 q 119 -214 125 -222 q 108 -199 113 -206 q 101 -189 103 -192 q 60 -194 79 -190 q 21 -187 40 -199 q 16 -137 14 -164 q 22 -83 18 -111 q 34 -76 28 -76 q 47 -80 40 -76 q 58 -89 53 -83 q 69 -97 64 -94 q 92 -94 78 -92 q 114 -99 107 -96 q 125 -53 122 -79 q 128 0 128 -28 q 127 57 128 28 q 128 114 126 86 q 133 152 129 129 q 140 193 138 175 q 139 224 139 208 q 139 254 139 239 l 147 358 q 146 392 146 375 q 144 424 146 408 q 147 467 146 446 q 149 510 147 489 q 142 533 146 522 q 136 560 138 544 q 133 660 133 610 q 119 750 132 710 q 107 765 115 764 q 93 779 99 767 q 91 799 90 788 q 93 822 92 810 q 97 844 94 833 q 97 861 99 854 q 92 875 94 868 q 88 889 89 882 q 86 901 88 897 l 86 907 q 70 908 79 904 q 56 907 61 911 q 40 892 47 901 q 21 882 32 882 q 11 892 17 889 q 3 907 6 896 q 6 954 6 929 q 3 999 6 979 q 4 1024 1 1013 q 4 1053 7 1036 q -1 1077 3 1067 q -1 1103 -4 1088 q 3 1126 0 1113 q 11 1151 7 1139 q 21 1171 15 1163 q 32 1181 26 1179 q 59 1173 46 1176 q 85 1165 72 1169 q 114 1164 100 1163 q 143 1160 128 1165 z "},"@":{"ha":565,"x_min":4,"x_max":554,"o":"m 456 153 q 442 152 449 149 q 431 154 436 156 q 418 131 425 140 q 407 108 411 121 q 372 128 388 111 q 349 168 356 146 q 344 206 346 188 q 340 244 343 225 l 339 244 q 336 243 338 243 q 329 219 335 235 q 316 189 324 204 q 301 162 308 174 q 289 146 293 150 q 277 153 282 150 q 264 164 272 156 q 244 153 253 154 q 226 156 235 153 q 210 166 218 160 q 192 178 201 172 l 172 178 q 164 190 165 182 q 158 204 163 197 q 130 238 147 224 q 106 279 113 253 q 104 306 104 293 q 103 332 104 318 q 97 359 100 346 q 97 388 94 372 q 108 401 104 393 q 117 417 111 410 q 133 438 125 428 q 150 457 142 447 q 163 483 157 472 q 175 506 168 494 q 181 522 178 514 q 188 536 185 529 q 197 542 192 539 q 206 549 201 546 q 214 574 213 560 q 222 599 215 588 q 230 604 226 603 q 240 608 233 606 q 267 619 257 617 q 286 617 278 621 q 303 606 294 614 q 325 585 311 597 q 338 594 331 592 q 350 585 344 596 q 352 557 356 574 q 353 525 349 540 q 369 480 360 506 q 383 431 378 454 q 379 404 385 425 q 372 368 374 383 q 374 357 372 363 q 376 349 376 351 q 376 328 376 338 q 375 307 375 318 q 378 288 376 297 q 381 271 379 279 q 378 236 382 254 q 378 204 375 218 l 379 204 q 397 215 388 210 q 415 225 406 219 q 410 251 411 239 q 411 279 410 264 q 428 306 424 288 q 436 307 432 307 q 443 308 440 307 q 449 322 446 318 q 454 336 451 325 q 447 356 446 347 q 443 376 449 365 l 415 394 q 413 426 418 408 q 411 457 408 443 q 417 469 414 464 q 424 479 421 474 q 426 525 431 501 q 413 571 422 549 q 393 610 404 593 q 374 636 382 628 q 357 647 367 644 q 338 657 347 650 q 331 667 335 663 q 324 678 326 672 q 294 690 317 685 q 260 692 271 696 q 241 678 250 688 q 221 661 232 668 q 219 647 222 651 q 213 635 215 642 q 189 629 197 635 q 174 615 181 624 q 160 597 167 607 q 144 579 154 588 q 136 578 140 575 q 126 578 132 581 q 108 556 119 572 q 90 532 97 540 q 93 506 90 519 q 93 482 96 493 q 81 465 90 469 q 65 453 72 461 q 61 446 64 453 q 56 432 58 439 q 47 411 51 422 q 43 390 43 399 q 43 375 43 382 q 42 361 43 368 q 32 344 40 354 q 47 295 36 314 q 67 254 58 276 q 69 240 68 247 q 69 226 69 233 q 78 200 72 215 q 91 169 83 185 q 106 141 99 154 q 119 122 113 128 q 138 113 128 115 q 157 104 147 111 q 163 94 160 99 q 168 86 165 90 q 188 79 178 79 q 208 81 199 79 q 226 81 217 82 q 243 75 235 81 l 243 67 q 242 65 243 67 q 215 56 226 61 q 188 47 203 50 q 165 58 178 47 q 144 76 151 69 q 126 86 135 82 q 107 96 117 90 q 83 124 94 107 q 65 160 71 140 q 61 174 63 167 q 58 190 60 182 q 51 201 56 196 q 44 213 47 206 q 43 228 43 219 q 42 243 43 236 q 34 253 38 249 q 26 264 31 258 q 20 290 24 271 q 13 332 17 310 q 7 372 10 354 q 6 393 4 390 q 13 414 8 403 q 19 436 17 425 q 27 480 24 453 q 35 535 31 507 q 46 585 40 563 q 60 613 51 607 l 76 613 q 89 627 83 619 q 100 642 94 635 q 128 660 115 654 q 150 686 140 667 q 155 699 151 690 q 162 716 158 707 q 168 733 165 725 q 174 743 171 740 q 206 762 190 757 q 232 786 221 767 q 261 783 247 785 q 290 781 275 782 q 301 774 296 778 q 314 768 307 771 q 323 769 317 767 q 336 769 329 772 q 355 760 346 764 q 374 750 364 756 q 397 752 385 747 q 421 749 410 757 q 429 732 428 743 q 433 713 431 721 q 450 676 440 693 q 468 643 460 660 q 472 626 471 635 q 475 608 472 617 q 490 581 482 593 q 503 551 499 569 l 511 493 q 534 445 519 469 q 554 393 549 421 q 551 381 554 393 q 546 353 549 368 q 540 327 543 339 q 536 314 536 315 q 525 300 531 307 q 513 286 519 293 q 508 265 507 276 q 504 242 510 253 q 500 237 501 239 q 496 232 499 235 q 492 215 493 224 q 488 197 490 206 q 469 188 481 192 q 463 170 467 179 q 456 153 458 161 m 324 299 q 322 333 322 315 q 319 367 321 350 q 324 388 322 374 q 324 415 326 403 q 313 433 318 424 q 303 450 308 442 q 286 447 292 443 q 272 456 281 451 q 254 456 263 461 q 232 457 246 450 q 203 407 213 436 q 200 339 194 378 q 201 323 201 331 q 201 307 201 315 q 212 293 204 297 q 222 281 219 289 l 226 247 q 244 229 233 229 q 265 219 254 229 l 274 194 q 281 192 279 192 q 304 240 290 218 q 324 299 318 263 z "},"?":{"ha":383,"x_min":-1,"x_max":390,"o":"m 146 947 q 164 948 157 947 q 176 954 171 949 q 210 941 189 950 q 254 921 232 932 q 294 898 276 910 q 315 876 311 886 q 316 869 315 874 q 317 861 317 865 q 328 830 324 846 q 340 799 333 814 q 350 785 346 792 q 358 771 354 778 q 358 762 361 764 q 354 756 356 760 l 358 731 q 372 692 365 711 q 386 653 379 672 q 385 644 388 649 q 383 633 382 640 q 387 619 386 626 q 390 606 388 613 q 383 597 388 600 q 375 589 378 593 q 373 540 374 564 q 371 492 372 515 q 352 458 364 475 q 328 426 340 440 l 303 406 q 292 391 296 399 q 282 376 289 383 q 247 369 267 376 q 221 346 226 361 l 221 313 q 217 272 218 292 q 214 231 215 251 q 215 195 213 214 q 208 163 218 176 q 199 165 204 164 q 190 167 194 165 q 176 249 183 207 q 157 329 168 292 q 149 351 153 340 q 142 372 146 361 q 137 375 139 375 q 133 381 135 375 q 135 397 135 386 q 132 403 133 400 q 129 408 131 406 q 141 427 131 424 q 158 442 151 431 q 165 458 163 450 q 175 474 168 465 q 185 481 181 476 q 194 489 189 485 q 202 501 200 496 q 215 508 204 506 q 222 531 217 519 q 233 547 228 542 q 239 551 236 550 q 244 554 242 551 q 251 584 250 563 q 249 631 251 606 q 243 678 247 656 q 235 711 239 700 q 220 731 231 722 q 203 747 210 739 q 192 765 196 754 q 176 779 188 776 q 165 760 174 768 q 150 740 156 751 q 147 728 147 735 q 144 715 147 722 q 128 711 133 713 q 111 713 122 710 q 103 693 107 703 q 96 674 100 683 q 98 647 97 660 q 99 619 99 633 l 94 603 q 99 598 96 599 q 100 592 103 597 q 99 588 99 589 q 97 585 99 588 q 78 585 88 583 q 61 592 68 586 q 58 601 58 597 q 54 610 57 606 q 37 625 47 618 q 22 643 26 632 q 20 671 18 658 q 18 699 22 683 q 6 735 14 711 q 6 775 -1 758 q 10 781 8 778 q 15 788 13 785 q 19 803 18 794 q 24 818 21 811 q 40 840 29 828 q 65 865 51 853 q 92 888 78 876 q 115 906 106 899 q 131 926 126 913 q 146 947 135 940 m 238 -42 q 192 -34 218 -43 q 150 -18 165 -25 q 148 1 147 -12 q 150 28 149 14 q 154 56 151 43 q 160 75 157 69 q 170 87 164 82 q 183 94 176 92 q 240 72 224 94 q 251 17 257 49 l 256 0 q 247 -21 253 -11 q 238 -42 240 -31 z "},"!":{"ha":178,"x_min":0,"x_max":178,"o":"m 178 793 q 164 764 171 782 q 153 731 157 746 q 151 711 150 721 q 154 692 153 701 q 155 672 156 682 q 147 651 154 661 q 156 633 151 643 q 158 613 160 624 q 157 603 157 607 q 156 593 157 599 q 161 575 158 585 q 164 554 164 565 q 153 546 158 549 q 127 533 129 544 q 135 499 125 521 q 147 493 142 496 q 160 488 153 490 q 161 463 163 478 q 156 431 160 447 q 149 400 153 415 q 142 376 144 385 q 139 349 138 365 q 143 322 140 333 q 142 313 143 321 q 140 297 142 306 q 137 281 139 289 q 135 271 135 272 q 131 247 132 260 q 129 221 131 233 q 125 197 128 208 q 117 179 122 185 q 108 180 111 179 q 103 182 106 181 q 103 197 100 190 q 104 210 107 203 q 99 219 101 215 q 92 229 96 224 q 85 277 86 250 q 83 321 85 304 q 79 344 82 335 q 74 361 76 353 q 72 378 72 369 q 75 400 72 388 q 56 431 61 411 q 54 475 51 451 q 56 485 56 481 q 57 494 56 489 q 56 509 54 503 q 54 526 57 515 q 48 546 51 535 q 41 570 44 557 q 36 596 38 583 q 38 618 35 608 q 47 633 40 626 q 57 646 53 639 q 54 647 56 647 q 33 650 39 642 q 24 672 26 658 q 22 702 22 686 q 19 729 21 718 q 10 775 17 750 q 2 824 4 800 q 4 867 0 847 q 28 901 8 888 q 26 908 25 907 q 29 914 26 910 q 50 919 40 917 q 71 925 60 922 q 90 925 79 924 q 108 922 101 926 q 132 906 124 915 q 145 886 140 897 q 153 862 150 875 q 164 832 157 849 q 172 814 168 824 q 178 793 176 804 m 154 -31 q 108 -23 135 -32 q 68 -7 82 -14 q 65 12 65 -1 q 67 40 65 25 q 71 69 68 56 q 78 88 74 82 q 88 99 81 94 q 101 106 94 103 q 158 84 142 107 q 169 29 174 61 q 171 21 171 25 q 172 13 171 17 q 164 -9 169 1 q 154 -31 158 -19 z "},"#":{"ha":472,"x_min":-4,"x_max":499,"o":"m 253 513 q 250 535 251 526 q 249 551 249 544 q 254 565 250 558 q 269 579 258 571 q 271 621 272 599 q 279 660 269 643 q 290 660 286 661 q 301 658 294 660 q 313 632 306 650 q 328 594 321 614 q 338 558 335 575 q 335 532 340 540 q 317 525 325 526 q 316 515 317 519 q 315 507 315 511 q 316 506 317 504 q 318 504 315 507 q 332 505 328 500 q 344 507 336 510 q 359 502 349 506 q 375 496 369 499 q 404 497 390 492 q 432 503 418 503 q 460 501 447 503 q 486 504 472 500 q 496 494 493 499 q 494 479 499 489 l 436 471 q 408 473 424 468 q 385 478 393 478 q 358 473 367 476 q 328 475 349 469 q 320 470 324 472 q 314 465 317 468 q 313 437 314 454 q 310 402 311 419 q 310 369 310 385 q 317 344 311 353 q 335 340 325 342 q 356 334 346 338 q 375 326 367 331 q 386 314 383 321 q 384 313 385 313 q 382 311 383 313 q 374 310 382 311 q 356 309 365 310 q 337 308 346 308 q 325 307 328 307 q 308 290 318 296 q 309 228 304 258 q 314 158 314 199 q 308 156 311 157 q 303 151 306 154 q 303 110 306 132 q 294 78 301 89 l 293 78 q 288 80 288 79 q 286 85 289 81 q 284 145 290 114 q 275 208 278 176 q 274 248 272 229 q 271 286 276 267 q 252 281 257 282 q 244 282 247 281 q 238 286 242 283 q 221 292 233 289 q 210 280 217 283 q 194 275 203 276 q 178 272 186 274 q 161 265 169 271 q 155 203 157 235 q 158 144 153 172 q 158 131 158 139 q 155 118 157 124 q 148 110 153 113 q 138 114 143 108 q 124 143 126 124 q 123 185 122 163 q 126 232 124 208 q 124 272 128 256 q 117 280 118 275 q 111 288 115 285 q 86 304 99 296 q 61 322 74 313 l 61 335 q 66 346 60 340 q 81 357 72 351 q 101 366 90 363 q 117 369 111 369 l 117 371 q 113 407 114 389 q 108 443 111 425 l 107 443 q 83 429 97 439 q 55 413 69 419 q 26 408 40 407 q 3 429 13 410 q 12 447 7 436 q 14 463 17 457 q 7 472 11 468 q -1 482 3 476 q 9 500 -4 494 q 41 507 22 506 q 78 506 60 508 q 106 503 97 504 q 99 526 103 514 q 89 546 96 539 q 76 547 83 546 q 67 556 69 549 q 63 574 63 561 q 66 601 64 588 q 72 626 68 614 q 78 644 75 639 l 93 660 q 90 681 93 667 q 98 697 90 690 q 110 710 106 704 q 142 694 131 707 q 154 669 144 690 q 174 622 164 647 q 193 576 185 597 q 201 554 201 556 q 182 533 190 543 q 169 506 174 524 l 186 501 q 194 511 189 508 q 204 518 199 514 q 228 513 218 515 q 253 513 239 510 m 278 358 q 263 406 269 379 q 254 457 257 432 q 227 459 242 458 q 204 464 213 460 q 176 449 193 457 q 151 429 158 440 q 149 408 147 422 q 153 379 150 394 q 162 351 157 364 q 169 335 167 339 q 194 332 183 332 q 218 329 206 332 q 245 342 231 340 q 278 349 260 344 l 278 358 l 278 358 z "},".":{"ha":229,"x_min":4,"x_max":113,"o":"m 93 -31 q 47 -23 74 -32 q 7 -7 21 -14 q 4 12 4 -1 q 6 40 4 25 q 10 69 7 56 q 15 88 13 82 q 26 99 19 94 q 40 106 33 103 q 97 84 81 107 q 108 29 113 61 q 110 21 110 25 q 111 13 110 17 q 103 -9 108 1 q 93 -31 97 -19 z "},"D":{"ha":746,"x_min":-71,"x_max":728,"o":"m -37 938 q -45 941 -42 940 q -54 944 -49 942 q -71 978 -67 958 q -69 983 -71 982 q -42 975 -57 983 q -13 956 -28 967 q 14 933 1 944 q 33 914 26 921 q 41 911 33 914 q 58 906 49 908 q 76 899 68 903 q 86 896 83 896 q 101 899 94 899 q 140 892 118 896 q 182 892 163 889 q 211 897 197 894 q 239 901 225 899 q 260 897 250 899 q 282 894 271 896 q 303 897 294 892 q 322 896 311 901 q 347 885 333 893 q 372 874 361 878 q 382 876 378 875 q 392 879 386 878 q 414 876 400 878 q 444 871 428 874 q 473 865 460 868 q 493 858 486 863 q 523 842 506 851 q 549 821 540 832 q 551 801 551 814 q 560 781 551 789 q 569 775 565 776 q 579 769 574 774 q 588 756 583 763 q 596 742 593 749 q 610 738 603 738 q 624 737 617 738 q 640 733 632 736 q 656 718 647 729 q 649 660 656 689 q 656 604 642 631 q 669 590 660 596 q 690 578 679 583 q 708 565 700 572 q 721 547 717 558 q 719 535 719 540 q 717 524 718 529 q 722 502 721 513 q 726 482 724 492 q 726 457 728 475 q 721 419 724 439 q 715 383 718 399 q 711 367 711 368 q 714 343 708 357 q 710 318 719 329 q 690 310 700 315 q 672 289 682 299 q 656 268 663 279 q 644 263 649 265 q 633 260 639 260 q 627 253 632 258 q 617 241 622 247 q 608 230 613 235 q 604 225 604 225 q 594 206 597 215 q 585 189 592 197 q 569 174 576 182 q 554 158 563 167 q 538 129 543 143 q 517 103 532 115 q 489 90 504 94 q 481 82 485 88 q 474 72 476 76 q 458 70 465 68 q 443 69 451 72 q 423 60 439 69 q 404 49 407 51 q 378 19 392 40 q 354 -15 365 -1 q 341 -27 349 -22 q 325 -36 333 -32 q 306 -55 315 -46 q 286 -74 296 -64 q 258 -93 271 -85 q 231 -114 246 -101 l 228 -111 q 214 -114 224 -114 q 205 -114 210 -114 q 193 -111 200 -114 q 152 -122 174 -117 q 114 -122 131 -126 q 100 -125 107 -125 q 86 -128 93 -125 q 67 -126 76 -126 q 46 -125 57 -125 q 13 -139 28 -132 q -14 -153 -3 -146 q -30 -158 -21 -157 q -46 -158 -39 -160 q -58 -153 -53 -157 q -61 -142 -62 -149 q -44 -133 -53 -135 q -25 -125 -35 -132 q -15 -115 -19 -121 q -4 -106 -11 -108 q 40 -92 10 -99 q 90 -83 71 -86 q 103 -84 97 -83 q 117 -85 110 -85 q 160 -77 136 -79 q 206 -61 183 -75 q 216 -47 211 -54 q 228 -33 221 -40 q 260 0 250 -18 q 289 36 271 18 q 341 106 317 68 q 388 181 365 144 q 393 197 390 189 q 399 214 396 206 q 419 242 407 228 q 443 268 431 257 q 467 287 454 278 q 489 307 481 296 q 499 327 494 315 q 507 352 503 339 q 516 378 511 365 q 525 400 521 390 q 526 419 525 410 q 526 439 526 429 q 536 462 532 451 q 544 482 540 472 q 534 507 543 497 q 521 528 525 517 q 517 543 518 535 q 513 558 515 551 q 488 597 501 585 q 454 619 474 608 q 447 615 450 617 q 439 610 443 613 q 425 610 436 608 q 401 613 414 611 q 378 616 389 614 q 365 619 367 618 q 353 647 354 631 q 336 672 351 664 q 321 672 333 674 q 294 668 308 671 q 267 662 279 665 q 254 657 256 658 q 247 626 247 646 q 249 584 247 606 q 255 541 251 563 q 260 507 258 519 q 264 501 263 504 q 268 494 265 499 q 260 462 263 479 q 251 424 257 444 q 252 394 251 408 q 253 365 253 379 q 238 335 249 349 q 225 304 228 321 q 226 288 224 296 q 231 274 229 281 q 235 258 233 267 q 232 239 236 249 q 210 187 225 215 q 185 126 194 158 q 181 107 183 122 q 178 75 179 92 q 177 44 178 58 q 176 25 176 29 q 181 -15 181 8 q 171 -53 182 -37 q 167 -51 169 -53 q 147 50 147 -3 q 151 151 146 103 q 146 208 154 176 q 135 268 138 240 q 140 305 132 283 q 150 338 147 326 q 143 376 146 358 q 138 405 140 392 q 136 421 136 418 q 138 469 135 439 q 143 515 140 499 q 145 553 146 531 q 141 599 144 575 q 133 644 138 622 q 125 683 129 667 q 126 714 122 697 q 125 739 129 731 q 108 766 119 753 q 82 792 96 779 q 53 816 68 804 q 29 839 39 828 q 13 869 18 850 q -1 899 8 888 q -15 906 -8 906 q -25 913 -22 907 q -33 924 -32 917 q -37 938 -33 932 z "},",":{"ha":199,"x_min":-47,"x_max":128,"o":"m 122 -17 q 118 -24 119 -21 q 114 -32 117 -28 q 116 -40 114 -36 q 115 -51 118 -44 q 103 -69 113 -61 q 88 -86 94 -78 q 78 -104 83 -96 q 69 -122 74 -112 q 58 -131 63 -126 q 46 -142 53 -136 q 26 -161 35 -153 q 10 -176 18 -169 q -10 -190 1 -183 q -39 -201 -21 -196 q -43 -199 -42 -200 q -47 -196 -44 -197 q -29 -176 -43 -182 q -6 -162 -15 -169 q 24 -124 7 -151 q 49 -76 40 -96 q 56 -42 54 -64 q 46 -12 57 -19 q 19 -3 33 -7 q -1 13 6 1 q -6 34 -6 19 q -6 65 -7 49 q -3 97 -6 82 q 3 119 0 113 q 35 119 18 124 q 69 126 51 115 q 94 107 82 124 q 114 68 106 90 q 125 23 122 46 q 122 -17 128 0 z "},":":{"ha":164,"x_min":-7,"x_max":125,"o":"m 107 188 q 61 195 88 186 q 19 211 35 204 q 17 230 17 217 q 19 258 18 243 q 24 285 21 272 q 29 304 26 299 q 39 316 32 311 q 53 324 46 321 q 109 301 93 324 q 121 246 125 278 l 125 229 q 116 208 122 218 q 107 188 110 199 m 83 514 q 38 522 64 513 q -4 538 11 531 q -6 556 -7 543 q -4 585 -6 569 q 0 613 -3 600 q 6 632 3 626 q 29 650 14 642 q 86 628 69 651 q 97 572 103 604 l 101 556 q 92 535 99 544 q 83 514 86 525 z "},";":{"ha":188,"x_min":-47,"x_max":126,"o":"m 121 201 q 114 186 115 190 q 115 176 113 181 q 114 167 117 172 q 102 148 111 157 q 88 131 93 139 q 78 113 82 122 q 68 96 74 104 q 57 86 63 90 q 46 76 51 82 q 26 57 33 65 q 10 42 18 49 q -10 28 1 35 q -39 15 -21 22 q -43 19 -42 18 q -47 22 -44 19 q -30 42 -44 35 q -6 56 -15 49 q 8 72 0 61 q 24 94 17 82 q 37 119 31 107 q 47 140 43 132 q 52 156 50 146 q 55 176 54 167 q 53 194 56 186 q 46 206 51 203 q 18 215 32 211 q -3 229 4 218 q -8 251 -7 236 q -7 283 -8 267 q -3 315 -6 300 q 3 338 0 331 q 19 338 11 339 q 35 337 26 338 q 51 337 43 336 q 68 343 60 338 q 93 324 81 340 q 114 285 106 307 q 124 240 122 264 q 121 201 126 217 m 89 526 q 42 533 69 525 q 1 549 15 542 q -1 567 -1 554 q 0 596 -1 581 q 4 624 1 611 q 11 643 7 638 q 21 654 14 650 q 35 663 28 658 q 91 640 75 663 q 103 585 107 617 q 104 576 104 581 q 106 568 104 572 q 97 547 103 557 q 89 526 92 538 z "},"'":{"ha":157,"x_min":-35,"x_max":139,"o":"m 133 808 q 130 800 131 804 q 126 792 129 796 q 128 783 125 788 q 128 774 131 779 q 115 754 124 763 q 100 738 107 746 q 90 720 94 729 q 82 701 86 711 q 70 692 75 697 q 58 683 65 688 q 39 663 47 672 q 22 647 31 654 q 3 634 14 640 q -26 622 -8 628 q -31 626 -29 625 q -35 629 -32 626 q -17 648 -32 642 q 7 663 -3 654 q 21 678 13 668 q 36 701 29 689 q 49 726 43 714 q 60 747 56 739 q 68 783 67 760 q 58 811 69 806 q 31 822 44 818 q 10 836 17 825 q 5 858 6 843 q 6 890 4 874 q 10 922 7 907 q 15 944 13 938 q 31 945 24 946 q 47 944 39 944 q 64 944 56 943 q 82 950 72 944 q 106 931 94 947 q 126 892 118 914 q 137 847 135 869 q 133 808 139 824 z "},"":{"ha":128,"x_min":-35,"x_max":139,"o":"m 133 808 q 130 800 131 804 q 126 792 129 796 q 128 783 125 788 q 128 774 131 779 q 115 754 124 763 q 100 738 107 746 q 90 720 94 729 q 82 701 86 711 q 70 692 75 697 q 58 683 65 688 q 39 663 47 672 q 22 647 31 654 q 3 634 14 640 q -26 622 -8 628 q -31 626 -29 625 q -35 629 -32 626 q -17 648 -32 642 q 7 663 -3 654 q 21 678 13 668 q 36 701 29 689 q 49 726 43 714 q 60 747 56 739 q 68 783 67 760 q 58 811 69 806 q 31 822 44 818 q 10 836 17 825 q 5 858 6 843 q 6 890 4 874 q 10 922 7 907 q 15 944 13 938 q 31 945 24 946 q 47 944 39 944 q 64 944 56 943 q 82 950 72 944 q 106 931 94 947 q 126 892 118 914 q 137 847 135 869 q 133 808 139 824 z "},"":{"ha":306,"x_min":-35,"x_max":303,"o":"m 135 772 q 126 757 132 768 q 128 749 126 753 q 128 738 131 744 q 116 719 125 728 q 100 703 107 711 q 91 685 96 693 q 82 667 86 676 q 70 658 75 663 q 58 649 65 653 q 39 628 47 638 q 22 613 31 619 q 3 599 14 606 q -26 588 -8 593 q -31 591 -29 590 q -35 594 -32 592 q -17 613 -31 607 q 7 628 -3 619 q 21 642 13 632 q 37 665 29 653 q 51 691 44 678 q 61 713 57 704 q 68 747 67 725 q 58 776 69 769 q 32 787 46 783 q 11 801 18 790 q 6 823 7 808 q 6 854 6 838 q 10 886 7 871 q 15 908 13 901 q 31 910 24 911 q 47 909 39 910 q 65 909 56 908 q 82 915 74 910 q 106 896 94 913 q 126 857 118 879 q 138 812 135 835 q 135 772 140 789 m 297 772 q 294 765 294 769 q 290 757 293 761 q 292 749 289 753 q 292 738 294 744 q 279 719 288 728 q 264 703 271 711 q 246 667 254 685 q 234 658 239 663 q 222 649 229 653 q 203 628 211 638 q 186 613 194 619 q 167 599 178 606 q 138 588 156 593 q 133 591 135 590 q 129 594 132 592 q 147 613 132 607 q 171 628 161 619 q 185 642 176 632 q 200 665 193 653 q 213 691 207 678 q 224 713 219 704 q 232 747 231 725 q 222 776 233 769 q 194 787 208 783 q 174 801 181 790 q 169 823 169 808 q 169 854 168 838 q 174 886 171 871 q 179 908 176 901 q 195 910 188 911 q 211 909 203 910 q 228 909 219 908 q 246 915 236 910 q 270 896 258 913 q 290 857 282 879 q 301 812 299 835 q 297 772 303 789 z "}}}
